<svg version="1.1" viewBox="0.0 0.0 960.0 540.0" fill="none" stroke="none" stroke-linecap="square" stroke-miterlimit="10" xmlns:xlink="http://www.w3.org/1999/xlink" xmlns="http://www.w3.org/2000/svg"><clipPath id="g8a65174a65_2_43.0"><path d="m0 0l960.0 0l0 540.0l-960.0 0l0 -540.0z" clip-rule="nonzero"/></clipPath><g clip-path="url(#g8a65174a65_2_43.0)"><path fill="#f3f4fb" d="m0 0l960.0 0l0 540.0l-960.0 0z" fill-rule="evenodd"/><path fill="#bceeff" d="m157.2441 -6.3622046l0 0c0 -0.0029711723 0.0024108887 -0.0053792 0.0053863525 -0.0053792l645.5065 0.0053792c0.0014038086 0 0.0028076172 5.6648254E-4 0.0037841797 0.00157547c0.0010375977 0.0010085106 0.0015869141 0.0023770332 0.0015869141 0.00380373l-0.0053710938 552.719c0 0.0029907227 -0.0024414062 0.0053710938 -0.0053710938 0.0053710938l-645.5065 -0.0053710938l0 0c-0.0029754639 0 -0.0053863525 -0.002380371 -0.0053863525 -0.0053710938z" fill-rule="evenodd"/><path fill="#92b4d8" d="m353.1811 129.22902l0 0c0 -4.662178 3.7794495 -8.44162 8.44162 -8.44162l236.75455 0c2.2388916 0 4.3860474 0.8893814 5.9691772 2.472496c1.5830688 1.583107 2.4724731 3.7302628 2.4724731 5.969124l0 95.74669c0 4.6621704 -3.77948 8.44162 -8.44165 8.44162l-236.75455 0l0 0c-4.6621704 0 -8.44162 -3.7794495 -8.44162 -8.44162z" fill-rule="evenodd"/><path fill="#000000" fill-opacity="0.0" d="m345.07086 154.09317l269.92126 0l0 46.015747l-269.92126 0z" fill-rule="evenodd"/><path fill="#4a729c" d="m426.0128 174.61317l-0.015625 -5.5625l-2.75 4.609375l-0.703125 0l-2.765625 -4.546875l0 5.5l-1.484375 0l0 -8.40625l1.28125 0l3.34375 5.578125l3.28125 -5.578125l1.28125 0l0 8.40625l-1.46875 0zm7.663208 0.125q-1.28125 0 -2.3125 -0.5625q-1.03125 -0.5625 -1.625 -1.546875q-0.578125 -0.984375 -0.578125 -2.21875q0 -1.21875 0.578125 -2.203125q0.59375 -1.0 1.625 -1.546875q1.03125 -0.5625 2.3125 -0.5625q1.296875 0 2.328125 0.5625q1.03125 0.546875 1.609375 1.53125q0.59375 0.984375 0.59375 2.21875q0 1.234375 -0.59375 2.21875q-0.578125 0.984375 -1.609375 1.546875q-1.03125 0.5625 -2.328125 0.5625zm0 -1.375q0.84375 0 1.515625 -0.375q0.671875 -0.375 1.046875 -1.046875q0.390625 -0.6875 0.390625 -1.53125q0 -0.84375 -0.390625 -1.515625q-0.375 -0.671875 -1.046875 -1.046875q-0.671875 -0.390625 -1.515625 -0.390625q-0.828125 0 -1.5 0.390625q-0.671875 0.375 -1.0625 1.046875q-0.390625 0.671875 -0.390625 1.515625q0 0.84375 0.390625 1.53125q0.390625 0.671875 1.0625 1.046875q0.671875 0.375 1.5 0.375zm13.605682 -7.15625l-3.671875 8.40625l-1.53125 0l-3.671875 -8.40625l1.6875 0l2.796875 6.484375l2.828125 -6.484375l1.5625 0zm7.1774597 7.09375l0 1.3125l-6.296875 0l0 -8.40625l6.140625 0l0 1.3125l-4.578125 0l0 2.1875l4.0625 0l0 1.28125l-4.0625 0l0 2.3125l4.734375 0zm11.008331 -3.0625q0.703125 0.234375 1.109375 0.765625q0.40625 0.53125 0.40625 1.328125q0 1.09375 -0.84375 1.6875q-0.84375 0.59375 -2.453125 0.59375l-4.171875 0l0 -8.40625l3.9375 0q1.484375 0 2.28125 0.59375q0.8125 0.578125 0.8125 1.59375q0 0.625 -0.296875 1.109375q-0.28125 0.484375 -0.78125 0.734375zm-4.390625 -2.796875l0 2.3125l2.203125 0q0.828125 0 1.265625 -0.296875q0.4375 -0.296875 0.4375 -0.859375q0 -0.578125 -0.4375 -0.859375q-0.4375 -0.296875 -1.265625 -0.296875l-2.203125 0zm2.515625 5.953125q1.8125 0 1.8125 -1.21875q0 -1.203125 -1.8125 -1.203125l-2.515625 0l0 2.421875l2.515625 0zm8.498932 -1.75l0 2.96875l-1.5625 0l0 -2.9375l-3.296875 -5.46875l1.671875 0l2.453125 4.09375l2.484375 -4.09375l1.546875 0l-3.296875 5.4375zm5.8901978 -4.109375l-2.78125 0l0 -1.328125l7.125 0l0 1.328125l-2.78125 0l0 7.078125l-1.5625 0l0 -7.078125zm11.81778 5.765625l0 1.3125l-6.296875 0l0 -8.40625l6.140625 0l0 1.3125l-4.578125 0l0 2.1875l4.0625 0l0 1.28125l-4.0625 0l0 2.3125l4.734375 0zm5.597809 1.4375q-1.265625 0 -2.296875 -0.5625q-1.03125 -0.5625 -1.609375 -1.546875q-0.578125 -0.984375 -0.578125 -2.21875q0 -1.234375 0.578125 -2.21875q0.59375 -0.984375 1.609375 -1.53125q1.03125 -0.5625 2.3125 -0.5625q1.03125 0 1.875 0.359375q0.859375 0.359375 1.453125 1.046875l-1.015625 0.9375q-0.90625 -0.984375 -2.25 -0.984375q-0.859375 0 -1.546875 0.390625q-0.671875 0.375 -1.0625 1.046875q-0.390625 0.671875 -0.390625 1.515625q0 0.859375 0.390625 1.53125q0.390625 0.671875 1.0625 1.046875q0.6875 0.375 1.546875 0.375q1.34375 0 2.25 -1.0l1.015625 0.96875q-0.59375 0.6875 -1.453125 1.046875q-0.859375 0.359375 -1.890625 0.359375zm8.575317 0q-1.28125 0 -2.3125 -0.5625q-1.03125 -0.5625 -1.625 -1.546875q-0.578125 -0.984375 -0.578125 -2.21875q0 -1.21875 0.578125 -2.203125q0.59375 -1.0 1.625 -1.546875q1.03125 -0.5625 2.3125 -0.5625q1.296875 0 2.328125 0.5625q1.03125 0.546875 1.609375 1.53125q0.59375 0.984375 0.59375 2.21875q0 1.234375 -0.59375 2.21875q-0.578125 0.984375 -1.609375 1.546875q-1.03125 0.5625 -2.328125 0.5625zm0 -1.375q0.84375 0 1.515625 -0.375q0.671875 -0.375 1.046875 -1.046875q0.390625 -0.6875 0.390625 -1.53125q0 -0.84375 -0.390625 -1.515625q-0.375 -0.671875 -1.046875 -1.046875q-0.671875 -0.390625 -1.515625 -0.390625q-0.828125 0 -1.5 0.390625q-0.671875 0.375 -1.0625 1.046875q-0.390625 0.671875 -0.390625 1.515625q0 0.84375 0.390625 1.53125q0.390625 0.671875 1.0625 1.046875q0.671875 0.375 1.5 0.375zm6.18219 -7.15625l3.6719055 0q1.34375 0 2.390625 0.53125q1.046875 0.515625 1.625 1.46875q0.578125 0.953125 0.578125 2.203125q0 1.25 -0.578125 2.203125q-0.578125 0.953125 -1.625 1.484375q-1.046875 0.515625 -2.390625 0.515625l-3.6719055 0l0 -8.40625zm3.6094055 7.09375q0.921875 0 1.625 -0.359375q0.703125 -0.359375 1.078125 -1.015625q0.375 -0.65625 0.375 -1.515625q0 -0.859375 -0.375 -1.515625q-0.375 -0.65625 -1.078125 -1.0q-0.703125 -0.359375 -1.625 -0.359375l-2.0469055 0l0 5.765625l2.0469055 0zm12.599548 0l0 1.3125l-6.296875 0l0 -8.40625l6.140625 0l0 1.3125l-4.578125 0l0 2.1875l4.0625 0l0 1.28125l-4.0625 0l0 2.3125l4.734375 0zm5.055237 -7.09375l1.5625 0l0 8.40625l-1.5625 0l0 -8.40625zm9.328003 8.40625l-1.71875 -2.453125q-0.109375 0 -0.328125 0l-1.890625 0l0 2.453125l-1.5625 0l0 -8.40625l3.453125 0q1.09375 0 1.90625 0.359375q0.8125 0.359375 1.234375 1.03125q0.4375 0.671875 0.4375 1.609375q0 0.9375 -0.46875 1.625q-0.453125 0.6875 -1.3125 1.015625l1.921875 2.765625l-1.671875 0zm-0.03125 -5.40625q0 -0.8125 -0.53125 -1.234375q-0.53125 -0.4375 -1.546875 -0.4375l-1.828125 0l0 3.34375l1.828125 0q1.015625 0 1.546875 -0.4375q0.53125 -0.4375 0.53125 -1.234375z" fill-rule="nonzero"/><path fill="#4a729c" d="m372.45947 190.9413q-0.703125 -1.09375 -1.078125 -2.53125q-0.375 -1.4375 -0.375 -3.078125q0 -1.65625 0.375 -3.09375q0.375 -1.453125 1.078125 -2.53125l1.4375 0q-0.734375 1.296875 -1.078125 2.671875q-0.34375 1.375 -0.34375 2.953125q0 1.5625 0.34375 2.9375q0.34375 1.375 1.078125 2.671875l-1.4375 0zm2.820282 -10.734375l1.5625 0l0 8.40625l-1.5625 0l0 -8.40625zm11.296783 0l0 8.40625l-1.28125 0l-4.640625 -5.6875l0 5.6875l-1.546875 0l0 -8.40625l1.28125 0l4.640625 5.6875l0 -5.6875l1.546875 0zm3.9544373 1.328125l-2.78125 0l0 -1.328125l7.125 0l0 1.328125l-2.78125 0l0 7.078125l-1.5625 0l0 -7.078125zm11.81781 5.765625l0 1.3125l-6.296875 0l0 -8.40625l6.140625 0l0 1.3125l-4.578125 0l0 2.1875l4.0625 0l0 1.28125l-4.0625 0l0 2.3125l4.734375 0zm7.243164 1.3125l-1.71875 -2.453125q-0.109375 0 -0.328125 0l-1.890625 0l0 2.453125l-1.5625 0l0 -8.40625l3.453125 0q1.09375 0 1.90625 0.359375q0.8125 0.359375 1.234375 1.03125q0.4375 0.671875 0.4375 1.609375q0 0.9375 -0.46875 1.625q-0.453125 0.6875 -1.3125 1.015625l1.921875 2.765625l-1.671875 0zm-0.03125 -5.40625q0 -0.8125 -0.53125 -1.234375q-0.53125 -0.4375 -1.546875 -0.4375l-1.828125 0l0 3.34375l1.828125 0q1.015625 0 1.546875 -0.4375q0.53125 -0.4375 0.53125 -1.234375zm11.022064 5.40625l-0.015625 -5.5625l-2.75 4.609375l-0.703125 0l-2.765625 -4.546875l0 5.5l-1.484375 0l0 -8.40625l1.28125 0l3.34375 5.578125l3.28125 -5.578125l1.28125 0l0 8.40625l-1.46875 0zm10.038208 -1.3125l0 1.3125l-6.296875 0l0 -8.40625l6.140625 0l0 1.3125l-4.578125 0l0 2.1875l4.0625 0l0 1.28125l-4.0625 0l0 2.3125l4.734375 0zm1.7431946 -7.09375l3.671875 0q1.34375 0 2.390625 0.53125q1.046875 0.515625 1.625 1.46875q0.578125 0.953125 0.578125 2.203125q0 1.25 -0.578125 2.203125q-0.578125 0.953125 -1.625 1.484375q-1.046875 0.515625 -2.390625 0.515625l-3.671875 0l0 -8.40625zm3.609375 7.09375q0.921875 0 1.625 -0.359375q0.703125 -0.359375 1.078125 -1.015625q0.375 -0.65625 0.375 -1.515625q0 -0.859375 -0.375 -1.515625q-0.375 -0.65625 -1.078125 -1.0q-0.703125 -0.359375 -1.625 -0.359375l-2.046875 0l0 5.765625l2.046875 0zm6.3026733 -7.09375l1.5625 0l0 8.40625l-1.5625 0l0 -8.40625zm9.281158 6.46875l-4.203125 0l-0.828125 1.9375l-1.609375 0l3.78125 -8.40625l1.53125 0l3.796875 8.40625l-1.625 0l-0.84375 -1.9375zm-0.515625 -1.234375l-1.59375 -3.671875l-1.5625 3.671875l3.15625 0zm5.3337097 -3.90625l-2.78125 0l0 -1.328125l7.125 0l0 1.328125l-2.78125 0l0 7.078125l-1.5625 0l0 -7.078125zm11.81778 5.765625l0 1.3125l-6.296875 0l0 -8.40625l6.140625 0l0 1.3125l-4.578125 0l0 2.1875l4.0625 0l0 1.28125l-4.0625 0l0 2.3125l4.734375 0zm10.555206 1.3125l-1.71875 -2.453125q-0.109375 0 -0.328125 0l-1.890625 0l0 2.453125l-1.5625 0l0 -8.40625l3.453125 0q1.09375 0 1.90625 0.359375q0.8125 0.359375 1.234375 1.03125q0.4375 0.671875 0.4375 1.609375q0 0.9375 -0.46875 1.625q-0.453125 0.6875 -1.3125 1.015625l1.921875 2.765625l-1.671875 0zm-0.03125 -5.40625q0 -0.8125 -0.53125 -1.234375q-0.53125 -0.4375 -1.546875 -0.4375l-1.828125 0l0 3.34375l1.828125 0q1.015625 0 1.546875 -0.4375q0.53125 -0.4375 0.53125 -1.234375zm9.600189 4.09375l0 1.3125l-6.296875 0l0 -8.40625l6.140625 0l0 1.3125l-4.578125 0l0 2.1875l4.0625 0l0 1.28125l-4.0625 0l0 2.3125l4.734375 0zm5.1963196 -7.09375q1.09375 0 1.90625 0.359375q0.8125 0.359375 1.234375 1.03125q0.4375 0.671875 0.4375 1.609375q0 0.90625 -0.4375 1.59375q-0.421875 0.671875 -1.234375 1.03125q-0.8125 0.359375 -1.90625 0.359375l-1.890625 0l0 2.421875l-1.5625 0l0 -8.40625l3.453125 0zm-0.0625 4.65625q1.015625 0 1.546875 -0.421875q0.53125 -0.4375 0.53125 -1.234375q0 -0.8125 -0.53125 -1.234375q-0.53125 -0.4375 -1.546875 -0.4375l-1.828125 0l0 3.328125l1.828125 0zm10.701447 3.75l-1.71875 -2.453125q-0.109375 0 -0.328125 0l-1.890625 0l0 2.453125l-1.5625 0l0 -8.40625l3.453125 0q1.09375 0 1.90625 0.359375q0.8125 0.359375 1.234375 1.03125q0.4375 0.671875 0.4375 1.609375q0 0.9375 -0.46875 1.625q-0.453125 0.6875 -1.3125 1.015625l1.921875 2.765625l-1.671875 0zm-0.03125 -5.40625q0 -0.8125 -0.53125 -1.234375q-0.53125 -0.4375 -1.546875 -0.4375l-1.828125 0l0 3.34375l1.828125 0q1.015625 0 1.546875 -0.4375q0.53125 -0.4375 0.53125 -1.234375zm9.600159 4.09375l0 1.3125l-6.2968445 0l0 -8.40625l6.1405945 0l0 1.3125l-4.5780945 0l0 2.1875l4.0624695 0l0 1.28125l-4.0624695 0l0 2.3125l4.7343445 0zm4.3526 1.4375q-0.96875 0 -1.875 -0.28125q-0.90625 -0.28125 -1.4375 -0.734375l0.53125 -1.203125q0.515625 0.40625 1.265625 0.671875q0.75 0.25 1.515625 0.25q0.9375 0 1.390625 -0.296875q0.46875 -0.3125 0.46875 -0.796875q0 -0.359375 -0.265625 -0.59375q-0.25 -0.234375 -0.65625 -0.359375q-0.390625 -0.140625 -1.078125 -0.3125q-0.953125 -0.21875 -1.546875 -0.453125q-0.59375 -0.234375 -1.03125 -0.71875q-0.421875 -0.484375 -0.421875 -1.3125q0 -0.6875 0.375 -1.25q0.390625 -0.578125 1.140625 -0.90625q0.765625 -0.34375 1.875 -0.34375q0.765625 0 1.5 0.1875q0.75 0.1875 1.296875 0.546875l-0.5 1.21875q-0.546875 -0.328125 -1.15625 -0.484375q-0.59375 -0.171875 -1.15625 -0.171875q-0.921875 0 -1.375 0.3125q-0.453125 0.3125 -0.453125 0.828125q0 0.359375 0.25 0.59375q0.265625 0.21875 0.65625 0.359375q0.40625 0.125 1.09375 0.28125q0.9375 0.21875 1.53125 0.453125q0.609375 0.234375 1.03125 0.71875q0.421875 0.484375 0.421875 1.296875q0 0.6875 -0.375 1.265625q-0.375 0.5625 -1.140625 0.90625q-0.765625 0.328125 -1.875 0.328125zm11.235535 -1.4375l0 1.3125l-6.296875 0l0 -8.40625l6.140625 0l0 1.3125l-4.578125 0l0 2.1875l4.0625 0l0 1.28125l-4.0625 0l0 2.3125l4.734375 0zm9.211914 -7.09375l0 8.40625l-1.28125 0l-4.640625 -5.6875l0 5.6875l-1.546875 0l0 -8.40625l1.28125 0l4.640625 5.6875l0 -5.6875l1.546875 0zm3.9544678 1.328125l-2.78125 0l0 -1.328125l7.125 0l0 1.328125l-2.78125 0l0 7.078125l-1.5625 0l0 -7.078125zm10.554016 5.140625l-4.203125 0l-0.828125 1.9375l-1.609375 0l3.78125 -8.40625l1.53125 0l3.796875 8.40625l-1.625 0l-0.84375 -1.9375zm-0.515625 -1.234375l-1.59375 -3.671875l-1.5625 3.671875l3.15625 0zm5.333679 -3.90625l-2.78125 0l0 -1.328125l7.125 0l0 1.328125l-2.78125 0l0 7.078125l-1.5625 0l0 -7.078125zm5.520935 -1.328125l1.5625 0l0 8.40625l-1.5625 0l0 -8.40625zm7.749939 8.53125q-1.28125 0 -2.3125 -0.5625q-1.03125 -0.5625 -1.625 -1.546875q-0.578125 -0.984375 -0.578125 -2.21875q0 -1.21875 0.578125 -2.203125q0.59375 -1.0 1.625 -1.546875q1.03125 -0.5625 2.3125 -0.5625q1.296875 0 2.328125 0.5625q1.03125 0.546875 1.609375 1.53125q0.59375 0.984375 0.59375 2.21875q0 1.234375 -0.59375 2.21875q-0.578125 0.984375 -1.609375 1.546875q-1.03125 0.5625 -2.328125 0.5625zm0 -1.375q0.84375 0 1.515625 -0.375q0.671875 -0.375 1.046875 -1.046875q0.390625 -0.6875 0.390625 -1.53125q0 -0.84375 -0.390625 -1.515625q-0.375 -0.671875 -1.046875 -1.046875q-0.671875 -0.390625 -1.515625 -0.390625q-0.828125 0 -1.5 0.390625q-0.671875 0.375 -1.0625 1.046875q-0.390625 0.671875 -0.390625 1.515625q0 0.84375 0.390625 1.53125q0.390625 0.671875 1.0625 1.046875q0.671875 0.375 1.5 0.375zm13.65094 -7.15625l0 8.40625l-1.28125 0l-4.640625 -5.6875l0 5.6875l-1.546875 0l0 -8.40625l1.28125 0l4.640625 5.6875l0 -5.6875l1.546875 0zm1.3919067 10.734375q0.734375 -1.296875 1.078125 -2.671875q0.34375 -1.390625 0.34375 -2.9375q0 -1.5625 -0.34375 -2.9375q-0.34375 -1.390625 -1.078125 -2.6875l1.421875 0q0.71875 1.0625 1.09375 2.515625q0.375 1.453125 0.375 3.109375q0 1.65625 -0.375 3.09375q-0.375 1.421875 -1.09375 2.515625l-1.421875 0z" fill-rule="nonzero"/><path fill="#000000" fill-opacity="0.0" d="m480.0 120.7874l0 -152.14977l0.06298828 0l0 25.000156" fill-rule="evenodd"/><path stroke="#cccccc" stroke-width="1.0" stroke-linejoin="round" stroke-linecap="butt" d="m480.0 114.7874l0 -146.14977l0.06298828 0l0 25.000156" fill-rule="evenodd"/><path fill="#cccccc" stroke="#cccccc" stroke-width="1.0" stroke-linecap="butt" d="m478.34827 114.7874l1.6517334 4.538101l1.6517334 -4.538101z" fill-rule="evenodd"/><path fill="#000000" fill-opacity="0.0" d="m734.12463 142.28346l0 -167.54547l-13.480347 0l0 -13.651373" fill-rule="evenodd"/><path stroke="#cccccc" stroke-width="1.0" stroke-linejoin="round" stroke-linecap="butt" d="m734.1246 136.28346l0 -161.54547l-13.480286 0l0 -13.651371" fill-rule="evenodd"/><path fill="#cccccc" stroke="#cccccc" stroke-width="1.0" stroke-linecap="butt" d="m732.47284 136.28346l1.6517334 4.538101l1.6517334 -4.538101z" fill-rule="evenodd"/><path fill="#000000" fill-opacity="0.0" d="m480.0315 318.30447l0 -42.443512l0.06298828 0l0 -42.438385" fill-rule="evenodd"/><path stroke="#cccccc" stroke-width="1.0" stroke-linejoin="round" stroke-linecap="butt" d="m480.0315 312.30447l0 -36.443512l0.06298828 0l0 -42.438385" fill-rule="evenodd"/><path fill="#cccccc" stroke="#cccccc" stroke-width="1.0" stroke-linecap="butt" d="m478.37976 312.30447l1.6517334 4.538086l1.6517334 -4.538086z" fill-rule="evenodd"/><path fill="#4a729c" d="m699.3057 177.10236l0 0c0 -19.229935 15.588928 -34.818893 34.81891 -34.818893l0 0c9.234497 0 18.09082 3.6684113 24.620667 10.198227c6.529785 6.5298004 10.198181 15.386124 10.198181 24.620667l0 0c0 19.22995 -15.588928 34.81891 -34.818848 34.81891l0 0c-19.22998 0 -34.81891 -15.588959 -34.81891 -34.81891z" fill-rule="evenodd"/><path fill="#000000" fill-opacity="0.0" d="m696.7559 157.5433l74.74011 0l0 39.11812l-74.74011 0z" fill-rule="evenodd"/><path fill="#ffffff" d="m724.0156 174.62236l-0.015625 -5.5625l-2.75 4.609375l-0.703125 0l-2.765625 -4.546875l0 5.5l-1.484375 0l0 -8.40625l1.28125 0l3.34375 5.578125l3.28125 -5.578125l1.28125 0l0 8.40625l-1.46875 0zm7.663208 0.125q-1.28125 0 -2.3125 -0.5625q-1.03125 -0.5625 -1.625 -1.546875q-0.578125 -0.984375 -0.578125 -2.21875q0 -1.21875 0.578125 -2.203125q0.59375 -1.0 1.625 -1.546875q1.03125 -0.5625 2.3125 -0.5625q1.296875 0 2.328125 0.5625q1.03125 0.546875 1.609375 1.53125q0.59375 0.984375 0.59375 2.21875q0 1.234375 -0.59375 2.21875q-0.578125 0.984375 -1.609375 1.546875q-1.03125 0.5625 -2.328125 0.5625zm0 -1.375q0.84375 0 1.515625 -0.375q0.671875 -0.375 1.046875 -1.046875q0.390625 -0.6875 0.390625 -1.53125q0 -0.84375 -0.390625 -1.515625q-0.375 -0.671875 -1.046875 -1.046875q-0.671875 -0.390625 -1.515625 -0.390625q-0.828125 0 -1.5 0.390625q-0.671875 0.375 -1.0625 1.046875q-0.390625 0.671875 -0.390625 1.515625q0 0.84375 0.390625 1.53125q0.390625 0.671875 1.0625 1.046875q0.671875 0.375 1.5 0.375zm13.605652 -7.15625l-3.671875 8.40625l-1.53125 0l-3.671875 -8.40625l1.6875 0l2.796875 6.484375l2.828125 -6.484375l1.5625 0zm7.177429 7.09375l0 1.3125l-6.296875 0l0 -8.40625l6.140625 0l0 1.3125l-4.578125 0l0 2.1875l4.0625 0l0 1.28125l-4.0625 0l0 2.3125l4.734375 0z" fill-rule="nonzero"/><path fill="#ffffff" d="m712.4119 180.21611q1.09375 0 1.90625 0.359375q0.8125 0.359375 1.234375 1.03125q0.4375 0.671875 0.4375 1.609375q0 0.90625 -0.4375 1.59375q-0.421875 0.671875 -1.234375 1.03125q-0.8125 0.359375 -1.90625 0.359375l-1.890625 0l0 2.421875l-1.5625 0l0 -8.40625l3.453125 0zm-0.0625 4.65625q1.015625 0 1.546875 -0.421875q0.53125 -0.4375 0.53125 -1.234375q0 -0.8125 -0.53125 -1.234375q-0.53125 -0.4375 -1.546875 -0.4375l-1.828125 0l0 3.328125l1.828125 0zm10.701416 3.75l-1.71875 -2.453125q-0.109375 0 -0.328125 0l-1.890625 0l0 2.453125l-1.5625 0l0 -8.40625l3.453125 0q1.09375 0 1.90625 0.359375q0.8125 0.359375 1.234375 1.03125q0.4375 0.671875 0.4375 1.609375q0 0.9375 -0.46875 1.625q-0.453125 0.6875 -1.3125 1.015625l1.921875 2.765625l-1.671875 0zm-0.03125 -5.40625q0 -0.8125 -0.53125 -1.234375q-0.53125 -0.4375 -1.546875 -0.4375l-1.828125 0l0 3.34375l1.828125 0q1.015625 0 1.546875 -0.4375q0.53125 -0.4375 0.53125 -1.234375zm7.2252197 5.53125q-1.28125 0 -2.3125 -0.5625q-1.03125 -0.5625 -1.625 -1.546875q-0.578125 -0.984375 -0.578125 -2.21875q0 -1.21875 0.578125 -2.203125q0.59375 -1.0 1.625 -1.546875q1.03125 -0.5625 2.3125 -0.5625q1.296875 0 2.328125 0.5625q1.03125 0.546875 1.609375 1.53125q0.59375 0.984375 0.59375 2.21875q0 1.234375 -0.59375 2.21875q-0.578125 0.984375 -1.609375 1.546875q-1.03125 0.5625 -2.328125 0.5625zm0 -1.375q0.84375 0 1.515625 -0.375q0.671875 -0.375 1.046875 -1.046875q0.390625 -0.6875 0.390625 -1.53125q0 -0.84375 -0.390625 -1.515625q-0.375 -0.671875 -1.046875 -1.046875q-0.671875 -0.390625 -1.515625 -0.390625q-0.828125 0 -1.5 0.390625q-0.671875 0.375 -1.0625 1.046875q-0.390625 0.671875 -0.390625 1.515625q0 0.84375 0.390625 1.53125q0.390625 0.671875 1.0625 1.046875q0.671875 0.375 1.5 0.375zm13.605652 -7.15625l-3.671875 8.40625l-1.53125 0l-3.671875 -8.40625l1.6875 0l2.796875 6.484375l2.828125 -6.484375l1.5625 0zm7.17749 7.09375l0 1.3125l-6.296875 0l0 -8.40625l6.140625 0l0 1.3125l-4.578125 0l0 2.1875l4.0625 0l0 1.28125l-4.0625 0l0 2.3125l4.734375 0zm7.243164 1.3125l-1.71875 -2.453125q-0.109375 0 -0.328125 0l-1.890625 0l0 2.453125l-1.5625 0l0 -8.40625l3.453125 0q1.09375 0 1.90625 0.359375q0.8125 0.359375 1.234375 1.03125q0.4375 0.671875 0.4375 1.609375q0 0.9375 -0.46875 1.625q-0.453125 0.6875 -1.3125 1.015625l1.921875 2.765625l-1.671875 0zm-0.03125 -5.40625q0 -0.8125 -0.53125 -1.234375q-0.53125 -0.4375 -1.546875 -0.4375l-1.828125 0l0 3.34375l1.828125 0q1.015625 0 1.546875 -0.4375q0.53125 -0.4375 0.53125 -1.234375z" fill-rule="nonzero"/><path fill="#000000" fill-opacity="0.0" d="m699.3057 177.10236l-46.243652 0l0 0.06300354l-46.22882 0" fill-rule="evenodd"/><path stroke="#cccccc" stroke-width="1.0" stroke-linejoin="round" stroke-linecap="butt" d="m693.30566 177.10236l-40.24359 0l0 0.06300354l-46.22882 0" fill-rule="evenodd"/><path fill="#cccccc" stroke="#cccccc" stroke-width="1.0" stroke-linecap="butt" d="m693.30566 178.75409l4.538147 -1.6517334l-4.538147 -1.6517334z" fill-rule="evenodd"/><path fill="#bceeff" d="m622.605 164.11023l58.362183 0l0 25.984253l-58.362183 0z" fill-rule="evenodd"/><path fill="#4a729c" d="m643.9274 175.06236l-0.015625 -4.328125l-2.140625 3.578125l-0.546875 0l-2.140625 -3.515625l0 4.265625l-1.15625 0l0 -6.53125l1.0 0l2.59375 4.328125l2.546875 -4.328125l1.0 0l0 6.53125l-1.140625 0zm5.9552 0.09375q-1.0 0 -1.796875 -0.4375q-0.796875 -0.4375 -1.265625 -1.203125q-0.453125 -0.765625 -0.453125 -1.71875q0 -0.953125 0.453125 -1.71875q0.46875 -0.765625 1.265625 -1.203125q0.796875 -0.4375 1.796875 -0.4375q1.0 0 1.796875 0.4375q0.8125 0.4375 1.265625 1.203125q0.453125 0.765625 0.453125 1.71875q0 0.96875 -0.453125 1.734375q-0.453125 0.75 -1.265625 1.1875q-0.796875 0.4375 -1.796875 0.4375zm0 -1.0625q0.65625 0 1.171875 -0.296875q0.53125 -0.296875 0.828125 -0.8125q0.296875 -0.53125 0.296875 -1.1875q0 -0.65625 -0.296875 -1.171875q-0.296875 -0.53125 -0.828125 -0.828125q-0.515625 -0.296875 -1.171875 -0.296875q-0.640625 0 -1.171875 0.296875q-0.515625 0.296875 -0.828125 0.828125q-0.296875 0.515625 -0.296875 1.171875q0 0.65625 0.296875 1.1875q0.3125 0.515625 0.828125 0.8125q0.53125 0.296875 1.171875 0.296875zm10.570862 -5.5625l-2.84375 6.53125l-1.1875 0l-2.859375 -6.53125l1.3125 0l2.171875 5.03125l2.203125 -5.03125l1.203125 0zm5.5976562 5.515625l0 1.015625l-4.90625 0l0 -6.53125l4.765625 0l0 1.015625l-3.546875 0l0 1.703125l3.15625 0l0 1.0l-3.15625 0l0 1.796875l3.6875 0z" fill-rule="nonzero"/><path fill="#4a729c" d="m630.6264 182.67174q0.546875 0.171875 0.859375 0.59375q0.3125 0.40625 0.3125 1.03125q0 0.84375 -0.65625 1.3125q-0.640625 0.453125 -1.890625 0.453125l-3.25 0l0 -6.53125l3.0625 0q1.15625 0 1.78125 0.453125q0.625 0.453125 0.625 1.25q0 0.484375 -0.234375 0.859375q-0.21875 0.375 -0.609375 0.578125zm-3.40625 -2.1875l0 1.796875l1.71875 0q0.625 0 0.96875 -0.21875q0.34375 -0.234375 0.34375 -0.671875q0 -0.453125 -0.34375 -0.671875q-0.34375 -0.234375 -0.96875 -0.234375l-1.71875 0zm1.953125 4.625q1.40625 0 1.40625 -0.9375q0 -0.9375 -1.40625 -0.9375l-1.953125 0l0 1.875l1.953125 0zm6.599365 -1.34375l0 2.296875l-1.203125 0l0 -2.28125l-2.5625 -4.25l1.296875 0l1.90625 3.1875l1.9375 -3.1875l1.1875 0l-2.5625 4.234375zm4.588135 -3.203125l-2.171875 0l0 -1.03125l5.546875 0l0 1.03125l-2.15625 0l0 5.5l-1.21875 0l0 -5.5zm9.193665 4.484375l0 1.015625l-4.90625 0l0 -6.53125l4.765625 0l0 1.015625l-3.546875 0l0 1.703125l3.15625 0l0 1.0l-3.15625 0l0 1.796875l3.6875 0zm4.346863 1.109375q-1.0 0 -1.796875 -0.4375q-0.796875 -0.4375 -1.25 -1.1875q-0.453125 -0.765625 -0.453125 -1.734375q0 -0.953125 0.453125 -1.71875q0.46875 -0.765625 1.265625 -1.203125q0.796875 -0.4375 1.78125 -0.4375q0.796875 0 1.453125 0.28125q0.671875 0.28125 1.140625 0.8125l-0.796875 0.734375q-0.703125 -0.765625 -1.734375 -0.765625q-0.671875 0 -1.203125 0.296875q-0.53125 0.296875 -0.84375 0.828125q-0.296875 0.515625 -0.296875 1.171875q0 0.65625 0.296875 1.1875q0.3125 0.515625 0.84375 0.8125q0.53125 0.296875 1.203125 0.296875q1.03125 0 1.734375 -0.78125l0.796875 0.75q-0.46875 0.53125 -1.140625 0.8125q-0.65625 0.28125 -1.453125 0.28125zm6.6571655 0q-1.0 0 -1.796875 -0.4375q-0.796875 -0.4375 -1.265625 -1.203125q-0.453125 -0.765625 -0.453125 -1.71875q0 -0.953125 0.453125 -1.71875q0.46875 -0.765625 1.265625 -1.203125q0.796875 -0.4375 1.796875 -0.4375q1.0 0 1.796875 0.4375q0.8125 0.4375 1.265625 1.203125q0.453125 0.765625 0.453125 1.71875q0 0.96875 -0.453125 1.734375q-0.453125 0.75 -1.265625 1.1875q-0.796875 0.4375 -1.796875 0.4375zm0 -1.0625q0.65625 0 1.171875 -0.296875q0.53125 -0.296875 0.828125 -0.8125q0.296875 -0.53125 0.296875 -1.1875q0 -0.65625 -0.296875 -1.171875q-0.296875 -0.53125 -0.828125 -0.828125q-0.515625 -0.296875 -1.171875 -0.296875q-0.640625 0 -1.171875 0.296875q-0.515625 0.296875 -0.828125 0.828125q-0.296875 0.515625 -0.296875 1.171875q0 0.65625 0.296875 1.1875q0.3125 0.515625 0.828125 0.8125q0.53125 0.296875 1.171875 0.296875zm4.807434 -5.5625l2.859375 0q1.046875 0 1.859375 0.40625q0.8125 0.40625 1.25 1.15625q0.453125 0.734375 0.453125 1.703125q0 0.96875 -0.453125 1.71875q-0.4375 0.734375 -1.25 1.140625q-0.8125 0.40625 -1.859375 0.40625l-2.859375 0l0 -6.53125zm2.796875 5.5q0.71875 0 1.265625 -0.265625q0.546875 -0.28125 0.84375 -0.78125q0.296875 -0.515625 0.296875 -1.1875q0 -0.671875 -0.296875 -1.171875q-0.296875 -0.515625 -0.84375 -0.78125q-0.546875 -0.28125 -1.265625 -0.28125l-1.578125 0l0 4.46875l1.578125 0zm9.814392 0.015625l0 1.015625l-4.90625 0l0 -6.53125l4.765625 0l0 1.015625l-3.546875 0l0 1.703125l3.15625 0l0 1.0l-3.15625 0l0 1.796875l3.6875 0z" fill-rule="nonzero"/><path fill="#bceeff" d="m450.8491 262.86877l58.362183 0l0 25.984253l-58.362183 0z" fill-rule="evenodd"/><path fill="#4a729c" d="m472.1715 273.8209l-0.015625 -4.328125l-2.140625 3.578125l-0.546875 0l-2.140625 -3.515625l0 4.265625l-1.15625 0l0 -6.53125l1.0 0l2.59375 4.328125l2.546875 -4.328125l1.0 0l0 6.53125l-1.140625 0zm5.9552307 0.09375q-1.0 0 -1.796875 -0.4375q-0.796875 -0.4375 -1.265625 -1.203125q-0.453125 -0.765625 -0.453125 -1.71875q0 -0.953125 0.453125 -1.71875q0.46875 -0.765625 1.265625 -1.203125q0.796875 -0.4375 1.796875 -0.4375q1.0 0 1.796875 0.4375q0.8125 0.4375 1.265625 1.203125q0.453125 0.765625 0.453125 1.71875q0 0.96875 -0.453125 1.734375q-0.453125 0.75 -1.265625 1.1875q-0.796875 0.4375 -1.796875 0.4375zm0 -1.0625q0.65625 0 1.171875 -0.296875q0.53125 -0.296875 0.828125 -0.8125q0.296875 -0.53125 0.296875 -1.1875q0 -0.65625 -0.296875 -1.171875q-0.296875 -0.53125 -0.828125 -0.828125q-0.515625 -0.296875 -1.171875 -0.296875q-0.640625 0 -1.171875 0.296875q-0.515625 0.296875 -0.828125 0.828125q-0.296875 0.515625 -0.296875 1.171875q0 0.65625 0.296875 1.1875q0.3125 0.515625 0.828125 0.8125q0.53125 0.296875 1.171875 0.296875zm10.570831 -5.5625l-2.84375 6.53125l-1.1875 0l-2.859375 -6.53125l1.3125 0l2.171875 5.03125l2.203125 -5.03125l1.203125 0zm5.597687 5.515625l0 1.015625l-4.90625 0l0 -6.53125l4.765625 0l0 1.015625l-3.546875 0l0 1.703125l3.15625 0l0 1.0l-3.15625 0l0 1.796875l3.6875 0z" fill-rule="nonzero"/><path fill="#4a729c" d="m458.8705 281.43027q0.546875 0.171875 0.859375 0.59375q0.3125 0.40625 0.3125 1.03125q0 0.84375 -0.65625 1.3125q-0.640625 0.453125 -1.890625 0.453125l-3.25 0l0 -6.53125l3.0625 0q1.15625 0 1.78125 0.453125q0.625 0.453125 0.625 1.25q0 0.484375 -0.234375 0.859375q-0.21875 0.375 -0.609375 0.578125zm-3.40625 -2.1875l0 1.796875l1.71875 0q0.625 0 0.96875 -0.21875q0.34375 -0.234375 0.34375 -0.671875q0 -0.453125 -0.34375 -0.671875q-0.34375 -0.234375 -0.96875 -0.234375l-1.71875 0zm1.953125 4.625q1.40625 0 1.40625 -0.9375q0 -0.9375 -1.40625 -0.9375l-1.953125 0l0 1.875l1.953125 0zm6.5993347 -1.34375l0 2.296875l-1.203125 0l0 -2.28125l-2.5625 -4.25l1.296875 0l1.90625 3.1875l1.9375 -3.1875l1.1875 0l-2.5625 4.234375zm4.5881653 -3.203125l-2.171875 0l0 -1.03125l5.546875 0l0 1.03125l-2.15625 0l0 5.5l-1.21875 0l0 -5.5zm9.193665 4.484375l0 1.015625l-4.90625 0l0 -6.53125l4.765625 0l0 1.015625l-3.546875 0l0 1.703125l3.15625 0l0 1.0l-3.15625 0l0 1.796875l3.6875 0zm4.346863 1.109375q-1.0 0 -1.796875 -0.4375q-0.796875 -0.4375 -1.25 -1.1875q-0.453125 -0.765625 -0.453125 -1.734375q0 -0.953125 0.453125 -1.71875q0.46875 -0.765625 1.265625 -1.203125q0.796875 -0.4375 1.78125 -0.4375q0.796875 0 1.453125 0.28125q0.671875 0.28125 1.140625 0.8125l-0.796875 0.734375q-0.703125 -0.765625 -1.734375 -0.765625q-0.671875 0 -1.203125 0.296875q-0.53125 0.296875 -0.84375 0.828125q-0.296875 0.515625 -0.296875 1.171875q0 0.65625 0.296875 1.1875q0.3125 0.515625 0.84375 0.8125q0.53125 0.296875 1.203125 0.296875q1.03125 0 1.734375 -0.78125l0.796875 0.75q-0.46875 0.53125 -1.140625 0.8125q-0.65625 0.28125 -1.453125 0.28125zm6.6571655 0q-1.0 0 -1.796875 -0.4375q-0.796875 -0.4375 -1.265625 -1.203125q-0.453125 -0.765625 -0.453125 -1.71875q0 -0.953125 0.453125 -1.71875q0.46875 -0.765625 1.265625 -1.203125q0.796875 -0.4375 1.796875 -0.4375q1.0 0 1.796875 0.4375q0.8125 0.4375 1.265625 1.203125q0.453125 0.765625 0.453125 1.71875q0 0.96875 -0.453125 1.734375q-0.453125 0.75 -1.265625 1.1875q-0.796875 0.4375 -1.796875 0.4375zm0 -1.0625q0.65625 0 1.171875 -0.296875q0.53125 -0.296875 0.828125 -0.8125q0.296875 -0.53125 0.296875 -1.1875q0 -0.65625 -0.296875 -1.171875q-0.296875 -0.53125 -0.828125 -0.828125q-0.515625 -0.296875 -1.171875 -0.296875q-0.640625 0 -1.171875 0.296875q-0.515625 0.296875 -0.828125 0.828125q-0.296875 0.515625 -0.296875 1.171875q0 0.65625 0.296875 1.1875q0.3125 0.515625 0.828125 0.8125q0.53125 0.296875 1.171875 0.296875zm4.8074036 -5.5625l2.859375 0q1.046875 0 1.859375 0.40625q0.8125 0.40625 1.25 1.15625q0.453125 0.734375 0.453125 1.703125q0 0.96875 -0.453125 1.71875q-0.4375 0.734375 -1.25 1.140625q-0.8125 0.40625 -1.859375 0.40625l-2.859375 0l0 -6.53125zm2.796875 5.5q0.71875 0 1.265625 -0.265625q0.546875 -0.28125 0.84375 -0.78125q0.296875 -0.515625 0.296875 -1.1875q0 -0.671875 -0.296875 -1.171875q-0.296875 -0.515625 -0.84375 -0.78125q-0.546875 -0.28125 -1.265625 -0.28125l-1.578125 0l0 4.46875l1.578125 0zm9.814423 0.015625l0 1.015625l-4.90625 0l0 -6.53125l4.765625 0l0 1.015625l-3.546875 0l0 1.703125l3.15625 0l0 1.0l-3.15625 0l0 1.796875l3.6875 0z" fill-rule="nonzero"/><path fill="#92b4d8" d="m412.86615 385.46982l67.165344 -67.165344l67.165344 67.165344l-67.165344 67.165344z" fill-rule="evenodd"/><path fill="#000000" fill-opacity="0.0" d="m412.86615 372.4777l134.33069 0l0 25.984253l-134.33069 0z" fill-rule="evenodd"/><path fill="#4a729c" d="m435.96954 390.1148q-0.96875 0 -1.875 -0.28125q-0.90625 -0.28125 -1.4375 -0.734375l0.53125 -1.203125q0.515625 0.40625 1.265625 0.671875q0.75 0.25 1.515625 0.25q0.9375 0 1.390625 -0.296875q0.46875 -0.3125 0.46875 -0.796875q0 -0.359375 -0.265625 -0.59375q-0.25 -0.234375 -0.65625 -0.359375q-0.390625 -0.140625 -1.078125 -0.3125q-0.953125 -0.21875 -1.546875 -0.453125q-0.59375 -0.234375 -1.03125 -0.71875q-0.421875 -0.484375 -0.421875 -1.3125q0 -0.6875 0.375 -1.25q0.390625 -0.578125 1.140625 -0.90625q0.765625 -0.34375 1.875 -0.34375q0.765625 0 1.5 0.1875q0.75 0.1875 1.296875 0.546875l-0.5 1.21875q-0.546875 -0.328125 -1.15625 -0.484375q-0.59375 -0.171875 -1.15625 -0.171875q-0.921875 0 -1.375 0.3125q-0.453125 0.3125 -0.453125 0.828125q0 0.359375 0.25 0.59375q0.265625 0.21875 0.65625 0.359375q0.40625 0.125 1.09375 0.28125q0.9375 0.21875 1.53125 0.453125q0.609375 0.234375 1.03125 0.71875q0.421875 0.484375 0.421875 1.296875q0 0.6875 -0.375 1.265625q-0.375 0.5625 -1.140625 0.90625q-0.765625 0.328125 -1.875 0.328125zm11.235535 -1.4375l0 1.3125l-6.296875 0l0 -8.40625l6.140625 0l0 1.3125l-4.578125 0l0 2.1875l4.0625 0l0 1.28125l-4.0625 0l0 2.3125l4.734375 0zm7.2431946 1.3125l-1.71875 -2.453125q-0.109375 0 -0.328125 0l-1.890625 0l0 2.453125l-1.5625 0l0 -8.40625l3.453125 0q1.09375 0 1.90625 0.359375q0.8125 0.359375 1.234375 1.03125q0.4375 0.671875 0.4375 1.609375q0 0.9375 -0.46875 1.625q-0.453125 0.6875 -1.3125 1.015625l1.921875 2.765625l-1.671875 0zm-0.03125 -5.40625q0 -0.8125 -0.53125 -1.234375q-0.53125 -0.4375 -1.546875 -0.4375l-1.828125 0l0 3.34375l1.828125 0q1.015625 0 1.546875 -0.4375q0.53125 -0.4375 0.53125 -1.234375zm3.3033142 -3.0l1.5625 0l0 8.40625l-1.5625 0l0 -8.40625zm9.281158 6.46875l-4.203125 0l-0.828125 1.9375l-1.609375 0l3.78125 -8.40625l1.53125 0l3.796875 8.40625l-1.625 0l-0.84375 -1.9375zm-0.515625 -1.234375l-1.59375 -3.671875l-1.5625 3.671875l3.15625 0zm4.0505676 -5.234375l1.5625 0l0 7.09375l4.390625 0l0 1.3125l-5.953125 0l0 -8.40625zm7.1880493 0l1.5625 0l0 8.40625l-1.5625 0l0 -8.40625zm10.359283 7.09375l0 1.3125l-7.171875 0l0 -1.046875l4.953125 -6.03125l-4.859375 0l0 -1.328125l6.921875 0l0 1.046875l-4.9375 6.046875l5.09375 0zm6.8779297 -0.625l-4.203125 0l-0.828125 1.9375l-1.609375 0l3.78125 -8.40625l1.53125 0l3.796875 8.40625l-1.625 0l-0.84375 -1.9375zm-0.515625 -1.234375l-1.59375 -3.671875l-1.5625 3.671875l3.15625 0zm5.333679 -3.90625l-2.78125 0l0 -1.328125l7.125 0l0 1.328125l-2.78125 0l0 7.078125l-1.5625 0l0 -7.078125zm5.520935 -1.328125l1.5625 0l0 8.40625l-1.5625 0l0 -8.40625zm7.7499084 8.53125q-1.28125 0 -2.3125 -0.5625q-1.03125 -0.5625 -1.625 -1.546875q-0.578125 -0.984375 -0.578125 -2.21875q0 -1.21875 0.578125 -2.203125q0.59375 -1.0 1.625 -1.546875q1.03125 -0.5625 2.3125 -0.5625q1.296875 0 2.328125 0.5625q1.03125 0.546875 1.609375 1.53125q0.59375 0.984375 0.59375 2.21875q0 1.234375 -0.59375 2.21875q-0.578125 0.984375 -1.609375 1.546875q-1.03125 0.5625 -2.328125 0.5625zm0 -1.375q0.84375 0 1.515625 -0.375q0.671875 -0.375 1.046875 -1.046875q0.390625 -0.6875 0.390625 -1.53125q0 -0.84375 -0.390625 -1.515625q-0.375 -0.671875 -1.046875 -1.046875q-0.671875 -0.390625 -1.515625 -0.390625q-0.828125 0 -1.5 0.390625q-0.671875 0.375 -1.0625 1.046875q-0.390625 0.671875 -0.390625 1.515625q0 0.84375 0.390625 1.53125q0.390625 0.671875 1.0625 1.046875q0.671875 0.375 1.5 0.375zm13.65094 -7.15625l0 8.40625l-1.28125 0l-4.640625 -5.6875l0 5.6875l-1.546875 0l0 -8.40625l1.28125 0l4.640625 5.6875l0 -5.6875l1.546875 0z" fill-rule="nonzero"/><path fill="#000000" fill-opacity="0.0" d="m480.0 546.3622l0 25.000305l0.06298828 0l0 -118.732574" fill-rule="evenodd"/><path stroke="#999999" stroke-width="1.0" stroke-linejoin="round" stroke-linecap="butt" stroke-dasharray="1.0,3.0" d="m480.0 552.3622l0 19.000305l0.06298828 0l0 -118.732574" fill-rule="evenodd"/><path fill="#999999" stroke="#999999" stroke-width="1.0" stroke-linecap="butt" d="m481.65173 552.3622l-1.6517334 -4.538086l-1.6517334 4.538086z" fill-rule="evenodd"/></g></svg>