<svg version="1.1" viewBox="0.0 0.0 960.0 540.0" fill="none" stroke="none" stroke-linecap="square" stroke-miterlimit="10" xmlns:xlink="http://www.w3.org/1999/xlink" xmlns="http://www.w3.org/2000/svg"><clipPath id="g8a65174a65_2_5.0"><path d="m0 0l960.0 0l0 540.0l-960.0 0l0 -540.0z" clip-rule="nonzero"/></clipPath><g clip-path="url(#g8a65174a65_2_5.0)"><path fill="#f3f4fb" d="m0 0l960.0 0l0 540.0l-960.0 0z" fill-rule="evenodd"/><path fill="#000000" fill-opacity="0.0" d="m256.34122 45.0l447.3071 0l0 61.85827l-447.3071 0z" fill-rule="evenodd"/><path fill="#42318c" d="m324.18375 84.46913l-0.015625 -14.375l-7.03125 12.140625l-0.609375 0l-7.03125 -12.09375l0 14.328125l-1.203125 0l0 -16.796875l1.03125 0l7.515625 12.984375l7.515625 -12.984375l1.0 0l0.03125 16.796875l-1.203125 0zm11.568939 0.09375q-1.78125 0 -3.203125 -0.8125q-1.421875 -0.8125 -2.25 -2.265625q-0.8125 -1.453125 -0.8125 -3.28125q0 -1.828125 0.8125 -3.265625q0.828125 -1.453125 2.25 -2.265625q1.421875 -0.828125 3.203125 -0.828125q1.78125 0 3.203125 0.828125q1.4375 0.8125 2.25 2.265625q0.8125 1.4375 0.8125 3.265625q0 1.828125 -0.8125 3.28125q-0.8125 1.453125 -2.25 2.265625q-1.421875 0.8125 -3.203125 0.8125zm0 -1.078125q1.4375 0 2.578125 -0.671875q1.140625 -0.671875 1.796875 -1.875q0.671875 -1.203125 0.671875 -2.734375q0 -1.53125 -0.671875 -2.734375q-0.65625 -1.203125 -1.796875 -1.875q-1.140625 -0.671875 -2.578125 -0.671875q-1.4375 0 -2.578125 0.671875q-1.140625 0.671875 -1.796875 1.875q-0.65625 1.203125 -0.65625 2.734375q0 1.53125 0.65625 2.734375q0.65625 1.203125 1.796875 1.875q1.140625 0.671875 2.578125 0.671875zm19.676208 -11.546875l-5.65625 12.53125l-1.21875 0l-5.640625 -12.53125l1.265625 0l5.0 11.21875l5.03125 -11.21875l1.21875 0zm12.843231 6.5625l-10.765625 0q0.046875 1.453125 0.734375 2.59375q0.703125 1.140625 1.890625 1.765625q1.1875 0.625 2.671875 0.625q1.21875 0 2.265625 -0.4375q1.046875 -0.453125 1.734375 -1.3125l0.703125 0.796875q-0.8125 0.984375 -2.046875 1.515625q-1.234375 0.515625 -2.6875 0.515625q-1.859375 0 -3.328125 -0.8125q-1.46875 -0.8125 -2.296875 -2.25q-0.828125 -1.453125 -0.828125 -3.296875q0 -1.828125 0.78125 -3.265625q0.78125 -1.453125 2.140625 -2.265625q1.375 -0.828125 3.078125 -0.828125q1.703125 0 3.0625 0.8125q1.359375 0.796875 2.140625 2.234375q0.78125 1.4375 0.78125 3.265625l-0.03125 0.34375zm-5.953125 -5.59375q-1.3125 0 -2.375 0.59375q-1.046875 0.578125 -1.6875 1.65625q-0.640625 1.0625 -0.734375 2.40625l9.59375 0q-0.0625 -1.34375 -0.71875 -2.40625q-0.640625 -1.0625 -1.703125 -1.65625q-1.046875 -0.59375 -2.375 -0.59375zm29.933441 -5.234375l0 16.796875l-1.21875 0l0 -7.984375l-11.234375 0l0 7.984375l-1.234375 0l0 -16.796875l1.234375 0l0 7.71875l11.234375 0l0 -7.71875l1.21875 0zm5.4734497 4.265625l1.203125 0l0 12.53125l-1.203125 0l0 -12.53125zm0.59375 -3.046875q-0.40625 0 -0.703125 -0.265625q-0.28125 -0.28125 -0.28125 -0.6875q0 -0.40625 0.28125 -0.6875q0.296875 -0.296875 0.703125 -0.296875q0.40625 0 0.6875 0.28125q0.296875 0.265625 0.296875 0.671875q0 0.40625 -0.296875 0.703125q-0.28125 0.28125 -0.6875 0.28125zm16.951477 3.046875l0 11.1875q0 3.125 -1.515625 4.609375q-1.515625 1.484375 -4.5625 1.484375q-1.71875 0 -3.265625 -0.53125q-1.53125 -0.515625 -2.46875 -1.453125l0.640625 -0.921875q0.9375 0.875 2.25 1.34375q1.328125 0.484375 2.828125 0.484375q2.484375 0 3.6875 -1.1875q1.203125 -1.1875 1.203125 -3.6875l0 -2.109375q-0.765625 1.375 -2.140625 2.125q-1.359375 0.734375 -3.0625 0.734375q-1.765625 0 -3.1875 -0.78125q-1.421875 -0.78125 -2.25 -2.171875q-0.8125 -1.390625 -0.8125 -3.140625q0 -1.75 0.8125 -3.140625q0.828125 -1.40625 2.25 -2.171875q1.421875 -0.765625 3.1875 -0.765625q1.71875 0 3.109375 0.765625q1.390625 0.765625 2.140625 2.15625l0 -2.828125l1.15625 0zm-6.3125 11.0q1.453125 0 2.625 -0.640625q1.1875 -0.640625 1.84375 -1.78125q0.65625 -1.140625 0.65625 -2.59375q0 -1.46875 -0.65625 -2.59375q-0.65625 -1.125 -1.84375 -1.765625q-1.171875 -0.640625 -2.625 -0.640625q-1.46875 0 -2.640625 0.640625q-1.15625 0.640625 -1.8125 1.765625q-0.65625 1.125 -0.65625 2.59375q0 1.453125 0.65625 2.59375q0.65625 1.140625 1.8125 1.78125q1.171875 0.640625 2.640625 0.640625zm17.508575 -11.09375q2.359375 0 3.71875 1.375q1.375 1.359375 1.375 3.9375l0 7.3125l-1.203125 0l0 -7.21875q0 -2.125 -1.0625 -3.21875q-1.0625 -1.109375 -2.984375 -1.109375q-2.21875 0 -3.484375 1.328125q-1.265625 1.3125 -1.265625 3.546875l0 6.671875l-1.203125 0l0 -17.8125l1.203125 0l0 7.90625q0.640625 -1.296875 1.90625 -2.0q1.28125 -0.71875 3.0 -0.71875zm16.58554 -4.171875l1.234375 0l0 15.6875l9.671875 0l0 1.109375l-10.90625 0l0 -16.796875zm24.0271 10.828125l-10.765625 0q0.046875 1.453125 0.734375 2.59375q0.703125 1.140625 1.890625 1.765625q1.1875 0.625 2.671875 0.625q1.21875 0 2.265625 -0.4375q1.046875 -0.453125 1.734375 -1.3125l0.703125 0.796875q-0.8125 0.984375 -2.046875 1.515625q-1.234375 0.515625 -2.6875 0.515625q-1.859375 0 -3.328125 -0.8125q-1.46875 -0.8125 -2.296875 -2.25q-0.828125 -1.453125 -0.828125 -3.296875q0 -1.828125 0.78125 -3.265625q0.78125 -1.453125 2.140625 -2.265625q1.375 -0.828125 3.078125 -0.828125q1.703125 0 3.0625 0.8125q1.359375 0.796875 2.140625 2.234375q0.78125 1.4375 0.78125 3.265625l-0.03125 0.34375zm-5.953125 -5.59375q-1.3125 0 -2.375 0.59375q-1.046875 0.578125 -1.6875 1.65625q-0.640625 1.0625 -0.734375 2.40625l9.59375 0q-0.0625 -1.34375 -0.71875 -2.40625q-0.640625 -1.0625 -1.703125 -1.65625q-1.046875 -0.59375 -2.375 -0.59375zm19.509827 -0.96875l-5.65625 12.53125l-1.21875 0l-5.640625 -12.53125l1.265625 0l5.0 11.21875l5.03125 -11.21875l1.21875 0zm12.843201 6.5625l-10.765625 0q0.046875 1.453125 0.734375 2.59375q0.703125 1.140625 1.890625 1.765625q1.1875 0.625 2.671875 0.625q1.21875 0 2.265625 -0.4375q1.046875 -0.453125 1.734375 -1.3125l0.703125 0.796875q-0.8125 0.984375 -2.046875 1.515625q-1.234375 0.515625 -2.6875 0.515625q-1.859375 0 -3.328125 -0.8125q-1.46875 -0.8125 -2.296875 -2.25q-0.828125 -1.453125 -0.828125 -3.296875q0 -1.828125 0.78125 -3.265625q0.78125 -1.453125 2.140625 -2.265625q1.375 -0.828125 3.078125 -0.828125q1.703125 0 3.0625 0.8125q1.359375 0.796875 2.140625 2.234375q0.78125 1.4375 0.78125 3.265625l-0.03125 0.34375zm-5.953125 -5.59375q-1.3125 0 -2.375 0.59375q-1.046875 0.578125 -1.6875 1.65625q-0.640625 1.0625 -0.734375 2.40625l9.59375 0q-0.0625 -1.34375 -0.71875 -2.40625q-0.640625 -1.0625 -1.703125 -1.65625q-1.046875 -0.59375 -2.375 -0.59375zm9.702972 -6.25l1.203125 0l0 17.8125l-1.203125 0l0 -17.8125zm23.19754 13.078125l-9.7343445 0l-2.140625 4.734375l-1.3125 0l7.7187195 -16.796875l1.234375 0l7.71875 16.796875l-1.3125 0l-2.171875 -4.734375zm-0.453125 -1.03125l-4.40625 -9.6875l-4.3905945 9.6875l8.7968445 0zm7.763733 -4.03125q0.5625 -1.359375 1.78125 -2.09375q1.234375 -0.734375 2.984375 -0.734375l0 1.171875l-0.28125 -0.015625q-2.09375 0 -3.265625 1.3125q-1.171875 1.296875 -1.171875 3.625l0 6.53125l-1.203125 0l0 -12.53125l1.15625 0l0 2.734375zm12.932495 9.890625q-1.828125 0 -3.265625 -0.8125q-1.4375 -0.8125 -2.265625 -2.265625q-0.8125 -1.453125 -0.8125 -3.28125q0 -1.84375 0.8125 -3.296875q0.828125 -1.453125 2.265625 -2.25q1.4375 -0.8125 3.265625 -0.8125q1.515625 0 2.75 0.59375q1.234375 0.578125 2.0 1.71875l-0.890625 0.640625q-0.671875 -0.9375 -1.671875 -1.40625q-0.984375 -0.46875 -2.1875 -0.46875q-1.46875 0 -2.640625 0.671875q-1.15625 0.65625 -1.8125 1.859375q-0.65625 1.1875 -0.65625 2.75q0 1.5625 0.65625 2.765625q0.65625 1.203125 1.8125 1.859375q1.171875 0.65625 2.640625 0.65625q1.203125 0 2.1875 -0.46875q1.0 -0.46875 1.671875 -1.40625l0.890625 0.65625q-0.765625 1.125 -2.0 1.71875q-1.234375 0.578125 -2.75 0.578125zm14.244568 -12.71875q2.359375 0 3.71875 1.375q1.375 1.359375 1.375 3.9375l0 7.3125l-1.203125 0l0 -7.21875q0 -2.125 -1.0625 -3.21875q-1.0625 -1.109375 -2.984375 -1.109375q-2.21875 0 -3.484375 1.328125q-1.265625 1.3125 -1.265625 3.546875l0 6.671875l-1.203125 0l0 -17.8125l1.203125 0l0 7.90625q0.640625 -1.296875 1.90625 -2.0q1.28125 -0.71875 3.0 -0.71875zm10.0425415 0.09375l1.203125 0l0 12.53125l-1.203125 0l0 -12.53125zm0.59375 -3.046875q-0.40625 0 -0.703125 -0.265625q-0.28125 -0.28125 -0.28125 -0.6875q0 -0.40625 0.28125 -0.6875q0.296875 -0.296875 0.703125 -0.296875q0.40625 0 0.6875 0.28125q0.296875 0.265625 0.296875 0.671875q0 0.40625 -0.296875 0.703125q-0.28125 0.28125 -0.6875 0.28125zm11.888977 14.78125q-0.46875 0.4375 -1.15625 0.671875q-0.671875 0.21875 -1.421875 0.21875q-1.625 0 -2.515625 -0.890625q-0.890625 -0.90625 -0.890625 -2.515625l0 -8.1875l-2.296875 0l0 -1.03125l2.296875 0l0 -2.734375l1.203125 0l0 2.734375l3.984375 0l0 1.03125l-3.984375 0l0 8.0625q0 1.234375 0.578125 1.875q0.59375 0.625 1.75 0.625q1.171875 0 1.9375 -0.6875l0.515625 0.828125zm13.455383 -5.171875l-10.765625 0q0.046875 1.453125 0.734375 2.59375q0.703125 1.140625 1.890625 1.765625q1.1875 0.625 2.671875 0.625q1.21875 0 2.265625 -0.4375q1.046875 -0.453125 1.734375 -1.3125l0.703125 0.796875q-0.8125 0.984375 -2.046875 1.515625q-1.234375 0.515625 -2.6875 0.515625q-1.859375 0 -3.328125 -0.8125q-1.46875 -0.8125 -2.296875 -2.25q-0.828125 -1.453125 -0.828125 -3.296875q0 -1.828125 0.78125 -3.265625q0.78125 -1.453125 2.140625 -2.265625q1.375 -0.828125 3.078125 -0.828125q1.703125 0 3.0625 0.8125q1.359375 0.796875 2.140625 2.234375q0.78125 1.4375 0.78125 3.265625l-0.03125 0.34375zm-5.953125 -5.59375q-1.3125 0 -2.375 0.59375q-1.046875 0.578125 -1.6875 1.65625q-0.640625 1.0625 -0.734375 2.40625l9.59375 0q-0.0625 -1.34375 -0.71875 -2.40625q-0.640625 -1.0625 -1.703125 -1.65625q-1.046875 -0.59375 -2.375 -0.59375zm14.671692 11.65625q-1.828125 0 -3.265625 -0.8125q-1.4375 -0.8125 -2.265625 -2.265625q-0.8125 -1.453125 -0.8125 -3.28125q0 -1.84375 0.8125 -3.296875q0.828125 -1.453125 2.265625 -2.25q1.4375 -0.8125 3.265625 -0.8125q1.515625 0 2.75 0.59375q1.234375 0.578125 2.0 1.71875l-0.890625 0.640625q-0.671875 -0.9375 -1.671875 -1.40625q-0.984375 -0.46875 -2.1875 -0.46875q-1.46875 0 -2.640625 0.671875q-1.15625 0.65625 -1.8125 1.859375q-0.65625 1.1875 -0.65625 2.75q0 1.5625 0.65625 2.765625q0.65625 1.203125 1.8125 1.859375q1.171875 0.65625 2.640625 0.65625q1.203125 0 2.1875 -0.46875q1.0 -0.46875 1.671875 -1.40625l0.890625 0.65625q-0.765625 1.125 -2.0 1.71875q-1.234375 0.578125 -2.75 0.578125zm14.713989 -0.890625q-0.46875 0.4375 -1.15625 0.671875q-0.671875 0.21875 -1.421875 0.21875q-1.625 0 -2.515625 -0.890625q-0.890625 -0.90625 -0.890625 -2.515625l0 -8.1875l-2.296875 0l0 -1.03125l2.296875 0l0 -2.734375l1.203125 0l0 2.734375l3.984375 0l0 1.03125l-3.984375 0l0 8.0625q0 1.234375 0.578125 1.875q0.59375 0.625 1.75 0.625q1.171875 0 1.9375 -0.6875l0.515625 0.828125zm14.301941 -11.734375l0 12.53125l-1.15625 0l0 -2.6875q-0.625 1.3125 -1.859375 2.046875q-1.21875 0.734375 -2.875 0.734375q-2.4375 0 -3.828125 -1.359375q-1.390625 -1.375 -1.390625 -3.9375l0 -7.328125l1.1875 0l0 7.234375q0 2.109375 1.078125 3.21875q1.09375 1.09375 3.0625 1.09375q2.109375 0 3.34375 -1.3125q1.234375 -1.328125 1.234375 -3.5625l0 -6.671875l1.203125 0zm6.243469 2.734375q0.5625 -1.359375 1.78125 -2.09375q1.234375 -0.734375 2.984375 -0.734375l0 1.171875l-0.28125 -0.015625q-2.09375 0 -3.265625 1.3125q-1.171875 1.296875 -1.171875 3.625l0 6.53125l-1.203125 0l0 -12.53125l1.15625 0l0 2.734375zm18.54187 3.828125l-10.765625 0q0.046875 1.453125 0.734375 2.59375q0.703125 1.140625 1.890625 1.765625q1.1875 0.625 2.671875 0.625q1.21875 0 2.265625 -0.4375q1.046875 -0.453125 1.734375 -1.3125l0.703125 0.796875q-0.8125 0.984375 -2.046875 1.515625q-1.234375 0.515625 -2.6875 0.515625q-1.859375 0 -3.328125 -0.8125q-1.46875 -0.8125 -2.296875 -2.25q-0.828125 -1.453125 -0.828125 -3.296875q0 -1.828125 0.78125 -3.265625q0.78125 -1.453125 2.140625 -2.265625q1.375 -0.828125 3.078125 -0.828125q1.703125 0 3.0625 0.8125q1.359375 0.796875 2.140625 2.234375q0.78125 1.4375 0.78125 3.265625l-0.03125 0.34375zm-5.953125 -5.59375q-1.3125 0 -2.375 0.59375q-1.046875 0.578125 -1.6875 1.65625q-0.640625 1.0625 -0.734375 2.40625l9.59375 0q-0.0625 -1.34375 -0.71875 -2.40625q-0.640625 -1.0625 -1.703125 -1.65625q-1.046875 -0.59375 -2.375 -0.59375z" fill-rule="nonzero"/><path fill="#bceeff" d="m157.43307 199.63033l0 0c0 -17.700882 14.349396 -32.050278 32.050262 -32.050278l581.0333 0c8.500244 0 16.652344 3.3767242 22.662964 9.387314c6.010559 6.0105896 9.387329 14.162704 9.387329 22.662964l0 363.52155c0 17.700867 -14.349426 32.050232 -32.050293 32.050232l-581.0333 0c-17.700867 0 -32.050262 -14.349365 -32.050262 -32.050232z" fill-rule="evenodd"/><path fill="#000000" fill-opacity="0.0" d="m264.2892 191.49081l431.40158 0l0 31.527557l-431.40158 0z" fill-rule="evenodd"/><path fill="#4a729c" d="m349.3747 214.71144q-1.5625 0 -2.828125 -0.671875q-1.265625 -0.6875 -1.984375 -1.890625q-0.71875 -1.21875 -0.71875 -2.703125q0 -1.5 0.71875 -2.703125q0.71875 -1.21875 1.984375 -1.890625q1.265625 -0.6875 2.828125 -0.6875q1.5625 0 2.828125 0.6875q1.265625 0.671875 1.984375 1.875q0.71875 1.203125 0.71875 2.71875q0 1.5 -0.71875 2.703125q-0.71875 1.203125 -1.984375 1.890625q-1.265625 0.671875 -2.828125 0.671875zm0 -1.671875q1.03125 0 1.84375 -0.453125q0.828125 -0.46875 1.296875 -1.296875q0.46875 -0.828125 0.46875 -1.84375q0 -1.03125 -0.46875 -1.859375q-0.46875 -0.828125 -1.296875 -1.28125q-0.8125 -0.46875 -1.84375 -0.46875q-1.03125 0 -1.859375 0.46875q-0.8125 0.453125 -1.28125 1.28125q-0.46875 0.828125 -0.46875 1.859375q0 1.015625 0.46875 1.84375q0.46875 0.828125 1.28125 1.296875q0.828125 0.453125 1.859375 0.453125zm9.449982 -7.125l0 3.109375l4.953125 0l0 1.625l-4.953125 0l0 3.921875l-1.90625 0l0 -10.265625l7.484375 0l0 1.609375l-5.578125 0zm9.33606 0l0 3.109375l4.953125 0l0 1.625l-4.953125 0l0 3.921875l-1.90625 0l0 -10.265625l7.484375 0l0 1.609375l-5.578125 0zm7.4298096 -1.609375l1.90625 0l0 10.265625l-1.90625 0l0 -10.265625zm9.425354 10.40625q-1.546875 0 -2.8125 -0.671875q-1.25 -0.6875 -1.96875 -1.890625q-0.703125 -1.203125 -0.703125 -2.703125q0 -1.515625 0.71875 -2.71875q0.71875 -1.203125 1.96875 -1.875q1.265625 -0.6875 2.8125 -0.6875q1.265625 0 2.296875 0.4375q1.046875 0.4375 1.765625 1.28125l-1.234375 1.15625q-1.109375 -1.203125 -2.734375 -1.203125q-1.0625 0 -1.90625 0.46875q-0.828125 0.453125 -1.296875 1.28125q-0.46875 0.8125 -0.46875 1.859375q0 1.03125 0.46875 1.859375q0.46875 0.8125 1.296875 1.28125q0.84375 0.453125 1.90625 0.453125q1.625 0 2.734375 -1.203125l1.234375 1.171875q-0.71875 0.828125 -1.765625 1.265625q-1.046875 0.4375 -2.3125 0.4375zm5.9051514 -10.40625l1.90625 0l0 10.265625l-1.90625 0l0 -10.265625zm11.331604 7.890625l-5.125 0l-1.015625 2.375l-1.96875 0l4.625 -10.265625l1.875 0l4.625 10.265625l-1.984375 0l-1.03125 -2.375zm-0.625 -1.5l-1.9375 -4.484375l-1.921875 4.484375l3.859375 0zm4.9463196 -6.390625l1.90625 0l0 8.65625l5.359375 0l0 1.609375l-7.265625 0l0 -10.265625zm12.824249 0l1.90625 0l0 8.65625l5.359375 0l0 1.609375l-7.265625 0l0 -10.265625zm8.779144 0l1.90625 0l0 10.265625l-1.90625 0l0 -10.265625zm11.940979 4.9375q0.859375 0.265625 1.359375 0.921875q0.5 0.65625 0.5 1.625q0 1.328125 -1.03125 2.0625q-1.03125 0.71875 -2.984375 0.71875l-5.109375 0l0 -10.265625l4.8125 0q1.8125 0 2.796875 0.71875q0.984375 0.703125 0.984375 1.953125q0 0.765625 -0.359375 1.359375q-0.34375 0.578125 -0.96875 0.90625zm-5.359375 -3.4375l0 2.828125l2.703125 0q0.984375 0 1.515625 -0.359375q0.546875 -0.359375 0.546875 -1.046875q0 -0.703125 -0.546875 -1.0625q-0.53125 -0.359375 -1.515625 -0.359375l-2.703125 0zm3.078125 7.265625q2.21875 0 2.21875 -1.46875q0 -1.484375 -2.21875 -1.484375l-3.078125 0l0 2.953125l3.078125 0zm12.887817 1.5l-2.09375 -3.0q-0.140625 0.015625 -0.40625 0.015625l-2.3125 0l0 2.984375l-1.90625 0l0 -10.265625l4.21875 0q1.34375 0 2.328125 0.453125q0.984375 0.4375 1.515625 1.265625q0.53125 0.8125 0.53125 1.9375q0 1.15625 -0.5625 2.0q-0.5625 0.828125 -1.625 1.234375l2.359375 3.375l-2.046875 0zm-0.046875 -6.609375q0 -0.984375 -0.65625 -1.5q-0.640625 -0.53125 -1.875 -0.53125l-2.234375 0l0 4.078125l2.234375 0q1.234375 0 1.875 -0.53125q0.65625 -0.53125 0.65625 -1.515625zm10.69812 4.234375l-5.125 0l-1.015625 2.375l-1.96875 0l4.625 -10.265625l1.875 0l4.625 10.265625l-1.984375 0l-1.03125 -2.375zm-0.625 -1.5l-1.9375 -4.484375l-1.921875 4.484375l3.859375 0zm8.401947 -8.46875l1.640625 0l-4.828125 13.8125l-1.640625 0l4.828125 -13.8125zm11.84375 12.34375l-0.015625 -6.796875l-3.359375 5.625l-0.859375 0l-3.375 -5.546875l0 6.71875l-1.8125 0l0 -10.265625l1.578125 0l4.0625 6.8125l4.0 -6.8125l1.578125 0l0.015625 10.265625l-1.8125 0zm9.371765 0.140625q-1.5625 0 -2.828125 -0.671875q-1.265625 -0.6875 -1.984375 -1.890625q-0.71875 -1.21875 -0.71875 -2.703125q0 -1.5 0.71875 -2.703125q0.71875 -1.21875 1.984375 -1.890625q1.265625 -0.6875 2.828125 -0.6875q1.5625 0 2.828125 0.6875q1.265625 0.671875 1.984375 1.875q0.71875 1.203125 0.71875 2.71875q0 1.5 -0.71875 2.703125q-0.71875 1.203125 -1.984375 1.890625q-1.265625 0.671875 -2.828125 0.671875zm0 -1.671875q1.03125 0 1.84375 -0.453125q0.828125 -0.46875 1.296875 -1.296875q0.46875 -0.828125 0.46875 -1.84375q0 -1.03125 -0.46875 -1.859375q-0.46875 -0.828125 -1.296875 -1.28125q-0.8125 -0.46875 -1.84375 -0.46875q-1.03125 0 -1.859375 0.46875q-0.8125 0.453125 -1.28125 1.28125q-0.46875 0.828125 -0.46875 1.859375q0 1.015625 0.46875 1.84375q0.46875 0.828125 1.28125 1.296875q0.828125 0.453125 1.859375 0.453125zm16.59607 -8.734375l-4.46875 10.265625l-1.875 0l-4.484375 -10.265625l2.078125 0l3.40625 7.921875l3.453125 -7.921875l1.890625 0zm8.792572 8.671875l0 1.59375l-7.703125 0l0 -10.265625l7.484375 0l0 1.609375l-5.578125 0l0 2.65625l4.953125 0l0 1.578125l-4.953125 0l0 2.828125l5.796875 0zm8.239807 -7.046875l-3.390625 0l0 -1.625l8.703125 0l0 1.625l-3.40625 0l0 8.640625l-1.90625 0l0 -8.640625zm11.395203 8.78125q-1.5625 0 -2.828125 -0.671875q-1.265625 -0.6875 -1.984375 -1.890625q-0.71875 -1.21875 -0.71875 -2.703125q0 -1.5 0.71875 -2.703125q0.71875 -1.21875 1.984375 -1.890625q1.265625 -0.6875 2.828125 -0.6875q1.5625 0 2.828125 0.6875q1.265625 0.671875 1.984375 1.875q0.71875 1.203125 0.71875 2.71875q0 1.5 -0.71875 2.703125q-0.71875 1.203125 -1.984375 1.890625q-1.265625 0.671875 -2.828125 0.671875zm0 -1.671875q1.03125 0 1.84375 -0.453125q0.828125 -0.46875 1.296875 -1.296875q0.46875 -0.828125 0.46875 -1.84375q0 -1.03125 -0.46875 -1.859375q-0.46875 -0.828125 -1.296875 -1.28125q-0.8125 -0.46875 -1.84375 -0.46875q-1.03125 0 -1.859375 0.46875q-0.8125 0.453125 -1.28125 1.28125q-0.46875 0.828125 -0.46875 1.859375q0 1.015625 0.46875 1.84375q0.46875 0.828125 1.28125 1.296875q0.828125 0.453125 1.859375 0.453125zm12.340576 1.671875q-1.5625 0 -2.828125 -0.671875q-1.265625 -0.6875 -1.984375 -1.890625q-0.71875 -1.21875 -0.71875 -2.703125q0 -1.5 0.71875 -2.703125q0.71875 -1.21875 1.984375 -1.890625q1.265625 -0.6875 2.828125 -0.6875q1.5625 0 2.828125 0.6875q1.265625 0.671875 1.984375 1.875q0.71875 1.203125 0.71875 2.71875q0 1.5 -0.71875 2.703125q-0.71875 1.203125 -1.984375 1.890625q-1.265625 0.671875 -2.828125 0.671875zm0 -1.671875q1.03125 0 1.84375 -0.453125q0.828125 -0.46875 1.296875 -1.296875q0.46875 -0.828125 0.46875 -1.84375q0 -1.03125 -0.46875 -1.859375q-0.46875 -0.828125 -1.296875 -1.28125q-0.8125 -0.46875 -1.84375 -0.46875q-1.03125 0 -1.859375 0.46875q-0.8125 0.453125 -1.28125 1.28125q-0.46875 0.828125 -0.46875 1.859375q0 1.015625 0.46875 1.84375q0.46875 0.828125 1.28125 1.296875q0.828125 0.453125 1.859375 0.453125zm7.543762 -8.734375l1.90625 0l0 8.65625l5.359375 0l0 1.609375l-7.265625 0l0 -10.265625zm17.57428 10.40625q-1.546875 0 -2.8125 -0.671875q-1.25 -0.6875 -1.96875 -1.890625q-0.703125 -1.203125 -0.703125 -2.703125q0 -1.515625 0.71875 -2.71875q0.71875 -1.203125 1.96875 -1.875q1.265625 -0.6875 2.8125 -0.6875q1.265625 0 2.296875 0.4375q1.046875 0.4375 1.765625 1.28125l-1.234375 1.15625q-1.109375 -1.203125 -2.734375 -1.203125q-1.0625 0 -1.90625 0.46875q-0.828125 0.453125 -1.296875 1.28125q-0.46875 0.8125 -0.46875 1.859375q0 1.03125 0.46875 1.859375q0.46875 0.8125 1.296875 1.28125q0.84375 0.453125 1.90625 0.453125q1.625 0 2.734375 -1.203125l1.234375 1.171875q-0.71875 0.828125 -1.765625 1.265625q-1.046875 0.4375 -2.3125 0.4375zm15.03009 -10.40625l0 10.265625l-1.90625 0l0 -4.390625l-5.3125 0l0 4.390625l-1.90625 0l0 -10.265625l1.90625 0l0 4.234375l5.3125 0l0 -4.234375l1.90625 0zm9.402893 7.890625l-5.125 0l-1.015625 2.375l-1.96875 0l4.625 -10.265625l1.875 0l4.625 10.265625l-1.984375 0l-1.03125 -2.375zm-0.625 -1.5l-1.9375 -4.484375l-1.921875 4.484375l3.859375 0zm4.946289 -6.390625l1.90625 0l0 10.265625l-1.90625 0l0 -10.265625zm13.800354 0l0 10.265625l-1.578125 0l-5.65625 -6.953125l0 6.953125l-1.890625 0l0 -10.265625l1.578125 0l5.65625 6.953125l0 -6.953125l1.890625 0z" fill-rule="nonzero"/><path fill="#92b4d8" d="m239.30971 306.8634l0 0c0 -7.257904 5.883713 -13.141632 13.141632 -13.141632l455.07104 0c3.4854126 0 6.828003 1.3845825 9.2925415 3.849121c2.4645386 2.464508 3.849121 5.807129 3.849121 9.292511l0 149.05533c0 7.2579346 -5.883728 13.141632 -13.141663 13.141632l-455.07104 0c-7.2579193 0 -13.141632 -5.8836975 -13.141632 -13.141632z" fill-rule="evenodd"/><path fill="#000000" fill-opacity="0.0" d="m253.45113 250.6063l453.07086 0l0 31.527557l-453.07086 0z" fill-rule="evenodd"/><path fill="#4a729c" d="m365.06808 271.2513q-1.734375 0 -2.703125 -0.984375q-0.96875 -0.984375 -0.96875 -2.796875l0 -4.75l1.546875 0l0 4.6875q0 2.46875 2.140625 2.46875q2.125 0 2.125 -2.46875l0 -4.6875l1.53125 0l0 4.75q0 1.8125 -0.96875 2.796875q-0.953125 0.984375 -2.703125 0.984375zm8.468079 0q-0.96875 0 -1.875 -0.28125q-0.90625 -0.28125 -1.4375 -0.734375l0.53125 -1.203125q0.515625 0.40625 1.265625 0.671875q0.75 0.25 1.515625 0.25q0.9375 0 1.390625 -0.296875q0.46875 -0.3125 0.46875 -0.796875q0 -0.359375 -0.265625 -0.59375q-0.25 -0.234375 -0.65625 -0.359375q-0.390625 -0.140625 -1.078125 -0.3125q-0.953125 -0.21875 -1.546875 -0.453125q-0.59375 -0.234375 -1.03125 -0.71875q-0.421875 -0.484375 -0.421875 -1.3125q0 -0.6875 0.375 -1.25q0.390625 -0.578125 1.140625 -0.90625q0.765625 -0.34375 1.875 -0.34375q0.765625 0 1.5 0.1875q0.75 0.1875 1.296875 0.546875l-0.5 1.21875q-0.546875 -0.328125 -1.15625 -0.484375q-0.59375 -0.171875 -1.15625 -0.171875q-0.921875 0 -1.375 0.3125q-0.453125 0.3125 -0.453125 0.828125q0 0.359375 0.25 0.59375q0.265625 0.21875 0.65625 0.359375q0.40625 0.125 1.09375 0.28125q0.9375 0.21875 1.53125 0.453125q0.609375 0.234375 1.03125 0.71875q0.421875 0.484375 0.421875 1.296875q0 0.6875 -0.375 1.265625q-0.375 0.5625 -1.140625 0.90625q-0.765625 0.328125 -1.875 0.328125zm4.9386597 -8.53125l1.5625 0l0 8.40625l-1.5625 0l0 -8.40625zm11.296783 0l0 8.40625l-1.28125 0l-4.640625 -5.6875l0 5.6875l-1.546875 0l0 -8.40625l1.28125 0l4.640625 5.6875l0 -5.6875l1.546875 0zm7.9856873 4.109375l1.484375 0l0 3.34375q-0.65625 0.515625 -1.515625 0.796875q-0.859375 0.28125 -1.78125 0.28125q-1.28125 0 -2.3125 -0.5625q-1.03125 -0.5625 -1.625 -1.546875q-0.578125 -0.984375 -0.578125 -2.21875q0 -1.234375 0.578125 -2.21875q0.59375 -0.984375 1.625 -1.53125q1.046875 -0.5625 2.34375 -0.5625q1.046875 0 1.90625 0.34375q0.875 0.34375 1.46875 1.015625l-0.984375 0.96875q-0.96875 -0.96875 -2.328125 -0.96875q-0.875 0 -1.578125 0.375q-0.6875 0.375 -1.078125 1.046875q-0.390625 0.671875 -0.390625 1.53125q0 0.84375 0.390625 1.515625q0.390625 0.671875 1.078125 1.0625q0.703125 0.375 1.578125 0.375q0.984375 0 1.71875 -0.4375l0 -2.609375zm8.54483 -2.78125l-2.78125 0l0 -1.328125l7.125 0l0 1.328125l-2.78125 0l0 7.078125l-1.5625 0l0 -7.078125zm12.989685 -1.328125l0 8.40625l-1.5625 0l0 -3.59375l-4.34375 0l0 3.59375l-1.5625 0l0 -8.40625l1.5625 0l0 3.46875l4.34375 0l0 -3.46875l1.5625 0zm8.548187 7.09375l0 1.3125l-6.296875 0l0 -8.40625l6.140625 0l0 1.3125l-4.578125 0l0 2.1875l4.0625 0l0 1.28125l-4.0625 0l0 2.3125l4.734375 0zm12.773956 1.3125l-0.015625 -5.5625l-2.75 4.609375l-0.703125 0l-2.765625 -4.546875l0 5.5l-1.484375 0l0 -8.40625l1.28125 0l3.34375 5.578125l3.28125 -5.578125l1.28125 0l0 8.40625l-1.46875 0zm7.663208 0.125q-1.28125 0 -2.3125 -0.5625q-1.03125 -0.5625 -1.625 -1.546875q-0.578125 -0.984375 -0.578125 -2.21875q0 -1.21875 0.578125 -2.203125q0.59375 -1.0 1.625 -1.546875q1.03125 -0.5625 2.3125 -0.5625q1.296875 0 2.328125 0.5625q1.03125 0.546875 1.609375 1.53125q0.59375 0.984375 0.59375 2.21875q0 1.234375 -0.59375 2.21875q-0.578125 0.984375 -1.609375 1.546875q-1.03125 0.5625 -2.328125 0.5625zm0 -1.375q0.84375 0 1.515625 -0.375q0.671875 -0.375 1.046875 -1.046875q0.390625 -0.6875 0.390625 -1.53125q0 -0.84375 -0.390625 -1.515625q-0.375 -0.671875 -1.046875 -1.046875q-0.671875 -0.390625 -1.515625 -0.390625q-0.828125 0 -1.5 0.390625q-0.671875 0.375 -1.0625 1.046875q-0.390625 0.671875 -0.390625 1.515625q0 0.84375 0.390625 1.53125q0.390625 0.671875 1.0625 1.046875q0.671875 0.375 1.5 0.375zm13.605682 -7.15625l-3.671875 8.40625l-1.53125 0l-3.671875 -8.40625l1.6875 0l2.796875 6.484375l2.828125 -6.484375l1.5625 0zm7.177429 7.09375l0 1.3125l-6.296875 0l0 -8.40625l6.140625 0l0 1.3125l-4.578125 0l0 2.1875l4.0625 0l0 1.28125l-4.0625 0l0 2.3125l4.734375 0zm7.6645813 1.4375q-0.96875 0 -1.875 -0.28125q-0.90625 -0.28125 -1.4375 -0.734375l0.53125 -1.203125q0.515625 0.40625 1.265625 0.671875q0.75 0.25 1.515625 0.25q0.9375 0 1.390625 -0.296875q0.46875 -0.3125 0.46875 -0.796875q0 -0.359375 -0.265625 -0.59375q-0.25 -0.234375 -0.65625 -0.359375q-0.390625 -0.140625 -1.078125 -0.3125q-0.953125 -0.21875 -1.546875 -0.453125q-0.59375 -0.234375 -1.03125 -0.71875q-0.421875 -0.484375 -0.421875 -1.3125q0 -0.6875 0.375 -1.25q0.390625 -0.578125 1.140625 -0.90625q0.765625 -0.34375 1.875 -0.34375q0.765625 0 1.5 0.1875q0.75 0.1875 1.296875 0.546875l-0.5 1.21875q-0.546875 -0.328125 -1.15625 -0.484375q-0.59375 -0.171875 -1.15625 -0.171875q-0.921875 0 -1.375 0.3125q-0.453125 0.3125 -0.453125 0.828125q0 0.359375 0.25 0.59375q0.265625 0.21875 0.65625 0.359375q0.40625 0.125 1.09375 0.28125q0.9375 0.21875 1.53125 0.453125q0.609375 0.234375 1.03125 0.71875q0.421875 0.484375 0.421875 1.296875q0 0.6875 -0.375 1.265625q-0.375 0.5625 -1.140625 0.90625q-0.765625 0.328125 -1.875 0.328125zm8.860565 0q-1.28125 0 -2.3125 -0.5625q-1.03125 -0.5625 -1.625 -1.546875q-0.578125 -0.984375 -0.578125 -2.21875q0 -1.21875 0.578125 -2.203125q0.59375 -1.0 1.625 -1.546875q1.03125 -0.5625 2.3125 -0.5625q1.296875 0 2.328125 0.5625q1.03125 0.546875 1.609375 1.53125q0.59375 0.984375 0.59375 2.21875q0 1.234375 -0.59375 2.21875q-0.578125 0.984375 -1.609375 1.546875q-1.03125 0.5625 -2.328125 0.5625zm0 -1.375q0.84375 0 1.515625 -0.375q0.671875 -0.375 1.046875 -1.046875q0.390625 -0.6875 0.390625 -1.53125q0 -0.84375 -0.390625 -1.515625q-0.375 -0.671875 -1.046875 -1.046875q-0.671875 -0.390625 -1.515625 -0.390625q-0.828125 0 -1.5 0.390625q-0.671875 0.375 -1.0625 1.046875q-0.390625 0.671875 -0.390625 1.515625q0 0.84375 0.390625 1.53125q0.390625 0.671875 1.0625 1.046875q0.671875 0.375 1.5 0.375zm9.791565 1.375q-1.734375 0 -2.703125 -0.984375q-0.96875 -0.984375 -0.96875 -2.796875l0 -4.75l1.546875 0l0 4.6875q0 2.46875 2.140625 2.46875q2.125 0 2.125 -2.46875l0 -4.6875l1.53125 0l0 4.75q0 1.8125 -0.96875 2.796875q-0.953125 0.984375 -2.703125 0.984375zm11.358673 -0.125l-1.71875 -2.453125q-0.109375 0 -0.328125 0l-1.890625 0l0 2.453125l-1.5625 0l0 -8.40625l3.453125 0q1.09375 0 1.90625 0.359375q0.8125 0.359375 1.234375 1.03125q0.4375 0.671875 0.4375 1.609375q0 0.9375 -0.46875 1.625q-0.453125 0.6875 -1.3125 1.015625l1.921875 2.765625l-1.671875 0zm-0.03125 -5.40625q0 -0.8125 -0.53125 -1.234375q-0.53125 -0.4375 -1.546875 -0.4375l-1.828125 0l0 3.34375l1.828125 0q1.015625 0 1.546875 -0.4375q0.53125 -0.4375 0.53125 -1.234375zm7.1939697 5.53125q-1.265625 0 -2.2969055 -0.5625q-1.03125 -0.5625 -1.609375 -1.546875q-0.578125 -0.984375 -0.578125 -2.21875q0 -1.234375 0.578125 -2.21875q0.59375 -0.984375 1.609375 -1.53125q1.0312805 -0.5625 2.3125305 -0.5625q1.03125 0 1.875 0.359375q0.859375 0.359375 1.453125 1.046875l-1.015625 0.9375q-0.90625 -0.984375 -2.25 -0.984375q-0.859375 0 -1.546875 0.390625q-0.6719055 0.375 -1.0625305 1.046875q-0.390625 0.671875 -0.390625 1.515625q0 0.859375 0.390625 1.53125q0.390625 0.671875 1.0625305 1.046875q0.6875 0.375 1.546875 0.375q1.34375 0 2.25 -1.0l1.015625 0.96875q-0.59375 0.6875 -1.453125 1.046875q-0.859375 0.359375 -1.890625 0.359375zm11.13031 -1.4375l0 1.3125l-6.296875 0l0 -8.40625l6.140625 0l0 1.3125l-4.578125 0l0 2.1875l4.0625 0l0 1.28125l-4.0625 0l0 2.3125l4.734375 0zm5.055176 -7.09375l1.5625 0l0 7.09375l4.390625 0l0 1.3125l-5.953125 0l0 -8.40625zm12.701172 6.46875l-4.203125 0l-0.828125 1.9375l-1.609375 0l3.78125 -8.40625l1.53125 0l3.796875 8.40625l-1.625 0l-0.84375 -1.9375zm-0.515625 -1.234375l-1.59375 -3.671875l-1.5625 3.671875l3.15625 0zm11.519348 -5.234375l0 8.40625l-1.28125 0l-4.640625 -5.6875l0 5.6875l-1.546875 0l0 -8.40625l1.28125 0l4.640625 5.6875l0 -5.6875l1.546875 0zm7.9856567 4.109375l1.484375 0l0 3.34375q-0.65625 0.515625 -1.515625 0.796875q-0.859375 0.28125 -1.78125 0.28125q-1.28125 0 -2.3125 -0.5625q-1.03125 -0.5625 -1.625 -1.546875q-0.578125 -0.984375 -0.578125 -2.21875q0 -1.234375 0.578125 -2.21875q0.59375 -0.984375 1.625 -1.53125q1.046875 -0.5625 2.34375 -0.5625q1.046875 0 1.90625 0.34375q0.875 0.34375 1.46875 1.015625l-0.984375 0.96875q-0.96875 -0.96875 -2.328125 -0.96875q-0.875 0 -1.578125 0.375q-0.6875 0.375 -1.078125 1.046875q-0.390625 0.671875 -0.390625 1.53125q0 0.84375 0.390625 1.515625q0.390625 0.671875 1.078125 1.0625q0.703125 0.375 1.578125 0.375q0.984375 0 1.71875 -0.4375l0 -2.609375zm7.139099 4.421875q-1.734375 0 -2.703125 -0.984375q-0.96875 -0.984375 -0.96875 -2.796875l0 -4.75l1.546875 0l0 4.6875q0 2.46875 2.140625 2.46875q2.125 0 2.125 -2.46875l0 -4.6875l1.53125 0l0 4.75q0 1.8125 -0.96875 2.796875q-0.953125 0.984375 -2.703125 0.984375zm11.131836 -2.0625l-4.203125 0l-0.828125 1.9375l-1.609375 0l3.78125 -8.40625l1.53125 0l3.796875 8.40625l-1.625 0l-0.84375 -1.9375zm-0.515625 -1.234375l-1.59375 -3.671875l-1.5625 3.671875l3.15625 0zm9.664917 -1.125l1.484375 0l0 3.34375q-0.65625 0.515625 -1.515625 0.796875q-0.859375 0.28125 -1.78125 0.28125q-1.28125 0 -2.3125 -0.5625q-1.03125 -0.5625 -1.625 -1.546875q-0.578125 -0.984375 -0.578125 -2.21875q0 -1.234375 0.578125 -2.21875q0.59375 -0.984375 1.625 -1.53125q1.046875 -0.5625 2.34375 -0.5625q1.046875 0 1.90625 0.34375q0.875 0.34375 1.46875 1.015625l-0.984375 0.96875q-0.96875 -0.96875 -2.328125 -0.96875q-0.875 0 -1.578125 0.375q-0.6875 0.375 -1.078125 1.046875q-0.390625 0.671875 -0.390625 1.53125q0 0.84375 0.390625 1.515625q0.390625 0.671875 1.078125 1.0625q0.703125 0.375 1.578125 0.375q0.984375 0 1.71875 -0.4375l0 -2.609375zm9.826599 2.984375l0 1.3125l-6.296875 0l0 -8.40625l6.140625 0l0 1.3125l-4.578125 0l0 2.1875l4.0625 0l0 1.28125l-4.0625 0l0 2.3125l4.734375 0z" fill-rule="nonzero"/><path fill="#000000" fill-opacity="0.0" d="m253.45113 305.41995l453.07086 0l0 31.527557l-453.07086 0z" fill-rule="evenodd"/><path fill="#4a729c" d="m407.2597 325.93994l-0.015625 -5.5625l-2.75 4.609375l-0.703125 0l-2.765625 -4.546875l0 5.5l-1.484375 0l0 -8.40625l1.28125 0l3.34375 5.578125l3.28125 -5.578125l1.28125 0l0 8.40625l-1.46875 0zm7.663208 0.125q-1.28125 0 -2.3125 -0.5625q-1.03125 -0.5625 -1.625 -1.546875q-0.578125 -0.984375 -0.578125 -2.21875q0 -1.21875 0.578125 -2.203125q0.59375 -1.0 1.625 -1.546875q1.03125 -0.5625 2.3125 -0.5625q1.296875 0 2.328125 0.5625q1.03125 0.546875 1.609375 1.53125q0.59375 0.984375 0.59375 2.21875q0 1.234375 -0.59375 2.21875q-0.578125 0.984375 -1.609375 1.546875q-1.03125 0.5625 -2.328125 0.5625zm0 -1.375q0.84375 0 1.515625 -0.375q0.671875 -0.375 1.046875 -1.046875q0.390625 -0.6875 0.390625 -1.53125q0 -0.84375 -0.390625 -1.515625q-0.375 -0.671875 -1.046875 -1.046875q-0.671875 -0.390625 -1.515625 -0.390625q-0.828125 0 -1.5 0.390625q-0.671875 0.375 -1.0625 1.046875q-0.390625 0.671875 -0.390625 1.515625q0 0.84375 0.390625 1.53125q0.390625 0.671875 1.0625 1.046875q0.671875 0.375 1.5 0.375zm13.605682 -7.15625l-3.671875 8.40625l-1.53125 0l-3.671875 -8.40625l1.6875 0l2.796875 6.484375l2.828125 -6.484375l1.5625 0zm7.1774597 7.09375l0 1.3125l-6.296875 0l0 -8.40625l6.140625 0l0 1.3125l-4.578125 0l0 2.1875l4.0625 0l0 1.28125l-4.0625 0l0 2.3125l4.734375 0zm7.6645813 1.4375q-0.96875 0 -1.875 -0.28125q-0.90625 -0.28125 -1.4375 -0.734375l0.53125 -1.203125q0.515625 0.40625 1.265625 0.671875q0.75 0.25 1.515625 0.25q0.9375 0 1.390625 -0.296875q0.46875 -0.3125 0.46875 -0.796875q0 -0.359375 -0.265625 -0.59375q-0.25 -0.234375 -0.65625 -0.359375q-0.390625 -0.140625 -1.078125 -0.3125q-0.953125 -0.21875 -1.546875 -0.453125q-0.59375 -0.234375 -1.03125 -0.71875q-0.421875 -0.484375 -0.421875 -1.3125q0 -0.6875 0.375 -1.25q0.390625 -0.578125 1.140625 -0.90625q0.765625 -0.34375 1.875 -0.34375q0.765625 0 1.5 0.1875q0.75 0.1875 1.296875 0.546875l-0.5 1.21875q-0.546875 -0.328125 -1.15625 -0.484375q-0.59375 -0.171875 -1.15625 -0.171875q-0.921875 0 -1.375 0.3125q-0.453125 0.3125 -0.453125 0.828125q0 0.359375 0.25 0.59375q0.265625 0.21875 0.65625 0.359375q0.40625 0.125 1.09375 0.28125q0.9375 0.21875 1.53125 0.453125q0.609375 0.234375 1.03125 0.71875q0.421875 0.484375 0.421875 1.296875q0 0.6875 -0.375 1.265625q-0.375 0.5625 -1.140625 0.90625q-0.765625 0.328125 -1.875 0.328125zm8.860535 0q-1.28125 0 -2.3125 -0.5625q-1.03125 -0.5625 -1.625 -1.546875q-0.578125 -0.984375 -0.578125 -2.21875q0 -1.21875 0.578125 -2.203125q0.59375 -1.0 1.625 -1.546875q1.03125 -0.5625 2.3125 -0.5625q1.296875 0 2.328125 0.5625q1.03125 0.546875 1.609375 1.53125q0.59375 0.984375 0.59375 2.21875q0 1.234375 -0.59375 2.21875q-0.578125 0.984375 -1.609375 1.546875q-1.03125 0.5625 -2.328125 0.5625zm0 -1.375q0.84375 0 1.515625 -0.375q0.671875 -0.375 1.046875 -1.046875q0.390625 -0.6875 0.390625 -1.53125q0 -0.84375 -0.390625 -1.515625q-0.375 -0.671875 -1.046875 -1.046875q-0.671875 -0.390625 -1.515625 -0.390625q-0.828125 0 -1.5 0.390625q-0.671875 0.375 -1.0625 1.046875q-0.390625 0.671875 -0.390625 1.515625q0 0.84375 0.390625 1.53125q0.390625 0.671875 1.0625 1.046875q0.671875 0.375 1.5 0.375zm9.791565 1.375q-1.734375 0 -2.703125 -0.984375q-0.96875 -0.984375 -0.96875 -2.796875l0 -4.75l1.546875 0l0 4.6875q0 2.46875 2.140625 2.46875q2.125 0 2.125 -2.46875l0 -4.6875l1.53125 0l0 4.75q0 1.8125 -0.96875 2.796875q-0.953125 0.984375 -2.703125 0.984375zm11.358704 -0.125l-1.71875 -2.453125q-0.109375 0 -0.328125 0l-1.890625 0l0 2.453125l-1.5625 0l0 -8.40625l3.453125 0q1.09375 0 1.90625 0.359375q0.8125 0.359375 1.234375 1.03125q0.4375 0.671875 0.4375 1.609375q0 0.9375 -0.46875 1.625q-0.453125 0.6875 -1.3125 1.015625l1.921875 2.765625l-1.671875 0zm-0.03125 -5.40625q0 -0.8125 -0.53125 -1.234375q-0.53125 -0.4375 -1.546875 -0.4375l-1.828125 0l0 3.34375l1.828125 0q1.015625 0 1.546875 -0.4375q0.53125 -0.4375 0.53125 -1.234375zm7.193939 5.53125q-1.265625 0 -2.296875 -0.5625q-1.03125 -0.5625 -1.609375 -1.546875q-0.578125 -0.984375 -0.578125 -2.21875q0 -1.234375 0.578125 -2.21875q0.59375 -0.984375 1.609375 -1.53125q1.03125 -0.5625 2.3125 -0.5625q1.03125 0 1.875 0.359375q0.859375 0.359375 1.453125 1.046875l-1.015625 0.9375q-0.90625 -0.984375 -2.25 -0.984375q-0.859375 0 -1.546875 0.390625q-0.671875 0.375 -1.0625 1.046875q-0.390625 0.671875 -0.390625 1.515625q0 0.859375 0.390625 1.53125q0.390625 0.671875 1.0625 1.046875q0.6875 0.375 1.546875 0.375q1.34375 0 2.25 -1.0l1.015625 0.96875q-0.59375 0.6875 -1.453125 1.046875q-0.859375 0.359375 -1.890625 0.359375zm11.13031 -1.4375l0 1.3125l-6.296875 0l0 -8.40625l6.140625 0l0 1.3125l-4.578125 0l0 2.1875l4.0625 0l0 1.28125l-4.0625 0l0 2.3125l4.734375 0zm8.508331 -7.09375q1.09375 0 1.90625 0.359375q0.8125 0.359375 1.234375 1.03125q0.4375 0.671875 0.4375 1.609375q0 0.90625 -0.4375 1.59375q-0.421875 0.671875 -1.234375 1.03125q-0.8125 0.359375 -1.90625 0.359375l-1.890625 0l0 2.421875l-1.5625 0l0 -8.40625l3.453125 0zm-0.0625 4.65625q1.015625 0 1.546875 -0.421875q0.53125 -0.4375 0.53125 -1.234375q0 -0.8125 -0.53125 -1.234375q-0.53125 -0.4375 -1.546875 -0.4375l-1.828125 0l0 3.328125l1.828125 0zm10.701447 3.75l-1.71875 -2.453125q-0.109375 0 -0.328125 0l-1.890625 0l0 2.453125l-1.5625 0l0 -8.40625l3.453125 0q1.09375 0 1.90625 0.359375q0.8125 0.359375 1.234375 1.03125q0.4375 0.671875 0.4375 1.609375q0 0.9375 -0.46875 1.625q-0.453125 0.6875 -1.3125 1.015625l1.921875 2.765625l-1.671875 0zm-0.03125 -5.40625q0 -0.8125 -0.53125 -1.234375q-0.53125 -0.4375 -1.546875 -0.4375l-1.828125 0l0 3.34375l1.828125 0q1.015625 0 1.546875 -0.4375q0.53125 -0.4375 0.53125 -1.234375zm7.2251587 5.53125q-1.28125 0 -2.3125 -0.5625q-1.03125 -0.5625 -1.625 -1.546875q-0.578125 -0.984375 -0.578125 -2.21875q0 -1.21875 0.578125 -2.203125q0.59375 -1.0 1.625 -1.546875q1.03125 -0.5625 2.3125 -0.5625q1.296875 0 2.328125 0.5625q1.03125 0.546875 1.609375 1.53125q0.59375 0.984375 0.59375 2.21875q0 1.234375 -0.59375 2.21875q-0.578125 0.984375 -1.609375 1.546875q-1.03125 0.5625 -2.328125 0.5625zm0 -1.375q0.84375 0 1.515625 -0.375q0.671875 -0.375 1.046875 -1.046875q0.390625 -0.6875 0.390625 -1.53125q0 -0.84375 -0.390625 -1.515625q-0.375 -0.671875 -1.046875 -1.046875q-0.671875 -0.390625 -1.515625 -0.390625q-0.828125 0 -1.5 0.390625q-0.671875 0.375 -1.0625 1.046875q-0.390625 0.671875 -0.390625 1.515625q0 0.84375 0.390625 1.53125q0.390625 0.671875 1.0625 1.046875q0.671875 0.375 1.5 0.375zm11.916565 -3.046875l1.484375 0l0 3.34375q-0.65625 0.515625 -1.515625 0.796875q-0.859375 0.28125 -1.78125 0.28125q-1.28125 0 -2.3125 -0.5625q-1.03125 -0.5625 -1.625 -1.546875q-0.578125 -0.984375 -0.578125 -2.21875q0 -1.234375 0.578125 -2.21875q0.59375 -0.984375 1.625 -1.53125q1.046875 -0.5625 2.34375 -0.5625q1.046875 0 1.90625 0.34375q0.875 0.34375 1.46875 1.015625l-0.984375 0.96875q-0.96875 -0.96875 -2.328125 -0.96875q-0.875 0 -1.578125 0.375q-0.6875 0.375 -1.078125 1.046875q-0.390625 0.671875 -0.390625 1.53125q0 0.84375 0.390625 1.515625q0.390625 0.671875 1.078125 1.0625q0.703125 0.375 1.578125 0.375q0.984375 0 1.71875 -0.4375l0 -2.609375zm9.029724 4.296875l-1.71875 -2.453125q-0.109375 0 -0.328125 0l-1.890625 0l0 2.453125l-1.5625 0l0 -8.40625l3.453125 0q1.09375 0 1.90625 0.359375q0.8125 0.359375 1.234375 1.03125q0.4375 0.671875 0.4375 1.609375q0 0.9375 -0.46875 1.625q-0.453125 0.6875 -1.3125 1.015625l1.921875 2.765625l-1.671875 0zm-0.03125 -5.40625q0 -0.8125 -0.53125 -1.234375q-0.53125 -0.4375 -1.546875 -0.4375l-1.828125 0l0 3.34375l1.828125 0q1.015625 0 1.546875 -0.4375q0.53125 -0.4375 0.53125 -1.234375zm8.756409 3.46875l-4.203125 0l-0.828125 1.9375l-1.609375 0l3.78125 -8.40625l1.53125 0l3.796875 8.40625l-1.625 0l-0.84375 -1.9375zm-0.515625 -1.234375l-1.59375 -3.671875l-1.5625 3.671875l3.15625 0zm11.769348 3.171875l-0.015625 -5.5625l-2.75 4.609375l-0.703125 0l-2.765625 -4.546875l0 5.5l-1.484375 0l0 -8.40625l1.28125 0l3.34375 5.578125l3.28125 -5.578125l1.28125 0l0 8.40625l-1.46875 0z" fill-rule="nonzero"/><path fill="#c8e4ff" d="m264.29092 356.76456l0 0c0 -3.4953308 2.833496 -6.3288574 6.328827 -6.3288574l106.83838 0c1.6784973 0 3.288269 0.66677856 4.4751587 1.8536682c1.1868896 1.1868896 1.8536987 2.7966614 1.8536987 4.475189l0 71.78323c0 3.4953308 -2.8335266 6.3288574 -6.3288574 6.3288574l-106.83838 0c-3.4953308 0 -6.328827 -2.8335266 -6.328827 -6.3288574z" fill-rule="evenodd"/><path fill="#c8e4ff" d="m420.2383 356.76456l0 0c0 -3.4953308 2.833496 -6.3288574 6.328827 -6.3288574l106.83838 0c1.6785278 0 3.288269 0.66677856 4.4751587 1.8536682c1.1868896 1.1868896 1.8536987 2.7966614 1.8536987 4.475189l0 71.78323c0 3.4953308 -2.8335571 6.3288574 -6.3288574 6.3288574l-106.83838 0c-3.4953308 0 -6.328827 -2.8335266 -6.328827 -6.3288574z" fill-rule="evenodd"/><path fill="#c8e4ff" d="m576.18567 356.76456l0 0c0 -3.4953308 2.8335571 -6.3288574 6.3288574 -6.3288574l106.83838 0c1.6785278 0 3.288269 0.66677856 4.4751587 1.8536682c1.1868896 1.1868896 1.8536987 2.7966614 1.8536987 4.475189l0 71.78323c0 3.4953308 -2.8335571 6.3288574 -6.3288574 6.3288574l-106.83838 0c-3.4953003 0 -6.3288574 -2.8335266 -6.3288574 -6.3288574z" fill-rule="evenodd"/><path fill="#000000" fill-opacity="0.0" d="m264.29135 371.88452l119.49606 0l0 41.543304l-119.49606 0z" fill-rule="evenodd"/><path fill="#4a729c" d="m292.5715 392.5295q-0.96875 0 -1.875 -0.28125q-0.90625 -0.28125 -1.4375 -0.734375l0.53125 -1.203125q0.515625 0.40625 1.265625 0.671875q0.75 0.25 1.515625 0.25q0.9375 0 1.390625 -0.296875q0.46875 -0.3125 0.46875 -0.796875q0 -0.359375 -0.265625 -0.59375q-0.25 -0.234375 -0.65625 -0.359375q-0.390625 -0.140625 -1.078125 -0.3125q-0.953125 -0.21875 -1.546875 -0.453125q-0.59375 -0.234375 -1.03125 -0.71875q-0.421875 -0.484375 -0.421875 -1.3125q0 -0.6875 0.375 -1.25q0.390625 -0.578125 1.140625 -0.90625q0.765625 -0.34375 1.875 -0.34375q0.765625 0 1.5 0.1875q0.75 0.1875 1.296875 0.546875l-0.5 1.21875q-0.546875 -0.328125 -1.15625 -0.484375q-0.59375 -0.171875 -1.15625 -0.171875q-0.921875 0 -1.375 0.3125q-0.453125 0.3125 -0.453125 0.828125q0 0.359375 0.25 0.59375q0.265625 0.21875 0.65625 0.359375q0.40625 0.125 1.09375 0.28125q0.9375 0.21875 1.53125 0.453125q0.609375 0.234375 1.03125 0.71875q0.421875 0.484375 0.421875 1.296875q0 0.6875 -0.375 1.265625q-0.375 0.5625 -1.140625 0.90625q-0.765625 0.328125 -1.875 0.328125zm6.5217896 -7.203125l-2.78125 0l0 -1.328125l7.125 0l0 1.328125l-2.78125 0l0 7.078125l-1.5625 0l0 -7.078125zm10.554047 5.140625l-4.203125 0l-0.828125 1.9375l-1.609375 0l3.78125 -8.40625l1.53125 0l3.796875 8.40625l-1.625 0l-0.84375 -1.9375zm-0.515625 -1.234375l-1.59375 -3.671875l-1.5625 3.671875l3.15625 0zm11.519318 -5.234375l0 8.40625l-1.28125 0l-4.640625 -5.6875l0 5.6875l-1.546875 0l0 -8.40625l1.28125 0l4.640625 5.6875l0 -5.6875l1.546875 0zm2.2513123 0l3.671875 0q1.34375 0 2.390625 0.53125q1.046875 0.515625 1.625 1.46875q0.578125 0.953125 0.578125 2.203125q0 1.25 -0.578125 2.203125q-0.578125 0.953125 -1.625 1.484375q-1.046875 0.515625 -2.390625 0.515625l-3.671875 0l0 -8.40625zm3.609375 7.09375q0.921875 0 1.625 -0.359375q0.703125 -0.359375 1.078125 -1.015625q0.375 -0.65625 0.375 -1.515625q0 -0.859375 -0.375 -1.515625q-0.375 -0.65625 -1.078125 -1.0q-0.703125 -0.359375 -1.625 -0.359375l-2.046875 0l0 5.765625l2.046875 0zm11.635834 -0.625l-4.203125 0l-0.828125 1.9375l-1.609375 0l3.78125 -8.40625l1.53125 0l3.796875 8.40625l-1.625 0l-0.84375 -1.9375zm-0.515625 -1.234375l-1.59375 -3.671875l-1.5625 3.671875l3.15625 0zm9.550568 3.171875l-1.71875 -2.453125q-0.109375 0 -0.328125 0l-1.890625 0l0 2.453125l-1.5625 0l0 -8.40625l3.453125 0q1.09375 0 1.90625 0.359375q0.8125 0.359375 1.234375 1.03125q0.4375 0.671875 0.4375 1.609375q0 0.9375 -0.46875 1.625q-0.453125 0.6875 -1.3125 1.015625l1.921875 2.765625l-1.671875 0zm-0.03125 -5.40625q0 -0.8125 -0.53125 -1.234375q-0.53125 -0.4375 -1.546875 -0.4375l-1.828125 0l0 3.34375l1.828125 0q1.015625 0 1.546875 -0.4375q0.53125 -0.4375 0.53125 -1.234375zm3.3033142 -3.0l3.671875 0q1.34375 0 2.390625 0.53125q1.046875 0.515625 1.625 1.46875q0.578125 0.953125 0.578125 2.203125q0 1.25 -0.578125 2.203125q-0.578125 0.953125 -1.625 1.484375q-1.046875 0.515625 -2.390625 0.515625l-3.671875 0l0 -8.40625zm3.609375 7.09375q0.921875 0 1.625 -0.359375q0.703125 -0.359375 1.078125 -1.015625q0.375 -0.65625 0.375 -1.515625q0 -0.859375 -0.375 -1.515625q-0.375 -0.65625 -1.078125 -1.0q-0.703125 -0.359375 -1.625 -0.359375l-2.046875 0l0 5.765625l2.046875 0z" fill-rule="nonzero"/><path fill="#4a729c" d="m297.91818 397.99826l1.5625 0l0 7.09375l4.390625 0l0 1.3125l-5.953125 0l0 -8.40625zm7.1880493 0l1.5625 0l0 8.40625l-1.5625 0l0 -8.40625zm9.781158 4.03125q0.703125 0.234375 1.109375 0.765625q0.40625 0.53125 0.40625 1.328125q0 1.09375 -0.84375 1.6875q-0.84375 0.59375 -2.453125 0.59375l-4.171875 0l0 -8.40625l3.9375 0q1.484375 0 2.28125 0.59375q0.8125 0.578125 0.8125 1.59375q0 0.625 -0.296875 1.109375q-0.28125 0.484375 -0.78125 0.734375zm-4.390625 -2.796875l0 2.3125l2.203125 0q0.828125 0 1.265625 -0.296875q0.4375 -0.296875 0.4375 -0.859375q0 -0.578125 -0.4375 -0.859375q-0.4375 -0.296875 -1.265625 -0.296875l-2.203125 0zm2.515625 5.953125q1.8125 0 1.8125 -1.21875q0 -1.203125 -1.8125 -1.203125l-2.515625 0l0 2.421875l2.515625 0zm10.553925 1.21875l-1.71875 -2.453125q-0.109375 0 -0.328125 0l-1.890625 0l0 2.453125l-1.5625 0l0 -8.40625l3.453125 0q1.09375 0 1.90625 0.359375q0.8125 0.359375 1.234375 1.03125q0.4375 0.671875 0.4375 1.609375q0 0.9375 -0.46875 1.625q-0.453125 0.6875 -1.3125 1.015625l1.921875 2.765625l-1.671875 0zm-0.03125 -5.40625q0 -0.8125 -0.53125 -1.234375q-0.53125 -0.4375 -1.546875 -0.4375l-1.828125 0l0 3.34375l1.828125 0q1.015625 0 1.546875 -0.4375q0.53125 -0.4375 0.53125 -1.234375zm8.756439 3.46875l-4.203125 0l-0.828125 1.9375l-1.609375 0l3.78125 -8.40625l1.53125 0l3.796875 8.40625l-1.625 0l-0.84375 -1.9375zm-0.515625 -1.234375l-1.59375 -3.671875l-1.5625 3.671875l3.15625 0zm9.550568 3.171875l-1.71875 -2.453125q-0.109375 0 -0.328125 0l-1.890625 0l0 2.453125l-1.5625 0l0 -8.40625l3.453125 0q1.09375 0 1.90625 0.359375q0.8125 0.359375 1.234375 1.03125q0.4375 0.671875 0.4375 1.609375q0 0.9375 -0.46875 1.625q-0.453125 0.6875 -1.3125 1.015625l1.921875 2.765625l-1.671875 0zm-0.03125 -5.40625q0 -0.8125 -0.53125 -1.234375q-0.53125 -0.4375 -1.546875 -0.4375l-1.828125 0l0 3.34375l1.828125 0q1.015625 0 1.546875 -0.4375q0.53125 -0.4375 0.53125 -1.234375zm6.808319 2.4375l0 2.96875l-1.5625 0l0 -2.9375l-3.296875 -5.46875l1.671875 0l2.453125 4.09375l2.484375 -4.09375l1.546875 0l-3.296875 5.4375z" fill-rule="nonzero"/><path fill="#000000" fill-opacity="0.0" d="m420.23883 365.86877l119.49609 0l0 53.5748l-119.49609 0z" fill-rule="evenodd"/><path fill="#4a729c" d="m457.8883 386.51376q-1.265625 0 -2.296875 -0.5625q-1.03125 -0.5625 -1.609375 -1.546875q-0.578125 -0.984375 -0.578125 -2.21875q0 -1.234375 0.578125 -2.21875q0.59375 -0.984375 1.609375 -1.53125q1.03125 -0.5625 2.3125 -0.5625q1.03125 0 1.875 0.359375q0.859375 0.359375 1.453125 1.046875l-1.015625 0.9375q-0.90625 -0.984375 -2.25 -0.984375q-0.859375 0 -1.546875 0.390625q-0.671875 0.375 -1.0625 1.046875q-0.390625 0.671875 -0.390625 1.515625q0 0.859375 0.390625 1.53125q0.390625 0.671875 1.0625 1.046875q0.6875 0.375 1.546875 0.375q1.34375 0 2.25 -1.0l1.015625 0.96875q-0.59375 0.6875 -1.453125 1.046875q-0.859375 0.359375 -1.890625 0.359375zm8.3828125 0q-1.734375 0 -2.703125 -0.984375q-0.96875 -0.984375 -0.96875 -2.796875l0 -4.75l1.546875 0l0 4.6875q0 2.46875 2.140625 2.46875q2.125 0 2.125 -2.46875l0 -4.6875l1.53125 0l0 4.75q0 1.8125 -0.96875 2.796875q-0.953125 0.984375 -2.703125 0.984375zm8.468079 0q-0.96875 0 -1.875 -0.28125q-0.90625 -0.28125 -1.4375 -0.734375l0.53125 -1.203125q0.515625 0.40625 1.265625 0.671875q0.75 0.25 1.515625 0.25q0.9375 0 1.390625 -0.296875q0.46875 -0.3125 0.46875 -0.796875q0 -0.359375 -0.265625 -0.59375q-0.25 -0.234375 -0.65625 -0.359375q-0.390625 -0.140625 -1.078125 -0.3125q-0.953125 -0.21875 -1.546875 -0.453125q-0.59375 -0.234375 -1.03125 -0.71875q-0.421875 -0.484375 -0.421875 -1.3125q0 -0.6875 0.375 -1.25q0.390625 -0.578125 1.140625 -0.90625q0.765625 -0.34375 1.875 -0.34375q0.765625 0 1.5 0.1875q0.75 0.1875 1.296875 0.546875l-0.5 1.21875q-0.546875 -0.328125 -1.15625 -0.484375q-0.59375 -0.171875 -1.15625 -0.171875q-0.921875 0 -1.375 0.3125q-0.453125 0.3125 -0.453125 0.828125q0 0.359375 0.25 0.59375q0.265625 0.21875 0.65625 0.359375q0.40625 0.125 1.09375 0.28125q0.9375 0.21875 1.53125 0.453125q0.609375 0.234375 1.03125 0.71875q0.421875 0.484375 0.421875 1.296875q0 0.6875 -0.375 1.265625q-0.375 0.5625 -1.140625 0.90625q-0.765625 0.328125 -1.875 0.328125zm6.5217896 -7.203125l-2.78125 0l0 -1.328125l7.125 0l0 1.328125l-2.78125 0l0 7.078125l-1.5625 0l0 -7.078125zm9.322815 7.203125q-1.28125 0 -2.3125 -0.5625q-1.03125 -0.5625 -1.625 -1.546875q-0.578125 -0.984375 -0.578125 -2.21875q0 -1.21875 0.578125 -2.203125q0.59375 -1.0 1.625 -1.546875q1.03125 -0.5625 2.3125 -0.5625q1.296875 0 2.328125 0.5625q1.03125 0.546875 1.609375 1.53125q0.59375 0.984375 0.59375 2.21875q0 1.234375 -0.59375 2.21875q-0.578125 0.984375 -1.609375 1.546875q-1.03125 0.5625 -2.328125 0.5625zm0 -1.375q0.84375 0 1.515625 -0.375q0.671875 -0.375 1.046875 -1.046875q0.390625 -0.6875 0.390625 -1.53125q0 -0.84375 -0.390625 -1.515625q-0.375 -0.671875 -1.046875 -1.046875q-0.671875 -0.390625 -1.515625 -0.390625q-0.828125 0 -1.5 0.390625q-0.671875 0.375 -1.0625 1.046875q-0.390625 0.671875 -0.390625 1.515625q0 0.84375 0.390625 1.53125q0.390625 0.671875 1.0625 1.046875q0.671875 0.375 1.5 0.375zm13.90094 1.25l-0.015625 -5.5625l-2.75 4.609375l-0.703125 0l-2.765625 -4.546875l0 5.5l-1.484375 0l0 -8.40625l1.28125 0l3.34375 5.578125l3.28125 -5.578125l1.28125 0l0 8.40625l-1.46875 0z" fill-rule="nonzero"/><path fill="#4a729c" d="m437.5027 393.31064l-2.78125 0l0 -1.328125l7.125 0l0 1.328125l-2.78125 0l0 7.078125l-1.5625 0l0 -7.078125zm11.020905 7.078125l-1.71875 -2.453125q-0.109375 0 -0.328125 0l-1.890625 0l0 2.453125l-1.5625 0l0 -8.40625l3.453125 0q1.09375 0 1.90625 0.359375q0.8125 0.359375 1.234375 1.03125q0.4375 0.671875 0.4375 1.609375q0 0.9375 -0.46875 1.625q-0.453125 0.6875 -1.3125 1.015625l1.921875 2.765625l-1.671875 0zm-0.03125 -5.40625q0 -0.8125 -0.53125 -1.234375q-0.53125 -0.4375 -1.546875 -0.4375l-1.828125 0l0 3.34375l1.828125 0q1.015625 0 1.546875 -0.4375q0.53125 -0.4375 0.53125 -1.234375zm8.756439 3.46875l-4.203125 0l-0.828125 1.9375l-1.609375 0l3.78125 -8.40625l1.53125 0l3.796875 8.40625l-1.625 0l-0.84375 -1.9375zm-0.515625 -1.234375l-1.59375 -3.671875l-1.5625 3.671875l3.15625 0zm11.519318 -5.234375l0 8.40625l-1.28125 0l-4.640625 -5.6875l0 5.6875l-1.546875 0l0 -8.40625l1.28125 0l4.640625 5.6875l0 -5.6875l1.546875 0zm4.8606873 8.53125q-0.96875 0 -1.875 -0.28125q-0.90625 -0.28125 -1.4375 -0.734375l0.53125 -1.203125q0.515625 0.40625 1.265625 0.671875q0.75 0.25 1.515625 0.25q0.9375 0 1.390625 -0.296875q0.46875 -0.3125 0.46875 -0.796875q0 -0.359375 -0.265625 -0.59375q-0.25 -0.234375 -0.65625 -0.359375q-0.390625 -0.140625 -1.078125 -0.3125q-0.953125 -0.21875 -1.546875 -0.453125q-0.59375 -0.234375 -1.03125 -0.71875q-0.421875 -0.484375 -0.421875 -1.3125q0 -0.6875 0.375 -1.25q0.390625 -0.578125 1.140625 -0.90625q0.765625 -0.34375 1.875 -0.34375q0.765625 0 1.5 0.1875q0.75 0.1875 1.296875 0.546875l-0.5 1.21875q-0.546875 -0.328125 -1.15625 -0.484375q-0.59375 -0.171875 -1.15625 -0.171875q-0.921875 0 -1.375 0.3125q-0.453125 0.3125 -0.453125 0.828125q0 0.359375 0.25 0.59375q0.265625 0.21875 0.65625 0.359375q0.40625 0.125 1.09375 0.28125q0.9375 0.21875 1.53125 0.453125q0.609375 0.234375 1.03125 0.71875q0.421875 0.484375 0.421875 1.296875q0 0.6875 -0.375 1.265625q-0.375 0.5625 -1.140625 0.90625q-0.765625 0.328125 -1.875 0.328125zm10.391815 -2.0625l-4.203125 0l-0.828125 1.9375l-1.609375 0l3.78125 -8.40625l1.53125 0l3.796875 8.40625l-1.625 0l-0.84375 -1.9375zm-0.515625 -1.234375l-1.59375 -3.671875l-1.5625 3.671875l3.15625 0zm7.8211975 3.296875q-1.265625 0 -2.296875 -0.5625q-1.03125 -0.5625 -1.609375 -1.546875q-0.578125 -0.984375 -0.578125 -2.21875q0 -1.234375 0.578125 -2.21875q0.59375 -0.984375 1.609375 -1.53125q1.03125 -0.5625 2.3125 -0.5625q1.03125 0 1.875 0.359375q0.859375 0.359375 1.453125 1.046875l-1.015625 0.9375q-0.90625 -0.984375 -2.25 -0.984375q-0.859375 0 -1.546875 0.390625q-0.671875 0.375 -1.0625 1.046875q-0.390625 0.671875 -0.390625 1.515625q0 0.859375 0.390625 1.53125q0.390625 0.671875 1.0625 1.046875q0.6875 0.375 1.546875 0.375q1.34375 0 2.25 -1.0l1.015625 0.96875q-0.59375 0.6875 -1.453125 1.046875q-0.859375 0.359375 -1.890625 0.359375zm6.4405518 -7.203125l-2.78125 0l0 -1.328125l7.125 0l0 1.328125l-2.78125 0l0 7.078125l-1.5625 0l0 -7.078125zm5.520935 -1.328125l1.5625 0l0 8.40625l-1.5625 0l0 -8.40625zm7.7499084 8.53125q-1.28125 0 -2.3125 -0.5625q-1.03125 -0.5625 -1.625 -1.546875q-0.578125 -0.984375 -0.578125 -2.21875q0 -1.21875 0.578125 -2.203125q0.59375 -1.0 1.625 -1.546875q1.03125 -0.5625 2.3125 -0.5625q1.296875 0 2.3280945 0.5625q1.03125 0.546875 1.609375 1.53125q0.59375 0.984375 0.59375 2.21875q0 1.234375 -0.59375 2.21875q-0.578125 0.984375 -1.609375 1.546875q-1.0312195 0.5625 -2.3280945 0.5625zm0 -1.375q0.84375 0 1.5155945 -0.375q0.671875 -0.375 1.046875 -1.046875q0.390625 -0.6875 0.390625 -1.53125q0 -0.84375 -0.390625 -1.515625q-0.375 -0.671875 -1.046875 -1.046875q-0.6718445 -0.390625 -1.5155945 -0.390625q-0.828125 0 -1.5 0.390625q-0.671875 0.375 -1.0625 1.046875q-0.390625 0.671875 -0.390625 1.515625q0 0.84375 0.390625 1.53125q0.390625 0.671875 1.0625 1.046875q0.671875 0.375 1.5 0.375zm13.650909 -7.15625l0 8.40625l-1.28125 0l-4.640625 -5.6875l0 5.6875l-1.546875 0l0 -8.40625l1.28125 0l4.640625 5.6875l0 -5.6875l1.546875 0z" fill-rule="nonzero"/><path fill="#4a729c" d="m461.4971 414.51376q-0.96875 0 -1.875 -0.28125q-0.90625 -0.28125 -1.4375 -0.734375l0.53125 -1.203125q0.515625 0.40625 1.265625 0.671875q0.75 0.25 1.515625 0.25q0.9375 0 1.390625 -0.296875q0.46875 -0.3125 0.46875 -0.796875q0 -0.359375 -0.265625 -0.59375q-0.25 -0.234375 -0.65625 -0.359375q-0.390625 -0.140625 -1.078125 -0.3125q-0.953125 -0.21875 -1.546875 -0.453125q-0.59375 -0.234375 -1.03125 -0.71875q-0.421875 -0.484375 -0.421875 -1.3125q0 -0.6875 0.375 -1.25q0.390625 -0.578125 1.140625 -0.90625q0.765625 -0.34375 1.875 -0.34375q0.765625 0 1.5 0.1875q0.75 0.1875 1.296875 0.546875l-0.5 1.21875q-0.546875 -0.328125 -1.15625 -0.484375q-0.59375 -0.171875 -1.15625 -0.171875q-0.921875 0 -1.375 0.3125q-0.453125 0.3125 -0.453125 0.828125q0 0.359375 0.25 0.59375q0.265625 0.21875 0.65625 0.359375q0.40625 0.125 1.09375 0.28125q0.9375 0.21875 1.53125 0.453125q0.609375 0.234375 1.03125 0.71875q0.421875 0.484375 0.421875 1.296875q0 0.6875 -0.375 1.265625q-0.375 0.5625 -1.140625 0.90625q-0.765625 0.328125 -1.875 0.328125zm8.829285 0q-1.265625 0 -2.296875 -0.5625q-1.03125 -0.5625 -1.609375 -1.546875q-0.578125 -0.984375 -0.578125 -2.21875q0 -1.234375 0.578125 -2.21875q0.59375 -0.984375 1.609375 -1.53125q1.03125 -0.5625 2.3125 -0.5625q1.03125 0 1.875 0.359375q0.859375 0.359375 1.453125 1.046875l-1.015625 0.9375q-0.90625 -0.984375 -2.25 -0.984375q-0.859375 0 -1.546875 0.390625q-0.671875 0.375 -1.0625 1.046875q-0.390625 0.671875 -0.390625 1.515625q0 0.859375 0.390625 1.53125q0.390625 0.671875 1.0625 1.046875q0.6875 0.375 1.546875 0.375q1.34375 0 2.25 -1.0l1.015625 0.96875q-0.59375 0.6875 -1.453125 1.046875q-0.859375 0.359375 -1.890625 0.359375zm10.333435 -0.125l-1.71875 -2.453125q-0.109375 0 -0.328125 0l-1.890625 0l0 2.453125l-1.5625 0l0 -8.40625l3.453125 0q1.09375 0 1.90625 0.359375q0.8125 0.359375 1.234375 1.03125q0.4375 0.671875 0.4375 1.609375q0 0.9375 -0.46875 1.625q-0.453125 0.6875 -1.3125 1.015625l1.921875 2.765625l-1.671875 0zm-0.03125 -5.40625q0 -0.8125 -0.53125 -1.234375q-0.53125 -0.4375 -1.546875 -0.4375l-1.828125 0l0 3.34375l1.828125 0q1.015625 0 1.546875 -0.4375q0.53125 -0.4375 0.53125 -1.234375zm3.3033142 -3.0l1.5625 0l0 8.40625l-1.5625 0l0 -8.40625zm7.2811584 0q1.09375 0 1.90625 0.359375q0.8125 0.359375 1.234375 1.03125q0.4375 0.671875 0.4375 1.609375q0 0.90625 -0.4375 1.59375q-0.421875 0.671875 -1.234375 1.03125q-0.8125 0.359375 -1.90625 0.359375l-1.890625 0l0 2.421875l-1.5625 0l0 -8.40625l3.453125 0zm-0.0625 4.65625q1.015625 0 1.546875 -0.421875q0.53125 -0.4375 0.53125 -1.234375q0 -0.8125 -0.53125 -1.234375q-0.53125 -0.4375 -1.546875 -0.4375l-1.828125 0l0 3.328125l1.828125 0zm6.6645813 -3.328125l-2.78125 0l0 -1.328125l7.125 0l0 1.328125l-2.78125 0l0 7.078125l-1.5625 0l0 -7.078125z" fill-rule="nonzero"/><path fill="#000000" fill-opacity="0.0" d="m576.18634 371.88452l119.49609 0l0 41.543304l-119.49609 0z" fill-rule="evenodd"/><path fill="#4a729c" d="m613.8358 392.5295q-1.265625 0 -2.296875 -0.5625q-1.03125 -0.5625 -1.609375 -1.546875q-0.578125 -0.984375 -0.578125 -2.21875q0 -1.234375 0.578125 -2.21875q0.59375 -0.984375 1.609375 -1.53125q1.03125 -0.5625 2.3125 -0.5625q1.03125 0 1.875 0.359375q0.859375 0.359375 1.453125 1.046875l-1.015625 0.9375q-0.90625 -0.984375 -2.25 -0.984375q-0.859375 0 -1.546875 0.390625q-0.671875 0.375 -1.0625 1.046875q-0.390625 0.671875 -0.390625 1.515625q0 0.859375 0.390625 1.53125q0.390625 0.671875 1.0625 1.046875q0.6875 0.375 1.546875 0.375q1.34375 0 2.25 -1.0l1.015625 0.96875q-0.59375 0.6875 -1.453125 1.046875q-0.859375 0.359375 -1.890625 0.359375zm8.3828125 0q-1.734375 0 -2.703125 -0.984375q-0.96875 -0.984375 -0.96875 -2.796875l0 -4.75l1.546875 0l0 4.6875q0 2.46875 2.140625 2.46875q2.125 0 2.125 -2.46875l0 -4.6875l1.53125 0l0 4.75q0 1.8125 -0.96875 2.796875q-0.953125 0.984375 -2.703125 0.984375zm8.468079 0q-0.96875 0 -1.875 -0.28125q-0.90625 -0.28125 -1.4375 -0.734375l0.53125 -1.203125q0.515625 0.40625 1.265625 0.671875q0.75 0.25 1.515625 0.25q0.9375 0 1.390625 -0.296875q0.46875 -0.3125 0.46875 -0.796875q0 -0.359375 -0.265625 -0.59375q-0.25 -0.234375 -0.65625 -0.359375q-0.390625 -0.140625 -1.078125 -0.3125q-0.953125 -0.21875 -1.546875 -0.453125q-0.59375 -0.234375 -1.03125 -0.71875q-0.421875 -0.484375 -0.421875 -1.3125q0 -0.6875 0.375 -1.25q0.390625 -0.578125 1.140625 -0.90625q0.765625 -0.34375 1.875 -0.34375q0.765625 0 1.5 0.1875q0.75 0.1875 1.296875 0.546875l-0.5 1.21875q-0.546875 -0.328125 -1.15625 -0.484375q-0.59375 -0.171875 -1.15625 -0.171875q-0.921875 0 -1.375 0.3125q-0.453125 0.3125 -0.453125 0.828125q0 0.359375 0.25 0.59375q0.265625 0.21875 0.65625 0.359375q0.40625 0.125 1.09375 0.28125q0.9375 0.21875 1.53125 0.453125q0.609375 0.234375 1.03125 0.71875q0.421875 0.484375 0.421875 1.296875q0 0.6875 -0.375 1.265625q-0.375 0.5625 -1.140625 0.90625q-0.765625 0.328125 -1.875 0.328125zm6.5217896 -7.203125l-2.78125 0l0 -1.328125l7.125 0l0 1.328125l-2.78125 0l0 7.078125l-1.5625 0l0 -7.078125zm9.322815 7.203125q-1.28125 0 -2.3125 -0.5625q-1.03125 -0.5625 -1.625 -1.546875q-0.578125 -0.984375 -0.578125 -2.21875q0 -1.21875 0.578125 -2.203125q0.59375 -1.0 1.625 -1.546875q1.03125 -0.5625 2.3125 -0.5625q1.296875 0 2.328125 0.5625q1.03125 0.546875 1.609375 1.53125q0.59375 0.984375 0.59375 2.21875q0 1.234375 -0.59375 2.21875q-0.578125 0.984375 -1.609375 1.546875q-1.03125 0.5625 -2.328125 0.5625zm0 -1.375q0.84375 0 1.515625 -0.375q0.671875 -0.375 1.046875 -1.046875q0.390625 -0.6875 0.390625 -1.53125q0 -0.84375 -0.390625 -1.515625q-0.375 -0.671875 -1.046875 -1.046875q-0.671875 -0.390625 -1.515625 -0.390625q-0.828125 0 -1.5 0.390625q-0.671875 0.375 -1.0625 1.046875q-0.390625 0.671875 -0.390625 1.515625q0 0.84375 0.390625 1.53125q0.390625 0.671875 1.0625 1.046875q0.671875 0.375 1.5 0.375zm13.90094 1.25l-0.015625 -5.5625l-2.75 4.609375l-0.703125 0l-2.765625 -4.546875l0 5.5l-1.484375 0l0 -8.40625l1.28125 0l3.34375 5.578125l3.28125 -5.578125l1.28125 0l0 8.40625l-1.46875 0z" fill-rule="nonzero"/><path fill="#4a729c" d="m616.69196 406.4045l-0.015625 -5.5625l-2.75 4.609375l-0.703125 0l-2.765625 -4.546875l0 5.5l-1.484375 0l0 -8.40625l1.28125 0l3.34375 5.578125l3.28125 -5.578125l1.28125 0l0 8.40625l-1.46875 0zm7.663208 0.125q-1.28125 0 -2.3125 -0.5625q-1.03125 -0.5625 -1.625 -1.546875q-0.578125 -0.984375 -0.578125 -2.21875q0 -1.21875 0.578125 -2.203125q0.59375 -1.0 1.625 -1.546875q1.03125 -0.5625 2.3125 -0.5625q1.296875 0 2.328125 0.5625q1.03125 0.546875 1.609375 1.53125q0.59375 0.984375 0.59375 2.21875q0 1.234375 -0.59375 2.21875q-0.578125 0.984375 -1.609375 1.546875q-1.03125 0.5625 -2.328125 0.5625zm0 -1.375q0.84375 0 1.515625 -0.375q0.671875 -0.375 1.046875 -1.046875q0.390625 -0.6875 0.390625 -1.53125q0 -0.84375 -0.390625 -1.515625q-0.375 -0.671875 -1.046875 -1.046875q-0.671875 -0.390625 -1.515625 -0.390625q-0.828125 0 -1.5 0.390625q-0.671875 0.375 -1.0625 1.046875q-0.390625 0.671875 -0.390625 1.515625q0 0.84375 0.390625 1.53125q0.390625 0.671875 1.0625 1.046875q0.671875 0.375 1.5 0.375zm6.18219 -7.15625l3.671875 0q1.34375 0 2.390625 0.53125q1.046875 0.515625 1.625 1.46875q0.578125 0.953125 0.578125 2.203125q0 1.25 -0.578125 2.203125q-0.578125 0.953125 -1.625 1.484375q-1.046875 0.515625 -2.390625 0.515625l-3.671875 0l0 -8.40625zm3.609375 7.09375q0.921875 0 1.625 -0.359375q0.703125 -0.359375 1.078125 -1.015625q0.375 -0.65625 0.375 -1.515625q0 -0.859375 -0.375 -1.515625q-0.375 -0.65625 -1.078125 -1.0q-0.703125 -0.359375 -1.625 -0.359375l-2.046875 0l0 5.765625l2.046875 0zm9.912048 1.4375q-1.734375 0 -2.703125 -0.984375q-0.96875 -0.984375 -0.96875 -2.796875l0 -4.75l1.546875 0l0 4.6875q0 2.46875 2.140625 2.46875q2.125 0 2.125 -2.46875l0 -4.6875l1.53125 0l0 4.75q0 1.8125 -0.96875 2.796875q-0.953125 0.984375 -2.703125 0.984375zm5.8587036 -8.53125l1.5625 0l0 7.09375l4.390625 0l0 1.3125l-5.953125 0l0 -8.40625zm13.484924 7.09375l0 1.3125l-6.296875 0l0 -8.40625l6.140625 0l0 1.3125l-4.578125 0l0 2.1875l4.0625 0l0 1.28125l-4.0625 0l0 2.3125l4.734375 0z" fill-rule="nonzero"/><path fill="#000000" fill-opacity="0.0" d="m480.0 595.2021l0 25.000061l0.06298828 0l0 -151.14178" fill-rule="evenodd"/><path stroke="#cccccc" stroke-width="1.0" stroke-linejoin="round" stroke-linecap="butt" d="m480.0 601.2021l0 19.000061l0.06298828 0l0 -151.14178" fill-rule="evenodd"/><path fill="#cccccc" stroke="#cccccc" stroke-width="1.0" stroke-linecap="butt" d="m481.65173 601.2021l-1.6517334 -4.538086l-1.6517334 4.538086z" fill-rule="evenodd"/></g></svg>