<svg version="1.1" viewBox="0.0 0.0 960.0 540.0" fill="none" stroke="none" stroke-linecap="square" stroke-miterlimit="10" xmlns:xlink="http://www.w3.org/1999/xlink" xmlns="http://www.w3.org/2000/svg"><clipPath id="g8a65174a65_2_91.0"><path d="m0 0l960.0 0l0 540.0l-960.0 0l0 -540.0z" clip-rule="nonzero"/></clipPath><g clip-path="url(#g8a65174a65_2_91.0)"><path fill="#f3f4fb" d="m0 0l960.0 0l0 540.0l-960.0 0z" fill-rule="evenodd"/><path fill="#bceeff" d="m273.5013 107.9461l0 0c0 -6.162781 4.9959106 -11.158699 11.158691 -11.158699l193.7771 0c2.9594727 0 5.7977295 1.1756439 7.890381 3.2683105c2.092682 2.092659 3.2683105 4.930916 3.2683105 7.8903885l0 126.56449c0 6.162781 -4.9959106 11.158707 -11.158691 11.158707l-193.7771 0c-6.162781 0 -11.158691 -4.995926 -11.158691 -11.158707z" fill-rule="evenodd"/><path fill="#000000" fill-opacity="0.0" d="m381.54855 96.7874l0 -175.41733l64.47244 0l0 -175.41733" fill-rule="evenodd"/><path stroke="#999999" stroke-width="1.0" stroke-linejoin="round" stroke-linecap="butt" stroke-dasharray="1.0,3.0" d="m381.54855 90.7874l0 -169.41733l64.47244 0l0 -175.41733" fill-rule="evenodd"/><path fill="#999999" stroke="#999999" stroke-width="1.0" stroke-linecap="butt" d="m379.89682 90.7874l1.6517334 4.538101l1.6517334 -4.538101z" fill-rule="evenodd"/><path fill="#c8e4ff" d="m273.5 556.52325l0 0c0 -1.628418 1.3200684 -2.9484253 2.9484253 -2.9484253l90.10315 0c0.7819824 0 1.5319214 0.3106079 2.0848389 0.8635254c0.552948 0.5529785 0.8635864 1.3029175 0.8635864 2.0849l0 33.44171c0 1.6283569 -1.3200684 2.9484253 -2.9484253 2.9484253l-90.10315 0c-1.6283569 0 -2.9484253 -1.3200684 -2.9484253 -2.9484253z" fill-rule="evenodd"/><path fill="#c8e4ff" d="m772.6333 156.58783l0 0c0 -6.1692963 5.0011597 -11.170502 11.170471 -11.170502l126.698364 0c2.9625854 0 5.803894 1.1768799 7.8987427 3.271759c2.0948486 2.0948792 3.2717896 4.936142 3.2717896 7.8987427l0 275.64325c0 6.169281 -5.0012207 11.170502 -11.170532 11.170502l-126.698364 0c-6.1693115 0 -11.170471 -5.0012207 -11.170471 -11.170502z" fill-rule="evenodd"/><path fill="#000000" fill-opacity="0.0" d="m847.15295 145.41733l0 -25.000061l-117.551636 0l0 50.826828l-43.046814 0" fill-rule="evenodd"/><path stroke="#999999" stroke-width="1.0" stroke-linejoin="round" stroke-linecap="butt" stroke-dasharray="1.0,3.0" d="m847.15295 139.41733l0 -19.000069l-117.551636 0l0 50.826836l-43.046753 0" fill-rule="evenodd"/><path fill="#999999" stroke="#999999" stroke-width="1.0" stroke-linecap="butt" d="m845.5012 139.41733l1.6517334 4.538086l1.6517334 -4.538086z" fill-rule="evenodd"/><path fill="#bceeff" d="m366.3504 107.9461l0 0c0 -6.162781 4.9959106 -11.158699 11.158691 -11.158699l193.7771 0c2.9594727 0 5.7977295 1.1756439 7.890381 3.2683105c2.0926514 2.092659 3.2683105 4.930916 3.2683105 7.8903885l0 126.56449c0 6.162781 -4.9959106 11.158707 -11.158691 11.158707l-193.7771 0c-6.162781 0 -11.158691 -4.995926 -11.158691 -11.158707z" fill-rule="evenodd"/><path fill="#bceeff" d="m470.47507 107.9461l0 0c0 -6.162781 4.9959106 -11.158699 11.158691 -11.158699l193.77707 0c2.9594727 0 5.7977295 1.1756439 7.890442 3.2683105c2.0926514 2.092659 3.2683105 4.930916 3.2683105 7.8903885l0 126.56449c0 6.162781 -4.9959717 11.158707 -11.158752 11.158707l-193.77707 0c-6.162781 0 -11.158691 -4.995926 -11.158691 -11.158707z" fill-rule="evenodd"/><path fill="#000000" fill-opacity="0.0" d="m345.07086 98.09318l269.92126 0l0 46.01574l-269.92126 0z" fill-rule="evenodd"/><path fill="#4a729c" d="m430.21756 117.2148l-3.671875 8.40625l-1.53125 0l-3.671875 -8.40625l1.6875 0l2.796875 6.484375l2.828125 -6.484375l1.5625 0zm0.8805847 0l1.5625 0l0 8.40625l-1.5625 0l0 -8.40625zm9.328033 8.40625l-1.71875 -2.453125q-0.109375 0 -0.328125 0l-1.890625 0l0 2.453125l-1.5625 0l0 -8.40625l3.453125 0q1.09375 0 1.90625 0.359375q0.8125 0.359375 1.234375 1.03125q0.4375 0.671875 0.4375 1.609375q0 0.9375 -0.46875 1.625q-0.453125 0.6875 -1.3125 1.015625l1.921875 2.765625l-1.671875 0zm-0.03125 -5.40625q0 -0.8125 -0.53125 -1.234375q-0.53125 -0.4375 -1.546875 -0.4375l-1.828125 0l0 3.34375l1.828125 0q1.015625 0 1.546875 -0.4375q0.53125 -0.4375 0.53125 -1.234375zm4.886444 -1.671875l-2.78125 0l0 -1.328125l7.125 0l0 1.328125l-2.78125 0l0 7.078125l-1.5625 0l0 -7.078125zm8.974274 7.203125q-1.734375 0 -2.703125 -0.984375q-0.96875 -0.984375 -0.96875 -2.796875l0 -4.75l1.546875 0l0 4.6875q0 2.46875 2.140625 2.46875q2.125 0 2.125 -2.46875l0 -4.6875l1.53125 0l0 4.75q0 1.8125 -0.96875 2.796875q-0.953125 0.984375 -2.703125 0.984375zm11.131836 -2.0625l-4.203125 0l-0.828125 1.9375l-1.609375 0l3.78125 -8.40625l1.53125 0l3.796875 8.40625l-1.625 0l-0.84375 -1.9375zm-0.515625 -1.234375l-1.59375 -3.671875l-1.5625 3.671875l3.15625 0zm4.0505676 -5.234375l1.5625 0l0 7.09375l4.390625 0l0 1.3125l-5.953125 0l0 -8.40625zm18.218811 8.40625l-0.015625 -5.5625l-2.75 4.609375l-0.703125 0l-2.765625 -4.546875l0 5.5l-1.484375 0l0 -8.40625l1.28125 0l3.34375 5.578125l3.28125 -5.578125l1.28125 0l0 8.40625l-1.46875 0zm9.194458 -1.9375l-4.203125 0l-0.828125 1.9375l-1.609375 0l3.78125 -8.40625l1.53125 0l3.796875 8.40625l-1.625 0l-0.84375 -1.9375zm-0.515625 -1.234375l-1.59375 -3.671875l-1.5625 3.671875l3.15625 0zm7.8211975 3.296875q-1.265625 0 -2.296875 -0.5625q-1.03125 -0.5625 -1.609375 -1.546875q-0.578125 -0.984375 -0.578125 -2.21875q0 -1.234375 0.578125 -2.21875q0.59375 -0.984375 1.609375 -1.53125q1.03125 -0.5625 2.3125 -0.5625q1.03125 0 1.875 0.359375q0.859375 0.359375 1.453125 1.046875l-1.015625 0.9375q-0.90625 -0.984375 -2.25 -0.984375q-0.859375 0 -1.546875 0.390625q-0.671875 0.375 -1.0625 1.046875q-0.390625 0.671875 -0.390625 1.515625q0 0.859375 0.390625 1.53125q0.390625 0.671875 1.0625 1.046875q0.6875 0.375 1.546875 0.375q1.34375 0 2.25 -1.0l1.015625 0.96875q-0.59375 0.6875 -1.453125 1.046875q-0.859375 0.359375 -1.890625 0.359375zm12.302216 -8.53125l0 8.40625l-1.5625 0l0 -3.59375l-4.3437805 0l0 3.59375l-1.5625 0l0 -8.40625l1.5625 0l0 3.46875l4.3437805 0l0 -3.46875l1.5625 0zm2.2512817 0l1.5625 0l0 8.40625l-1.5625 0l0 -8.40625zm11.296814 0l0 8.40625l-1.28125 0l-4.640625 -5.6875l0 5.6875l-1.546875 0l0 -8.40625l1.28125 0l4.640625 5.6875l0 -5.6875l1.546875 0zm8.548157 7.09375l0 1.3125l-6.296875 0l0 -8.40625l6.140625 0l0 1.3125l-4.578125 0l0 2.1875l4.0625 0l0 1.28125l-4.0625 0l0 2.3125l4.734375 0z" fill-rule="nonzero"/><path fill="#000000" fill-opacity="0.0" d="m578.52234 96.7874l0 -183.9685l49.88971 0l0 -183.9685" fill-rule="evenodd"/><path stroke="#999999" stroke-width="1.0" stroke-linejoin="round" stroke-linecap="butt" stroke-dasharray="1.0,3.0" d="m578.52234 90.7874l0 -177.9685l49.88971 0l0 -183.9685" fill-rule="evenodd"/><path fill="#999999" stroke="#999999" stroke-width="1.0" stroke-linecap="butt" d="m576.8706 90.7874l1.6517334 4.538101l1.6517334 -4.538101z" fill-rule="evenodd"/><path fill="#92b4d8" d="m284.32767 151.74617l0 0c0 -3.4953308 2.8335266 -6.328842 6.328827 -6.328842l106.83838 0c1.6785278 0 3.288269 0.66677856 4.4751587 1.8536682c1.1868896 1.1868896 1.8536987 2.7966614 1.8536987 4.475174l0 71.78325c0 3.4953308 -2.8335266 6.328842 -6.3288574 6.328842l-106.83838 0c-3.4953003 0 -6.328827 -2.8335114 -6.328827 -6.328842z" fill-rule="evenodd"/><path fill="#000000" fill-opacity="0.0" d="m284.3281 166.86613l119.49606 0l0 41.54332l-119.49606 0z" fill-rule="evenodd"/><path fill="#4a729c" d="m301.6888 183.75154l1.5625 0l0 8.40625l-1.5625 0l0 -8.40625zm11.296783 0l0 8.40625l-1.28125 0l-4.640625 -5.6875l0 5.6875l-1.546875 0l0 -8.40625l1.28125 0l4.640625 5.6875l0 -5.6875l1.546875 0zm3.9544373 1.328125l-2.78125 0l0 -1.328125l7.125 0l0 1.328125l-2.78125 0l0 7.078125l-1.5625 0l0 -7.078125zm11.81778 5.765625l0 1.3125l-6.296875 0l0 -8.40625l6.140625 0l0 1.3125l-4.578125 0l0 2.1875l4.0625 0l0 1.28125l-4.0625 0l0 2.3125l4.734375 0zm7.2431946 1.3125l-1.71875 -2.453125q-0.109375 0 -0.328125 0l-1.890625 0l0 2.453125l-1.5625 0l0 -8.40625l3.453125 0q1.09375 0 1.90625 0.359375q0.8125 0.359375 1.234375 1.03125q0.4375 0.671875 0.4375 1.609375q0 0.9375 -0.46875 1.625q-0.453125 0.6875 -1.3125 1.015625l1.921875 2.765625l-1.671875 0zm-0.03125 -5.40625q0 -0.8125 -0.53125 -1.234375q-0.53125 -0.4375 -1.546875 -0.4375l-1.828125 0l0 3.34375l1.828125 0q1.015625 0 1.546875 -0.4375q0.53125 -0.4375 0.53125 -1.234375zm6.756439 -3.0q1.09375 0 1.90625 0.359375q0.8125 0.359375 1.234375 1.03125q0.4375 0.671875 0.4375 1.609375q0 0.90625 -0.4375 1.59375q-0.421875 0.671875 -1.234375 1.03125q-0.8125 0.359375 -1.90625 0.359375l-1.890625 0l0 2.421875l-1.5625 0l0 -8.40625l3.453125 0zm-0.0625 4.65625q1.015625 0 1.546875 -0.421875q0.53125 -0.4375 0.53125 -1.234375q0 -0.8125 -0.53125 -1.234375q-0.53125 -0.4375 -1.546875 -0.4375l-1.828125 0l0 3.328125l1.828125 0zm10.701447 3.75l-1.71875 -2.453125q-0.109375 0 -0.328125 0l-1.890625 0l0 2.453125l-1.5625 0l0 -8.40625l3.453125 0q1.09375 0 1.90625 0.359375q0.8125 0.359375 1.234375 1.03125q0.4375 0.671875 0.4375 1.609375q0 0.9375 -0.46875 1.625q-0.453125 0.6875 -1.3125 1.015625l1.921875 2.765625l-1.671875 0zm-0.03125 -5.40625q0 -0.8125 -0.53125 -1.234375q-0.53125 -0.4375 -1.546875 -0.4375l-1.828125 0l0 3.34375l1.828125 0q1.015625 0 1.546875 -0.4375q0.53125 -0.4375 0.53125 -1.234375zm9.600189 4.09375l0 1.3125l-6.296875 0l0 -8.40625l6.140625 0l0 1.3125l-4.578125 0l0 2.1875l4.0625 0l0 1.28125l-4.0625 0l0 2.3125l4.734375 0zm3.446289 -5.765625l-2.78125 0l0 -1.328125l7.125 0l0 1.328125l-2.78125 0l0 7.078125l-1.5625 0l0 -7.078125zm11.81781 5.765625l0 1.3125l-6.296875 0l0 -8.40625l6.140625 0l0 1.3125l-4.578125 0l0 2.1875l4.0625 0l0 1.28125l-4.0625 0l0 2.3125l4.734375 0zm7.243164 1.3125l-1.71875 -2.453125q-0.109375 0 -0.328125 0l-1.890625 0l0 2.453125l-1.5625 0l0 -8.40625l3.453125 0q1.09375 0 1.90625 0.359375q0.8125 0.359375 1.234375 1.03125q0.4375 0.671875 0.4375 1.609375q0 0.9375 -0.46875 1.625q-0.453125 0.6875 -1.3125 1.015625l1.921875 2.765625l-1.671875 0zm-0.03125 -5.40625q0 -0.8125 -0.53125 -1.234375q-0.53125 -0.4375 -1.546875 -0.4375l-1.828125 0l0 3.34375l1.828125 0q1.015625 0 1.546875 -0.4375q0.53125 -0.4375 0.53125 -1.234375z" fill-rule="nonzero"/><path fill="#92b4d8" d="m414.65048 151.74617l0 0c0 -3.4953308 2.8335266 -6.328842 6.3288574 -6.328842l106.83835 0c1.6785278 0 3.28833 0.66677856 4.4752197 1.8536682c1.1868896 1.1868896 1.8536377 2.7966614 1.8536377 4.475174l0 71.78325c0 3.4953308 -2.833496 6.328842 -6.3288574 6.328842l-106.83835 0c-3.4953308 0 -6.3288574 -2.8335114 -6.3288574 -6.328842z" fill-rule="evenodd"/><path fill="#000000" fill-opacity="0.0" d="m414.6509 166.86613l119.49606 0l0 41.54332l-119.49606 0z" fill-rule="evenodd"/><path fill="#4a729c" d="m447.18085 180.78279q0.703125 0.234375 1.109375 0.765625q0.40625 0.53125 0.40625 1.328125q0 1.09375 -0.84375 1.6875q-0.84375 0.59375 -2.453125 0.59375l-4.171875 0l0 -8.40625l3.9375 0q1.484375 0 2.28125 0.59375q0.8125 0.578125 0.8125 1.59375q0 0.625 -0.296875 1.109375q-0.28125 0.484375 -0.78125 0.734375zm-4.390625 -2.796875l0 2.3125l2.203125 0q0.828125 0 1.265625 -0.296875q0.4375 -0.296875 0.4375 -0.859375q0 -0.578125 -0.4375 -0.859375q-0.4375 -0.296875 -1.265625 -0.296875l-2.203125 0zm2.515625 5.953125q1.8125 0 1.8125 -1.21875q0 -1.203125 -1.8125 -1.203125l-2.515625 0l0 2.421875l2.515625 0zm8.498932 -1.75l0 2.96875l-1.5625 0l0 -2.9375l-3.296875 -5.46875l1.671875 0l2.453125 4.09375l2.484375 -4.09375l1.546875 0l-3.296875 5.4375zm5.8901978 -4.109375l-2.78125 0l0 -1.328125l7.125 0l0 1.328125l-2.78125 0l0 7.078125l-1.5625 0l0 -7.078125zm11.81778 5.765625l0 1.3125l-6.296875 0l0 -8.40625l6.140625 0l0 1.3125l-4.578125 0l0 2.1875l4.0625 0l0 1.28125l-4.0625 0l0 2.3125l4.734375 0zm5.597809 1.4375q-1.265625 0 -2.296875 -0.5625q-1.03125 -0.5625 -1.609375 -1.546875q-0.578125 -0.984375 -0.578125 -2.21875q0 -1.234375 0.578125 -2.21875q0.59375 -0.984375 1.609375 -1.53125q1.03125 -0.5625 2.3125 -0.5625q1.03125 0 1.875 0.359375q0.859375 0.359375 1.453125 1.046875l-1.015625 0.9375q-0.90625 -0.984375 -2.25 -0.984375q-0.859375 0 -1.546875 0.390625q-0.671875 0.375 -1.0625 1.046875q-0.390625 0.671875 -0.390625 1.515625q0 0.859375 0.390625 1.53125q0.390625 0.671875 1.0625 1.046875q0.6875 0.375 1.546875 0.375q1.34375 0 2.25 -1.0l1.015625 0.96875q-0.59375 0.6875 -1.453125 1.046875q-0.859375 0.359375 -1.890625 0.359375zm8.575317 0q-1.28125 0 -2.3125 -0.5625q-1.03125 -0.5625 -1.625 -1.546875q-0.578125 -0.984375 -0.578125 -2.21875q0 -1.21875 0.578125 -2.203125q0.59375 -1.0 1.625 -1.546875q1.03125 -0.5625 2.3125 -0.5625q1.296875 0 2.328125 0.5625q1.03125 0.546875 1.609375 1.53125q0.59375 0.984375 0.59375 2.21875q0 1.234375 -0.59375 2.21875q-0.578125 0.984375 -1.609375 1.546875q-1.03125 0.5625 -2.328125 0.5625zm0 -1.375q0.84375 0 1.515625 -0.375q0.671875 -0.375 1.046875 -1.046875q0.390625 -0.6875 0.390625 -1.53125q0 -0.84375 -0.390625 -1.515625q-0.375 -0.671875 -1.046875 -1.046875q-0.671875 -0.390625 -1.515625 -0.390625q-0.828125 0 -1.5 0.390625q-0.671875 0.375 -1.0625 1.046875q-0.390625 0.671875 -0.390625 1.515625q0 0.84375 0.390625 1.53125q0.390625 0.671875 1.0625 1.046875q0.671875 0.375 1.5 0.375zm6.18219 -7.15625l3.671875 0q1.34375 0 2.390625 0.53125q1.046875 0.515625 1.625 1.46875q0.578125 0.953125 0.578125 2.203125q0 1.25 -0.578125 2.203125q-0.578125 0.953125 -1.625 1.484375q-1.046875 0.515625 -2.390625 0.515625l-3.671875 0l0 -8.40625zm3.609375 7.09375q0.921875 0 1.625 -0.359375q0.703125 -0.359375 1.078125 -1.015625q0.375 -0.65625 0.375 -1.515625q0 -0.859375 -0.375 -1.515625q-0.375 -0.65625 -1.078125 -1.0q-0.703125 -0.359375 -1.625 -0.359375l-2.046875 0l0 5.765625l2.046875 0zm12.599579 0l0 1.3125l-6.296875 0l0 -8.40625l6.140625 0l0 1.3125l-4.578125 0l0 2.1875l4.0625 0l0 1.28125l-4.0625 0l0 2.3125l4.734375 0z" fill-rule="nonzero"/><path fill="#4a729c" d="m454.46524 190.75154l-3.671875 8.40625l-1.53125 0l-3.671875 -8.40625l1.6875 0l2.796875 6.484375l2.828125 -6.484375l1.5625 0zm7.177429 7.09375l0 1.3125l-6.296875 0l0 -8.40625l6.140625 0l0 1.3125l-4.578125 0l0 2.1875l4.0625 0l0 1.28125l-4.0625 0l0 2.3125l4.734375 0zm7.2431946 1.3125l-1.71875 -2.453125q-0.109375 0 -0.328125 0l-1.890625 0l0 2.453125l-1.5625 0l0 -8.40625l3.453125 0q1.09375 0 1.90625 0.359375q0.8125 0.359375 1.234375 1.03125q0.4375 0.671875 0.4375 1.609375q0 0.9375 -0.46875 1.625q-0.453125 0.6875 -1.3125 1.015625l1.921875 2.765625l-1.671875 0zm-0.03125 -5.40625q0 -0.8125 -0.53125 -1.234375q-0.53125 -0.4375 -1.546875 -0.4375l-1.828125 0l0 3.34375l1.828125 0q1.015625 0 1.546875 -0.4375q0.53125 -0.4375 0.53125 -1.234375zm3.3033142 -3.0l1.5625 0l0 8.40625l-1.5625 0l0 -8.40625zm5.3905334 1.3125l0 2.5625l4.0625 0l0 1.3125l-4.0625 0l0 3.21875l-1.5625 0l0 -8.40625l6.140625 0l0 1.3125l-4.578125 0zm6.081543 -1.3125l1.5625 0l0 8.40625l-1.5625 0l0 -8.40625zm10.124908 7.09375l0 1.3125l-6.296875 0l0 -8.40625l6.140625 0l0 1.3125l-4.578125 0l0 2.1875l4.0625 0l0 1.28125l-4.0625 0l0 2.3125l4.734375 0zm7.2431946 1.3125l-1.71875 -2.453125q-0.109375 0 -0.328125 0l-1.890625 0l0 2.453125l-1.5625 0l0 -8.40625l3.453125 0q1.09375 0 1.90625 0.359375q0.8125 0.359375 1.234375 1.03125q0.4375 0.671875 0.4375 1.609375q0 0.9375 -0.46875 1.625q-0.453125 0.6875 -1.3125 1.015625l1.921875 2.765625l-1.671875 0zm-0.03125 -5.40625q0 -0.8125 -0.53125 -1.234375q-0.53125 -0.4375 -1.546875 -0.4375l-1.828125 0l0 3.34375l1.828125 0q1.015625 0 1.546875 -0.4375q0.53125 -0.4375 0.53125 -1.234375z" fill-rule="nonzero"/><path fill="#92b4d8" d="m544.9733 151.74617l0 0c0 -3.4953308 2.833496 -6.328842 6.3288574 -6.328842l106.83838 0c1.6784668 0 3.288269 0.66677856 4.4751587 1.8536682c1.1868896 1.1868896 1.8536377 2.7966614 1.8536377 4.475174l0 71.78325c0 3.4953308 -2.833496 6.328842 -6.3287964 6.328842l-106.83838 0c-3.4953613 0 -6.3288574 -2.8335114 -6.3288574 -6.328842z" fill-rule="evenodd"/><path fill="#000000" fill-opacity="0.0" d="m544.97375 166.86613l119.49603 0l0 41.54332l-119.49603 0z" fill-rule="evenodd"/><path fill="#4a729c" d="m579.4826 183.75154l1.5625 0l0 7.09375l4.390625 0l0 1.3125l-5.953125 0l0 -8.40625zm10.953918 8.53125q-1.28125 0 -2.3125 -0.5625q-1.03125 -0.5625 -1.625 -1.546875q-0.578125 -0.984375 -0.578125 -2.21875q0 -1.21875 0.578125 -2.203125q0.59375 -1.0 1.625 -1.546875q1.03125 -0.5625 2.3125 -0.5625q1.296875 0 2.328125 0.5625q1.03125 0.546875 1.609375 1.53125q0.59375 0.984375 0.59375 2.21875q0 1.234375 -0.59375 2.21875q-0.578125 0.984375 -1.609375 1.546875q-1.03125 0.5625 -2.328125 0.5625zm0 -1.375q0.84375 0 1.515625 -0.375q0.671875 -0.375 1.046875 -1.046875q0.390625 -0.6875 0.390625 -1.53125q0 -0.84375 -0.390625 -1.515625q-0.375 -0.671875 -1.046875 -1.046875q-0.671875 -0.390625 -1.515625 -0.390625q-0.828125 0 -1.5 0.390625q-0.671875 0.375 -1.0625 1.046875q-0.390625 0.671875 -0.390625 1.515625q0 0.84375 0.390625 1.53125q0.390625 0.671875 1.0625 1.046875q0.671875 0.375 1.5 0.375zm11.51532 -0.6875l-4.203125 0l-0.828125 1.9375l-1.609375 0l3.78125 -8.40625l1.53125 0l3.796875 8.40625l-1.625 0l-0.84375 -1.9375zm-0.515625 -1.234375l-1.59375 -3.671875l-1.5625 3.671875l3.15625 0zm4.050537 -5.234375l3.671875 0q1.34375 0 2.390625 0.53125q1.046875 0.515625 1.625 1.46875q0.578125 0.953125 0.578125 2.203125q0 1.25 -0.578125 2.203125q-0.578125 0.953125 -1.625 1.484375q-1.046875 0.515625 -2.390625 0.515625l-3.671875 0l0 -8.40625zm3.609375 7.09375q0.921875 0 1.625 -0.359375q0.703125 -0.359375 1.078125 -1.015625q0.375 -0.65625 0.375 -1.515625q0 -0.859375 -0.375 -1.515625q-0.375 -0.65625 -1.078125 -1.0q-0.703125 -0.359375 -1.625 -0.359375l-2.046875 0l0 5.765625l2.046875 0zm12.599609 0l0 1.3125l-6.296875 0l0 -8.40625l6.140625 0l0 1.3125l-4.578125 0l0 2.1875l4.0625 0l0 1.28125l-4.0625 0l0 2.3125l4.734375 0zm7.243164 1.3125l-1.71875 -2.453125q-0.109375 0 -0.328125 0l-1.890625 0l0 2.453125l-1.5625 0l0 -8.40625l3.453125 0q1.09375 0 1.90625 0.359375q0.8125 0.359375 1.234375 1.03125q0.4375 0.671875 0.4375 1.609375q0 0.9375 -0.46875 1.625q-0.453125 0.6875 -1.3125 1.015625l1.921875 2.765625l-1.671875 0zm-0.03125 -5.40625q0 -0.8125 -0.53125 -1.234375q-0.53125 -0.4375 -1.546875 -0.4375l-1.828125 0l0 3.34375l1.828125 0q1.015625 0 1.546875 -0.4375q0.53125 -0.4375 0.53125 -1.234375z" fill-rule="nonzero"/><path fill="#000000" fill-opacity="0.0" d="m474.39764 245.6693l0 48.755905l298.2362 0" fill-rule="evenodd"/><path stroke="#999999" stroke-width="1.0" stroke-linejoin="round" stroke-linecap="butt" stroke-dasharray="1.0,3.0" d="m474.39764 251.6693l0 42.755905l298.2362 0" fill-rule="evenodd"/><path fill="#999999" stroke="#999999" stroke-width="1.0" stroke-linecap="butt" d="m476.04938 251.6693l-1.6517334 -4.538101l-1.6517334 4.538101z" fill-rule="evenodd"/><path fill="#4a729c" d="m799.1518 248.14436l0 0c0 -26.509674 21.490295 -48.0 48.0 -48.0l0 0c12.730347 0 24.939331 5.057129 33.9411 14.058868c9.00177 9.0017395 14.058899 21.21074 14.058899 33.94113l0 0c0 26.509659 -21.490356 47.999985 -48.0 47.999985l0 0c-26.509705 0 -48.0 -21.490326 -48.0 -47.999985z" fill-rule="evenodd"/><path fill="#92b4d8" d="m799.1522 364.70865l48.0 -48.0l48.0 48.0l-48.0 48.0z" fill-rule="evenodd"/><path fill="#000000" fill-opacity="0.0" d="m787.4042 227.3727l119.49609 0l0 41.54332l-119.49609 0z" fill-rule="evenodd"/><path fill="#ffffff" d="m815.269 252.66435l-1.71875 -2.453125q-0.109375 0 -0.328125 0l-1.890625 0l0 2.453125l-1.5625 0l0 -8.40625l3.453125 0q1.09375 0 1.90625 0.359375q0.8125 0.359375 1.234375 1.03125q0.4375 0.671875 0.4375 1.609375q0 0.9375 -0.46875 1.625q-0.453125 0.6875 -1.3125 1.015625l1.921875 2.765625l-1.671875 0zm-0.03125 -5.40625q0 -0.8125 -0.53125 -1.234375q-0.53125 -0.4375 -1.546875 -0.4375l-1.828125 0l0 3.34375l1.828125 0q1.015625 0 1.546875 -0.4375q0.53125 -0.4375 0.53125 -1.234375zm9.600159 4.09375l0 1.3125l-6.296875 0l0 -8.40625l6.140625 0l0 1.3125l-4.578125 0l0 2.1875l4.0625 0l0 1.28125l-4.0625 0l0 2.3125l4.734375 0zm4.3526 1.4375q-0.96875 0 -1.875 -0.28125q-0.90625 -0.28125 -1.4375 -0.734375l0.53125 -1.203125q0.515625 0.40625 1.265625 0.671875q0.75 0.25 1.515625 0.25q0.9375 0 1.390625 -0.296875q0.46875 -0.3125 0.46875 -0.796875q0 -0.359375 -0.265625 -0.59375q-0.25 -0.234375 -0.65625 -0.359375q-0.390625 -0.140625 -1.078125 -0.3125q-0.953125 -0.21875 -1.546875 -0.453125q-0.59375 -0.234375 -1.03125 -0.71875q-0.421875 -0.484375 -0.421875 -1.3125q0 -0.6875 0.375 -1.25q0.390625 -0.578125 1.140625 -0.90625q0.765625 -0.34375 1.875 -0.34375q0.765625 0 1.5 0.1875q0.75 0.1875 1.296875 0.546875l-0.5 1.21875q-0.546875 -0.328125 -1.15625 -0.484375q-0.59375 -0.171875 -1.15625 -0.171875q-0.921875 0 -1.375 0.3125q-0.453125 0.3125 -0.453125 0.828125q0 0.359375 0.25 0.59375q0.265625 0.21875 0.65625 0.359375q0.40625 0.125 1.09375 0.28125q0.9375 0.21875 1.53125 0.453125q0.609375 0.234375 1.03125 0.71875q0.421875 0.484375 0.421875 1.296875q0 0.6875 -0.375 1.265625q-0.375 0.5625 -1.140625 0.90625q-0.765625 0.328125 -1.875 0.328125zm8.860535 0q-1.28125 0 -2.3125 -0.5625q-1.03125 -0.5625 -1.625 -1.546875q-0.578125 -0.984375 -0.578125 -2.21875q0 -1.21875 0.578125 -2.203125q0.59375 -1.0 1.625 -1.546875q1.03125 -0.5625 2.3125 -0.5625q1.296875 0 2.328125 0.5625q1.03125 0.546875 1.609375 1.53125q0.59375 0.984375 0.59375 2.21875q0 1.234375 -0.59375 2.21875q-0.578125 0.984375 -1.609375 1.546875q-1.03125 0.5625 -2.328125 0.5625zm0 -1.375q0.84375 0 1.515625 -0.375q0.671875 -0.375 1.046875 -1.046875q0.390625 -0.6875 0.390625 -1.53125q0 -0.84375 -0.390625 -1.515625q-0.375 -0.671875 -1.046875 -1.046875q-0.671875 -0.390625 -1.515625 -0.390625q-0.828125 0 -1.5 0.390625q-0.671875 0.375 -1.0625 1.046875q-0.390625 0.671875 -0.390625 1.515625q0 0.84375 0.390625 1.53125q0.390625 0.671875 1.0625 1.046875q0.671875 0.375 1.5 0.375zm9.791565 1.375q-1.734375 0 -2.703125 -0.984375q-0.96875 -0.984375 -0.96875 -2.796875l0 -4.75l1.546875 0l0 4.6875q0 2.46875 2.140625 2.46875q2.125 0 2.125 -2.46875l0 -4.6875l1.53125 0l0 4.75q0 1.8125 -0.96875 2.796875q-0.953125 0.984375 -2.703125 0.984375zm11.358704 -0.125l-1.71875 -2.453125q-0.109375 0 -0.328125 0l-1.890625 0l0 2.453125l-1.5625 0l0 -8.40625l3.453125 0q1.09375 0 1.90625 0.359375q0.8125 0.359375 1.234375 1.03125q0.4375 0.671875 0.4375 1.609375q0 0.9375 -0.46875 1.625q-0.453125 0.6875 -1.3125 1.015625l1.921875 2.765625l-1.671875 0zm-0.03125 -5.40625q0 -0.8125 -0.53125 -1.234375q-0.53125 -0.4375 -1.546875 -0.4375l-1.828125 0l0 3.34375l1.828125 0q1.015625 0 1.546875 -0.4375q0.53125 -0.4375 0.53125 -1.234375zm7.1939087 5.53125q-1.265625 0 -2.296875 -0.5625q-1.03125 -0.5625 -1.609375 -1.546875q-0.578125 -0.984375 -0.578125 -2.21875q0 -1.234375 0.578125 -2.21875q0.59375 -0.984375 1.609375 -1.53125q1.03125 -0.5625 2.3125 -0.5625q1.03125 0 1.875 0.359375q0.859375 0.359375 1.453125 1.046875l-1.015625 0.9375q-0.90625 -0.984375 -2.25 -0.984375q-0.859375 0 -1.546875 0.390625q-0.671875 0.375 -1.0625 1.046875q-0.390625 0.671875 -0.390625 1.515625q0 0.859375 0.390625 1.53125q0.390625 0.671875 1.0625 1.046875q0.6875 0.375 1.546875 0.375q1.34375 0 2.25 -1.0l1.015625 0.96875q-0.59375 0.6875 -1.453125 1.046875q-0.859375 0.359375 -1.890625 0.359375zm11.13031 -1.4375l0 1.3125l-6.296875 0l0 -8.40625l6.140625 0l0 1.3125l-4.578125 0l0 2.1875l4.0625 0l0 1.28125l-4.0625 0l0 2.3125l4.734375 0zm4.352539 1.4375q-0.96875 0 -1.875 -0.28125q-0.90625 -0.28125 -1.4375 -0.734375l0.53125 -1.203125q0.515625 0.40625 1.265625 0.671875q0.75 0.25 1.515625 0.25q0.9375 0 1.390625 -0.296875q0.46875 -0.3125 0.46875 -0.796875q0 -0.359375 -0.265625 -0.59375q-0.25 -0.234375 -0.65625 -0.359375q-0.390625 -0.140625 -1.078125 -0.3125q-0.953125 -0.21875 -1.546875 -0.453125q-0.59375 -0.234375 -1.03125 -0.71875q-0.421875 -0.484375 -0.421875 -1.3125q0 -0.6875 0.375 -1.25q0.390625 -0.578125 1.140625 -0.90625q0.765625 -0.34375 1.875 -0.34375q0.765625 0 1.5 0.1875q0.75 0.1875 1.296875 0.546875l-0.5 1.21875q-0.546875 -0.328125 -1.15625 -0.484375q-0.59375 -0.171875 -1.15625 -0.171875q-0.921875 0 -1.375 0.3125q-0.453125 0.3125 -0.453125 0.828125q0 0.359375 0.25 0.59375q0.265625 0.21875 0.65625 0.359375q0.40625 0.125 1.09375 0.28125q0.9375 0.21875 1.53125 0.453125q0.609375 0.234375 1.03125 0.71875q0.421875 0.484375 0.421875 1.296875q0 0.6875 -0.375 1.265625q-0.375 0.5625 -1.140625 0.90625q-0.765625 0.328125 -1.875 0.328125z" fill-rule="nonzero"/><path fill="#000000" fill-opacity="0.0" d="m787.4042 343.937l119.49609 0l0 41.543304l-119.49609 0z" fill-rule="evenodd"/><path fill="#ffffff" d="m824.13574 369.22867l-0.015625 -5.5625l-2.75 4.609375l-0.703125 0l-2.765625 -4.546875l0 5.5l-1.484375 0l0 -8.40625l1.28125 0l3.34375 5.578125l3.28125 -5.578125l1.28125 0l0 8.40625l-1.46875 0zm7.663208 0.125q-1.28125 0 -2.3125 -0.5625q-1.03125 -0.5625 -1.625 -1.546875q-0.578125 -0.984375 -0.578125 -2.21875q0 -1.21875 0.578125 -2.203125q0.59375 -1.0 1.625 -1.546875q1.03125 -0.5625 2.3125 -0.5625q1.296875 0 2.328125 0.5625q1.03125 0.546875 1.609375 1.53125q0.59375 0.984375 0.59375 2.21875q0 1.234375 -0.59375 2.21875q-0.578125 0.984375 -1.609375 1.546875q-1.03125 0.5625 -2.328125 0.5625zm0 -1.375q0.84375 0 1.515625 -0.375q0.671875 -0.375 1.046875 -1.046875q0.390625 -0.6875 0.390625 -1.53125q0 -0.84375 -0.390625 -1.515625q-0.375 -0.671875 -1.046875 -1.046875q-0.671875 -0.390625 -1.515625 -0.390625q-0.828125 0 -1.5 0.390625q-0.671875 0.375 -1.0625 1.046875q-0.390625 0.671875 -0.390625 1.515625q0 0.84375 0.390625 1.53125q0.390625 0.671875 1.0625 1.046875q0.671875 0.375 1.5 0.375zm6.18219 -7.15625l3.671875 0q1.34375 0 2.390625 0.53125q1.046875 0.515625 1.625 1.46875q0.578125 0.953125 0.578125 2.203125q0 1.25 -0.578125 2.203125q-0.578125 0.953125 -1.625 1.484375q-1.046875 0.515625 -2.390625 0.515625l-3.671875 0l0 -8.40625zm3.609375 7.09375q0.921875 0 1.625 -0.359375q0.703125 -0.359375 1.078125 -1.015625q0.375 -0.65625 0.375 -1.515625q0 -0.859375 -0.375 -1.515625q-0.375 -0.65625 -1.078125 -1.0q-0.703125 -0.359375 -1.625 -0.359375l-2.046875 0l0 5.765625l2.046875 0zm9.912109 1.4375q-1.734375 0 -2.703125 -0.984375q-0.96875 -0.984375 -0.96875 -2.796875l0 -4.75l1.546875 0l0 4.6875q0 2.46875 2.140625 2.46875q2.125 0 2.125 -2.46875l0 -4.6875l1.53125 0l0 4.75q0 1.8125 -0.96875 2.796875q-0.953125 0.984375 -2.703125 0.984375zm5.8586426 -8.53125l1.5625 0l0 7.09375l4.390625 0l0 1.3125l-5.953125 0l0 -8.40625zm13.484924 7.09375l0 1.3125l-6.296875 0l0 -8.40625l6.140625 0l0 1.3125l-4.578125 0l0 2.1875l4.0625 0l0 1.28125l-4.0625 0l0 2.3125l4.734375 0zm4.3526 1.4375q-0.96875 0 -1.875 -0.28125q-0.90625 -0.28125 -1.4375 -0.734375l0.53125 -1.203125q0.515625 0.40625 1.265625 0.671875q0.75 0.25 1.515625 0.25q0.9375 0 1.390625 -0.296875q0.46875 -0.3125 0.46875 -0.796875q0 -0.359375 -0.265625 -0.59375q-0.25 -0.234375 -0.65625 -0.359375q-0.390625 -0.140625 -1.078125 -0.3125q-0.953125 -0.21875 -1.546875 -0.453125q-0.59375 -0.234375 -1.03125 -0.71875q-0.421875 -0.484375 -0.421875 -1.3125q0 -0.6875 0.375 -1.25q0.390625 -0.578125 1.140625 -0.90625q0.765625 -0.34375 1.875 -0.34375q0.765625 0 1.5 0.1875q0.75 0.1875 1.296875 0.546875l-0.5 1.21875q-0.546875 -0.328125 -1.15625 -0.484375q-0.59375 -0.171875 -1.15625 -0.171875q-0.921875 0 -1.375 0.3125q-0.453125 0.3125 -0.453125 0.828125q0 0.359375 0.25 0.59375q0.265625 0.21875 0.65625 0.359375q0.40625 0.125 1.09375 0.28125q0.9375 0.21875 1.53125 0.453125q0.609375 0.234375 1.03125 0.71875q0.421875 0.484375 0.421875 1.296875q0 0.6875 -0.375 1.265625q-0.375 0.5625 -1.140625 0.90625q-0.765625 0.328125 -1.875 0.328125z" fill-rule="nonzero"/><path fill="#000000" fill-opacity="0.0" d="m712.1916 154.1273l269.92126 0l0 46.015747l-269.92126 0z" fill-rule="evenodd"/><path fill="#4a729c" d="m788.0107 181.78017q-1.28125 0 -2.3125 -0.5625q-1.03125 -0.5625 -1.625 -1.546875q-0.578125 -0.984375 -0.578125 -2.21875q0 -1.21875 0.578125 -2.203125q0.59375 -1.0 1.625 -1.546875q1.03125 -0.5625 2.3125 -0.5625q1.296875 0 2.328125 0.5625q1.03125 0.546875 1.609375 1.53125q0.59375 0.984375 0.59375 2.21875q0 1.234375 -0.59375 2.21875q-0.578125 0.984375 -1.609375 1.546875q-1.03125 0.5625 -2.328125 0.5625zm0 -1.375q0.84375 0 1.515625 -0.375q0.671875 -0.375 1.046875 -1.046875q0.390625 -0.6875 0.390625 -1.53125q0 -0.84375 -0.390625 -1.515625q-0.375 -0.671875 -1.046875 -1.046875q-0.671875 -0.390625 -1.515625 -0.390625q-0.828125 0 -1.5 0.390625q-0.671875 0.375 -1.0625 1.046875q-0.390625 0.671875 -0.390625 1.515625q0 0.84375 0.390625 1.53125q0.390625 0.671875 1.0625 1.046875q0.671875 0.375 1.5 0.375zm13.65094 -7.15625l0 8.40625l-1.28125 0l-4.640625 -5.6875l0 5.6875l-1.546875 0l0 -8.40625l1.28125 0l4.640625 5.6875l0 -5.6875l1.546875 0zm1.7825317 4.453125l3.296875 0l0 1.234375l-3.296875 0l0 -1.234375zm9.039429 4.078125q-1.265625 0 -2.296875 -0.5625q-1.03125 -0.5625 -1.609375 -1.546875q-0.578125 -0.984375 -0.578125 -2.21875q0 -1.234375 0.578125 -2.21875q0.59375 -0.984375 1.609375 -1.53125q1.03125 -0.5625 2.3125 -0.5625q1.03125 0 1.875 0.359375q0.859375 0.359375 1.453125 1.046875l-1.015625 0.9375q-0.90625 -0.984375 -2.25 -0.984375q-0.859375 0 -1.546875 0.390625q-0.671875 0.375 -1.0625 1.046875q-0.390625 0.671875 -0.390625 1.515625q0 0.859375 0.390625 1.53125q0.390625 0.671875 1.0625 1.046875q0.6875 0.375 1.546875 0.375q1.34375 0 2.25 -1.0l1.015625 0.96875q-0.59375 0.6875 -1.453125 1.046875q-0.859375 0.359375 -1.890625 0.359375zm12.302185 -8.53125l0 8.40625l-1.5625 0l0 -3.59375l-4.34375 0l0 3.59375l-1.5625 0l0 -8.40625l1.5625 0l0 3.46875l4.34375 0l0 -3.46875l1.5625 0zm7.7044067 6.46875l-4.203125 0l-0.828125 1.9375l-1.609375 0l3.78125 -8.40625l1.53125 0l3.796875 8.40625l-1.625 0l-0.84375 -1.9375zm-0.515625 -1.234375l-1.59375 -3.671875l-1.5625 3.671875l3.15625 0zm4.050598 -5.234375l1.5625 0l0 8.40625l-1.5625 0l0 -8.40625zm11.296753 0l0 8.40625l-1.28125 0l-4.640625 -5.6875l0 5.6875l-1.546875 0l0 -8.40625l1.28125 0l4.640625 5.6875l0 -5.6875l1.546875 0zm8.1727295 8.53125q-0.96875 0 -1.875 -0.28125q-0.90625 -0.28125 -1.4375 -0.734375l0.53125 -1.203125q0.515625 0.40625 1.265625 0.671875q0.75 0.25 1.515625 0.25q0.9375 0 1.390625 -0.296875q0.46875 -0.3125 0.46875 -0.796875q0 -0.359375 -0.265625 -0.59375q-0.25 -0.234375 -0.65625 -0.359375q-0.390625 -0.140625 -1.078125 -0.3125q-0.953125 -0.21875 -1.546875 -0.453125q-0.59375 -0.234375 -1.03125 -0.71875q-0.421875 -0.484375 -0.421875 -1.3125q0 -0.6875 0.375 -1.25q0.390625 -0.578125 1.140625 -0.90625q0.765625 -0.34375 1.875 -0.34375q0.765625 0 1.5 0.1875q0.75 0.1875 1.296875 0.546875l-0.5 1.21875q-0.546875 -0.328125 -1.15625 -0.484375q-0.59375 -0.171875 -1.15625 -0.171875q-0.921875 0 -1.375 0.3125q-0.453125 0.3125 -0.453125 0.828125q0 0.359375 0.25 0.59375q0.265625 0.21875 0.65625 0.359375q0.40625 0.125 1.09375 0.28125q0.9375 0.21875 1.53125 0.453125q0.609375 0.234375 1.03125 0.71875q0.421875 0.484375 0.421875 1.296875q0 0.6875 -0.375 1.265625q-0.375 0.5625 -1.140625 0.90625q-0.765625 0.328125 -1.875 0.328125zm6.5217896 -7.203125l-2.78125 0l0 -1.328125l7.125 0l0 1.328125l-2.78125 0l0 7.078125l-1.5625 0l0 -7.078125zm9.322815 7.203125q-1.28125 0 -2.3125 -0.5625q-1.03125 -0.5625 -1.625 -1.546875q-0.578125 -0.984375 -0.578125 -2.21875q0 -1.21875 0.578125 -2.203125q0.59375 -1.0 1.625 -1.546875q1.03125 -0.5625 2.3125 -0.5625q1.296875 0 2.328125 0.5625q1.03125 0.546875 1.609375 1.53125q0.59375 0.984375 0.59375 2.21875q0 1.234375 -0.59375 2.21875q-0.578125 0.984375 -1.609375 1.546875q-1.03125 0.5625 -2.328125 0.5625zm0 -1.375q0.84375 0 1.515625 -0.375q0.671875 -0.375 1.046875 -1.046875q0.390625 -0.6875 0.390625 -1.53125q0 -0.84375 -0.390625 -1.515625q-0.375 -0.671875 -1.046875 -1.046875q-0.671875 -0.390625 -1.515625 -0.390625q-0.828125 0 -1.5 0.390625q-0.671875 0.375 -1.0625 1.046875q-0.390625 0.671875 -0.390625 1.515625q0 0.84375 0.390625 1.53125q0.390625 0.671875 1.0625 1.046875q0.671875 0.375 1.5 0.375zm11.68219 1.25l-1.71875 -2.453125q-0.109375 0 -0.328125 0l-1.890625 0l0 2.453125l-1.5625 0l0 -8.40625l3.453125 0q1.09375 0 1.90625 0.359375q0.8125 0.359375 1.234375 1.03125q0.4375 0.671875 0.4375 1.609375q0 0.9375 -0.46875 1.625q-0.453125 0.6875 -1.3125 1.015625l1.921875 2.765625l-1.671875 0zm-0.03125 -5.40625q0 -0.8125 -0.53125 -1.234375q-0.53125 -0.4375 -1.546875 -0.4375l-1.828125 0l0 3.34375l1.828125 0q1.015625 0 1.546875 -0.4375q0.53125 -0.4375 0.53125 -1.234375zm8.756409 3.46875l-4.203125 0l-0.828125 1.9375l-1.609375 0l3.78125 -8.40625l1.53125 0l3.796875 8.40625l-1.625 0l-0.84375 -1.9375zm-0.515625 -1.234375l-1.59375 -3.671875l-1.5625 3.671875l3.15625 0zm9.664978 -1.125l1.484375 0l0 3.34375q-0.65625 0.515625 -1.515625 0.796875q-0.859375 0.28125 -1.78125 0.28125q-1.28125 0 -2.3125 -0.5625q-1.03125 -0.5625 -1.625 -1.546875q-0.578125 -0.984375 -0.578125 -2.21875q0 -1.234375 0.578125 -2.21875q0.59375 -0.984375 1.625 -1.53125q1.046875 -0.5625 2.34375 -0.5625q1.046875 0 1.90625 0.34375q0.875 0.34375 1.46875 1.015625l-0.984375 0.96875q-0.96875 -0.96875 -2.328125 -0.96875q-0.875 0 -1.578125 0.375q-0.6875 0.375 -1.078125 1.046875q-0.390625 0.671875 -0.390625 1.53125q0 0.84375 0.390625 1.515625q0.390625 0.671875 1.078125 1.0625q0.703125 0.375 1.578125 0.375q0.984375 0 1.71875 -0.4375l0 -2.609375zm9.826538 2.984375l0 1.3125l-6.296875 0l0 -8.40625l6.140625 0l0 1.3125l-4.578125 0l0 2.1875l4.0625 0l0 1.28125l-4.0625 0l0 2.3125l4.734375 0z" fill-rule="nonzero"/><path fill="#f3f4fb" d="m614.9921 271.40158l49.88977 0l0 46.015747l-49.88977 0z" fill-rule="evenodd"/><path fill="#4a729c" d="m629.43396 290.5232l1.5625 0l0 7.09375l4.390625 0l0 1.3125l-5.953125 0l0 -8.40625zm10.922668 8.53125q-1.265625 0 -2.296875 -0.5625q-1.03125 -0.5625 -1.609375 -1.546875q-0.578125 -0.984375 -0.578125 -2.21875q0 -1.234375 0.578125 -2.21875q0.59375 -0.984375 1.609375 -1.53125q1.03125 -0.5625 2.3125 -0.5625q1.03125 0 1.875 0.359375q0.859375 0.359375 1.453125 1.046875l-1.015625 0.9375q-0.90625 -0.984375 -2.25 -0.984375q-0.859375 0 -1.546875 0.390625q-0.671875 0.375 -1.0625 1.046875q-0.390625 0.671875 -0.390625 1.515625q0 0.859375 0.390625 1.53125q0.390625 0.671875 1.0625 1.046875q0.6875 0.375 1.546875 0.375q1.34375 0 2.25 -1.0l1.015625 0.96875q-0.59375 0.6875 -1.453125 1.046875q-0.859375 0.359375 -1.890625 0.359375zm7.3947754 0q-0.96875 0 -1.875 -0.28125q-0.90625 -0.28125 -1.4375 -0.734375l0.53125 -1.203125q0.515625 0.40625 1.265625 0.671875q0.75 0.25 1.515625 0.25q0.9375 0 1.390625 -0.296875q0.46875 -0.3125 0.46875 -0.796875q0 -0.359375 -0.265625 -0.59375q-0.25 -0.234375 -0.65625 -0.359375q-0.390625 -0.140625 -1.078125 -0.3125q-0.953125 -0.21875 -1.546875 -0.453125q-0.59375 -0.234375 -1.03125 -0.71875q-0.421875 -0.484375 -0.421875 -1.3125q0 -0.6875 0.375 -1.25q0.390625 -0.578125 1.140625 -0.90625q0.765625 -0.34375 1.875 -0.34375q0.765625 0 1.5 0.1875q0.75 0.1875 1.296875 0.546875l-0.5 1.21875q-0.546875 -0.328125 -1.15625 -0.484375q-0.59375 -0.171875 -1.15625 -0.171875q-0.921875 0 -1.375 0.3125q-0.453125 0.3125 -0.453125 0.828125q0 0.359375 0.25 0.59375q0.265625 0.21875 0.65625 0.359375q0.40625 0.125 1.09375 0.28125q0.9375 0.21875 1.53125 0.453125q0.609375 0.234375 1.03125 0.71875q0.421875 0.484375 0.421875 1.296875q0 0.6875 -0.375 1.265625q-0.375 0.5625 -1.140625 0.90625q-0.765625 0.328125 -1.875 0.328125z" fill-rule="nonzero"/><path fill="#f3f4fb" d="m757.26245 98.09449l49.88977 0l0 46.01574l-49.88977 0z" fill-rule="evenodd"/><path fill="#4a729c" d="m771.7043 117.21611l1.5625 0l0 7.09375l4.390625 0l0 1.3125l-5.953125 0l0 -8.40625zm10.922668 8.53125q-1.265625 0 -2.296875 -0.5625q-1.03125 -0.5625 -1.609375 -1.546875q-0.578125 -0.984375 -0.578125 -2.21875q0 -1.234375 0.578125 -2.21875q0.59375 -0.984375 1.609375 -1.53125q1.03125 -0.5625 2.3125 -0.5625q1.03125 0 1.875 0.359375q0.859375 0.359375 1.453125 1.046875l-1.015625 0.9375q-0.90625 -0.984375 -2.25 -0.984375q-0.859375 0 -1.546875 0.390625q-0.671875 0.375 -1.0625 1.046875q-0.390625 0.671875 -0.390625 1.515625q0 0.859375 0.390625 1.53125q0.390625 0.671875 1.0625 1.046875q0.6875 0.375 1.546875 0.375q1.34375 0 2.25 -1.0l1.015625 0.96875q-0.59375 0.6875 -1.453125 1.046875q-0.859375 0.359375 -1.890625 0.359375zm7.3947754 0q-0.96875 0 -1.875 -0.28125q-0.90625 -0.28125 -1.4375 -0.734375l0.53125 -1.203125q0.515625 0.40625 1.265625 0.671875q0.75 0.25 1.515625 0.25q0.9375 0 1.390625 -0.296875q0.46875 -0.3125 0.46875 -0.796875q0 -0.359375 -0.265625 -0.59375q-0.25 -0.234375 -0.65625 -0.359375q-0.390625 -0.140625 -1.078125 -0.3125q-0.953125 -0.21875 -1.546875 -0.453125q-0.59375 -0.234375 -1.03125 -0.71875q-0.421875 -0.484375 -0.421875 -1.3125q0 -0.6875 0.375 -1.25q0.390625 -0.578125 1.140625 -0.90625q0.765625 -0.34375 1.875 -0.34375q0.765625 0 1.5 0.1875q0.75 0.1875 1.296875 0.546875l-0.5 1.21875q-0.546875 -0.328125 -1.15625 -0.484375q-0.59375 -0.171875 -1.15625 -0.171875q-0.921875 0 -1.375 0.3125q-0.453125 0.3125 -0.453125 0.828125q0 0.359375 0.25 0.59375q0.265625 0.21875 0.65625 0.359375q0.40625 0.125 1.09375 0.28125q0.9375 0.21875 1.53125 0.453125q0.609375 0.234375 1.03125 0.71875q0.421875 0.484375 0.421875 1.296875q0 0.6875 -0.375 1.265625q-0.375 0.5625 -1.140625 0.90625q-0.765625 0.328125 -1.875 0.328125z" fill-rule="nonzero"/></g></svg>