<svg version="1.1" viewBox="0.0 0.0 960.0 540.0" fill="none" stroke="none" stroke-linecap="square" stroke-miterlimit="10" xmlns:xlink="http://www.w3.org/1999/xlink" xmlns="http://www.w3.org/2000/svg"><clipPath id="g8a65174a65_2_22.0"><path d="m0 0l960.0 0l0 540.0l-960.0 0l0 -540.0z" clip-rule="nonzero"/></clipPath><g clip-path="url(#g8a65174a65_2_22.0)"><path fill="#f3f4fb" d="m0 0l960.0 0l0 540.0l-960.0 0z" fill-rule="evenodd"/><path fill="#bceeff" d="m157.2441 -6.3622046l0 0c0 -0.0029711723 0.0024108887 -0.0053792 0.0053863525 -0.0053792l645.5065 0.0053792c0.0014038086 0 0.0028076172 5.6648254E-4 0.0037841797 0.00157547c0.0010375977 0.0010085106 0.0015869141 0.0023770332 0.0015869141 0.00380373l-0.0053710938 552.719c0 0.0029907227 -0.0024414062 0.0053710938 -0.0053710938 0.0053710938l-645.5065 -0.0053710938l0 0c-0.0029754639 0 -0.0053863525 -0.002380371 -0.0053863525 -0.0053710938z" fill-rule="evenodd"/><path fill="#92b4d8" d="m239.27821 129.22377l0 0c0 -4.662178 3.7794342 -8.44162 8.44162 -8.44162l464.47107 0c2.2388916 0 4.3860474 0.8893814 5.969116 2.472496c1.5831299 1.583107 2.4725342 3.7302628 2.4725342 5.969124l0 95.74669c0 4.6621704 -3.77948 8.44162 -8.44165 8.44162l-464.47107 0c-4.6621857 0 -8.44162 -3.7794495 -8.44162 -8.44162z" fill-rule="evenodd"/><path fill="#000000" fill-opacity="0.0" d="m253.41963 161.33333l453.07086 0l0 31.527557l-453.07086 0z" fill-rule="evenodd"/><path fill="#4a729c" d="m385.44473 181.97833q-0.96875 0 -1.875 -0.28125q-0.90625 -0.28125 -1.4375 -0.734375l0.53125 -1.203125q0.515625 0.40625 1.265625 0.671875q0.75 0.25 1.515625 0.25q0.9375 0 1.390625 -0.296875q0.46875 -0.3125 0.46875 -0.796875q0 -0.359375 -0.265625 -0.59375q-0.25 -0.234375 -0.65625 -0.359375q-0.390625 -0.140625 -1.078125 -0.3125q-0.953125 -0.21875 -1.546875 -0.453125q-0.59375 -0.234375 -1.03125 -0.71875q-0.421875 -0.484375 -0.421875 -1.3125q0 -0.6875 0.375 -1.25q0.390625 -0.578125 1.140625 -0.90625q0.765625 -0.34375 1.875 -0.34375q0.765625 0 1.5 0.1875q0.75 0.1875 1.296875 0.546875l-0.5 1.21875q-0.546875 -0.328125 -1.15625 -0.484375q-0.59375 -0.171875 -1.15625 -0.171875q-0.921875 0 -1.375 0.3125q-0.453125 0.3125 -0.453125 0.828125q0 0.359375 0.25 0.59375q0.265625 0.21875 0.65625 0.359375q0.40625 0.125 1.09375 0.28125q0.9375 0.21875 1.53125 0.453125q0.609375 0.234375 1.03125 0.71875q0.421875 0.484375 0.421875 1.296875q0 0.6875 -0.375 1.265625q-0.375 0.5625 -1.140625 0.90625q-0.765625 0.328125 -1.875 0.328125zm8.860535 0q-1.28125 0 -2.3125 -0.5625q-1.03125 -0.5625 -1.625 -1.546875q-0.578125 -0.984375 -0.578125 -2.21875q0 -1.21875 0.578125 -2.203125q0.59375 -1.0 1.625 -1.546875q1.03125 -0.5625 2.3125 -0.5625q1.296875 0 2.328125 0.5625q1.03125 0.546875 1.609375 1.53125q0.59375 0.984375 0.59375 2.21875q0 1.234375 -0.59375 2.21875q-0.578125 0.984375 -1.609375 1.546875q-1.03125 0.5625 -2.328125 0.5625zm0 -1.375q0.84375 0 1.515625 -0.375q0.671875 -0.375 1.046875 -1.046875q0.390625 -0.6875 0.390625 -1.53125q0 -0.84375 -0.390625 -1.515625q-0.375 -0.671875 -1.046875 -1.046875q-0.671875 -0.390625 -1.515625 -0.390625q-0.828125 0 -1.5 0.390625q-0.671875 0.375 -1.0625 1.046875q-0.390625 0.671875 -0.390625 1.515625q0 0.84375 0.390625 1.53125q0.390625 0.671875 1.0625 1.046875q0.671875 0.375 1.5 0.375zm9.791565 1.375q-1.734375 0 -2.703125 -0.984375q-0.96875 -0.984375 -0.96875 -2.796875l0 -4.75l1.546875 0l0 4.6875q0 2.46875 2.140625 2.46875q2.125 0 2.125 -2.46875l0 -4.6875l1.53125 0l0 4.75q0 1.8125 -0.96875 2.796875q-0.953125 0.984375 -2.703125 0.984375zm11.358704 -0.125l-1.71875 -2.453125q-0.109375 0 -0.328125 0l-1.890625 0l0 2.453125l-1.5625 0l0 -8.40625l3.453125 0q1.09375 0 1.90625 0.359375q0.8125 0.359375 1.234375 1.03125q0.4375 0.671875 0.4375 1.609375q0 0.9375 -0.46875 1.625q-0.453125 0.6875 -1.3125 1.015625l1.921875 2.765625l-1.671875 0zm-0.03125 -5.40625q0 -0.8125 -0.53125 -1.234375q-0.53125 -0.4375 -1.546875 -0.4375l-1.828125 0l0 3.34375l1.828125 0q1.015625 0 1.546875 -0.4375q0.53125 -0.4375 0.53125 -1.234375zm7.193939 5.53125q-1.265625 0 -2.296875 -0.5625q-1.03125 -0.5625 -1.609375 -1.546875q-0.578125 -0.984375 -0.578125 -2.21875q0 -1.234375 0.578125 -2.21875q0.59375 -0.984375 1.609375 -1.53125q1.03125 -0.5625 2.3125 -0.5625q1.03125 0 1.875 0.359375q0.859375 0.359375 1.453125 1.046875l-1.015625 0.9375q-0.90625 -0.984375 -2.25 -0.984375q-0.859375 0 -1.546875 0.390625q-0.671875 0.375 -1.0625 1.046875q-0.390625 0.671875 -0.390625 1.515625q0 0.859375 0.390625 1.53125q0.390625 0.671875 1.0625 1.046875q0.6875 0.375 1.546875 0.375q1.34375 0 2.25 -1.0l1.015625 0.96875q-0.59375 0.6875 -1.453125 1.046875q-0.859375 0.359375 -1.890625 0.359375zm11.13031 -1.4375l0 1.3125l-6.296875 0l0 -8.40625l6.140625 0l0 1.3125l-4.578125 0l0 2.1875l4.0625 0l0 1.28125l-4.0625 0l0 2.3125l4.734375 0zm5.0552063 -7.09375l1.5625 0l0 7.09375l4.390625 0l0 1.3125l-5.953125 0l0 -8.40625zm12.701172 6.46875l-4.203125 0l-0.828125 1.9375l-1.609375 0l3.78125 -8.40625l1.53125 0l3.796875 8.40625l-1.625 0l-0.84375 -1.9375zm-0.515625 -1.234375l-1.59375 -3.671875l-1.5625 3.671875l3.15625 0zm11.519318 -5.234375l0 8.40625l-1.28125 0l-4.640625 -5.6875l0 5.6875l-1.546875 0l0 -8.40625l1.28125 0l4.640625 5.6875l0 -5.6875l1.546875 0zm7.9856873 4.109375l1.484375 0l0 3.34375q-0.65625 0.515625 -1.515625 0.796875q-0.859375 0.28125 -1.78125 0.28125q-1.28125 0 -2.3125 -0.5625q-1.03125 -0.5625 -1.625 -1.546875q-0.578125 -0.984375 -0.578125 -2.21875q0 -1.234375 0.578125 -2.21875q0.59375 -0.984375 1.625 -1.53125q1.046875 -0.5625 2.34375 -0.5625q1.046875 0 1.90625 0.34375q0.875 0.34375 1.46875 1.015625l-0.984375 0.96875q-0.96875 -0.96875 -2.328125 -0.96875q-0.875 0 -1.578125 0.375q-0.6875 0.375 -1.078125 1.046875q-0.390625 0.671875 -0.390625 1.53125q0 0.84375 0.390625 1.515625q0.390625 0.671875 1.078125 1.0625q0.703125 0.375 1.578125 0.375q0.984375 0 1.71875 -0.4375l0 -2.609375zm7.1390686 4.421875q-1.734375 0 -2.703125 -0.984375q-0.96875 -0.984375 -0.96875 -2.796875l0 -4.75l1.546875 0l0 4.6875q0 2.46875 2.140625 2.46875q2.125 0 2.125 -2.46875l0 -4.6875l1.53125 0l0 4.75q0 1.8125 -0.96875 2.796875q-0.953125 0.984375 -2.703125 0.984375zm11.131805 -2.0625l-4.203125 0l-0.828125 1.9375l-1.609375 0l3.78125 -8.40625l1.53125 0l3.796875 8.40625l-1.625 0l-0.84375 -1.9375zm-0.515625 -1.234375l-1.59375 -3.671875l-1.5625 3.671875l3.15625 0zm9.6649475 -1.125l1.484375 0l0 3.34375q-0.65625 0.515625 -1.515625 0.796875q-0.859375 0.28125 -1.78125 0.28125q-1.28125 0 -2.3125 -0.5625q-1.03125 -0.5625 -1.625 -1.546875q-0.578125 -0.984375 -0.578125 -2.21875q0 -1.234375 0.578125 -2.21875q0.59375 -0.984375 1.625 -1.53125q1.046875 -0.5625 2.34375 -0.5625q1.046875 0 1.90625 0.34375q0.875 0.34375 1.46875 1.015625l-0.984375 0.96875q-0.96875 -0.96875 -2.328125 -0.96875q-0.875 0 -1.578125 0.375q-0.6875 0.375 -1.078125 1.046875q-0.390625 0.671875 -0.390625 1.53125q0 0.84375 0.390625 1.515625q0.390625 0.671875 1.078125 1.0625q0.703125 0.375 1.578125 0.375q0.984375 0 1.71875 -0.4375l0 -2.609375zm9.826569 2.984375l0 1.3125l-6.296875 0l0 -8.40625l6.140625 0l0 1.3125l-4.578125 0l0 2.1875l4.0625 0l0 1.28125l-4.0625 0l0 2.3125l4.734375 0zm8.945831 1.4375q-1.265625 0 -2.296875 -0.5625q-1.03125 -0.5625 -1.609375 -1.546875q-0.578125 -0.984375 -0.578125 -2.21875q0 -1.234375 0.578125 -2.21875q0.59375 -0.984375 1.609375 -1.53125q1.03125 -0.5625 2.3125 -0.5625q1.03125 0 1.875 0.359375q0.859375 0.359375 1.453125 1.046875l-1.015625 0.9375q-0.90625 -0.984375 -2.25 -0.984375q-0.859375 0 -1.546875 0.390625q-0.671875 0.375 -1.0625 1.046875q-0.390625 0.671875 -0.390625 1.515625q0 0.859375 0.390625 1.53125q0.390625 0.671875 1.0625 1.046875q0.6875 0.375 1.546875 0.375q1.34375 0 2.25 -1.0l1.015625 0.96875q-0.59375 0.6875 -1.453125 1.046875q-0.859375 0.359375 -1.890625 0.359375zm8.575317 0q-1.28125 0 -2.3125 -0.5625q-1.03125 -0.5625 -1.625 -1.546875q-0.578125 -0.984375 -0.578125 -2.21875q0 -1.21875 0.578125 -2.203125q0.59375 -1.0 1.625 -1.546875q1.03125 -0.5625 2.3125 -0.5625q1.296875 0 2.328125 0.5625q1.03125 0.546875 1.609375 1.53125q0.59375 0.984375 0.59375 2.21875q0 1.234375 -0.59375 2.21875q-0.578125 0.984375 -1.609375 1.546875q-1.03125 0.5625 -2.328125 0.5625zm0 -1.375q0.84375 0 1.515625 -0.375q0.671875 -0.375 1.046875 -1.046875q0.390625 -0.6875 0.390625 -1.53125q0 -0.84375 -0.390625 -1.515625q-0.375 -0.671875 -1.046875 -1.046875q-0.671875 -0.390625 -1.515625 -0.390625q-0.828125 0 -1.5 0.390625q-0.671875 0.375 -1.0625 1.046875q-0.390625 0.671875 -0.390625 1.515625q0 0.84375 0.390625 1.53125q0.390625 0.671875 1.0625 1.046875q0.671875 0.375 1.5 0.375zm13.90094 1.25l-0.015625 -5.5625l-2.75 4.609375l-0.703125 0l-2.765625 -4.546875l0 5.5l-1.484375 0l0 -8.40625l1.28125 0l3.34375 5.578125l3.28125 -5.578125l1.28125 0l0 8.40625l-1.46875 0zm7.194458 -8.40625q1.09375 0 1.90625 0.359375q0.8125 0.359375 1.234375 1.03125q0.4375 0.671875 0.4375 1.609375q0 0.90625 -0.4375 1.59375q-0.421875 0.671875 -1.234375 1.03125q-0.8125 0.359375 -1.90625 0.359375l-1.890625 0l0 2.421875l-1.5625 0l0 -8.40625l3.453125 0zm-0.0625 4.65625q1.015625 0 1.546875 -0.421875q0.53125 -0.4375 0.53125 -1.234375q0 -0.8125 -0.53125 -1.234375q-0.53125 -0.4375 -1.546875 -0.4375l-1.828125 0l0 3.328125l1.828125 0zm5.201477 -4.65625l1.5625 0l0 8.40625l-1.5625 0l0 -8.40625zm3.828003 0l1.5625 0l0 7.09375l4.390625 0l0 1.3125l-5.953125 0l0 -8.40625zm13.484924 7.09375l0 1.3125l-6.296875 0l0 -8.40625l6.140625 0l0 1.3125l-4.578125 0l0 2.1875l4.0625 0l0 1.28125l-4.0625 0l0 2.3125l4.734375 0zm7.243164 1.3125l-1.71875 -2.453125q-0.109375 0 -0.328125 0l-1.890625 0l0 2.453125l-1.5625 0l0 -8.40625l3.453125 0q1.09375 0 1.90625 0.359375q0.8125 0.359375 1.234375 1.03125q0.4375 0.671875 0.4375 1.609375q0 0.9375 -0.46875 1.625q-0.453125 0.6875 -1.3125 1.015625l1.921875 2.765625l-1.671875 0zm-0.03125 -5.40625q0 -0.8125 -0.53125 -1.234375q-0.53125 -0.4375 -1.546875 -0.4375l-1.828125 0l0 3.34375l1.828125 0q1.015625 0 1.546875 -0.4375q0.53125 -0.4375 0.53125 -1.234375z" fill-rule="nonzero"/><path fill="#000000" fill-opacity="0.0" d="m479.95538 120.78215l0 -152.14467l0.06298828 0l0 24.99507" fill-rule="evenodd"/><path stroke="#cccccc" stroke-width="1.0" stroke-linejoin="round" stroke-linecap="butt" d="m479.95538 114.78215l0 -146.14467l0.06298828 0l0 24.995068" fill-rule="evenodd"/><path fill="#cccccc" stroke="#cccccc" stroke-width="1.0" stroke-linecap="butt" d="m478.30365 114.78215l1.6517334 4.538101l1.6517334 -4.538101z" fill-rule="evenodd"/><path fill="#000000" fill-opacity="0.0" d="m736.1286 555.8058l0 -378.70868l-15.496033 0" fill-rule="evenodd"/><path stroke="#cccccc" stroke-width="1.0" stroke-linejoin="round" stroke-linecap="butt" d="m736.1286 549.8058l0 -372.70868l-15.496033 0" fill-rule="evenodd"/><path fill="#cccccc" stroke="#cccccc" stroke-width="1.0" stroke-linecap="butt" d="m734.47687 549.8058l1.6517334 4.538086l1.6517334 -4.538086z" fill-rule="evenodd"/><path fill="#bceeff" d="m679.4304 305.20734l109.385864 0l0 39.118134l-109.385864 0z" fill-rule="evenodd"/><path fill="#4a729c" d="m721.4236 322.4114q-0.96875 0 -1.875 -0.28125q-0.90625 -0.28125 -1.4375 -0.734375l0.53125 -1.203125q0.515625 0.40625 1.265625 0.671875q0.75 0.25 1.515625 0.25q0.9375 0 1.390625 -0.296875q0.46875 -0.3125 0.46875 -0.796875q0 -0.359375 -0.265625 -0.59375q-0.25 -0.234375 -0.65625 -0.359375q-0.390625 -0.140625 -1.078125 -0.3125q-0.953125 -0.21875 -1.546875 -0.453125q-0.59375 -0.234375 -1.03125 -0.71875q-0.421875 -0.484375 -0.421875 -1.3125q0 -0.6875 0.375 -1.25q0.390625 -0.578125 1.140625 -0.90625q0.765625 -0.34375 1.875 -0.34375q0.765625 0 1.5 0.1875q0.75 0.1875 1.296875 0.546875l-0.5 1.21875q-0.546875 -0.328125 -1.15625 -0.484375q-0.59375 -0.171875 -1.15625 -0.171875q-0.921875 0 -1.375 0.3125q-0.453125 0.3125 -0.453125 0.828125q0 0.359375 0.25 0.59375q0.265625 0.21875 0.65625 0.359375q0.40625 0.125 1.09375 0.28125q0.9375 0.21875 1.53125 0.453125q0.609375 0.234375 1.03125 0.71875q0.421875 0.484375 0.421875 1.296875q0 0.6875 -0.375 1.265625q-0.375 0.5625 -1.140625 0.90625q-0.765625 0.328125 -1.875 0.328125zm8.391846 -8.53125q1.09375 0 1.90625 0.359375q0.8125 0.359375 1.234375 1.03125q0.4375 0.671875 0.4375 1.609375q0 0.90625 -0.4375 1.59375q-0.421875 0.671875 -1.234375 1.03125q-0.8125 0.359375 -1.90625 0.359375l-1.890625 0l0 2.421875l-1.5625 0l0 -8.40625l3.453125 0zm-0.0625 4.65625q1.015625 0 1.546875 -0.421875q0.53125 -0.4375 0.53125 -1.234375q0 -0.8125 -0.53125 -1.234375q-0.53125 -0.4375 -1.546875 -0.4375l-1.828125 0l0 3.328125l1.828125 0zm11.498291 2.4375l0 1.3125l-6.296875 0l0 -8.40625l6.140625 0l0 1.3125l-4.578125 0l0 2.1875l4.0625 0l0 1.28125l-4.0625 0l0 2.3125l4.734375 0zm5.5978394 1.4375q-1.265625 0 -2.296875 -0.5625q-1.03125 -0.5625 -1.609375 -1.546875q-0.578125 -0.984375 -0.578125 -2.21875q0 -1.234375 0.578125 -2.21875q0.59375 -0.984375 1.609375 -1.53125q1.03125 -0.5625 2.3125 -0.5625q1.03125 0 1.875 0.359375q0.859375 0.359375 1.453125 1.046875l-1.015625 0.9375q-0.90625 -0.984375 -2.25 -0.984375q-0.859375 0 -1.546875 0.390625q-0.671875 0.375 -1.0625 1.046875q-0.390625 0.671875 -0.390625 1.515625q0 0.859375 0.390625 1.53125q0.390625 0.671875 1.0625 1.046875q0.6875 0.375 1.546875 0.375q1.34375 0 2.25 -1.0l1.015625 0.96875q-0.59375 0.6875 -1.453125 1.046875q-0.859375 0.359375 -1.890625 0.359375z" fill-rule="nonzero"/><path fill="#4a729c" d="m694.55005 327.88016l3.671875 0q1.34375 0 2.390625 0.53125q1.046875 0.515625 1.625 1.46875q0.578125 0.953125 0.578125 2.203125q0 1.25 -0.578125 2.203125q-0.578125 0.953125 -1.625 1.484375q-1.046875 0.515625 -2.390625 0.515625l-3.671875 0l0 -8.40625zm3.609375 7.09375q0.921875 0 1.625 -0.359375q0.703125 -0.359375 1.078125 -1.015625q0.375 -0.65625 0.375 -1.515625q0 -0.859375 -0.375 -1.515625q-0.375 -0.65625 -1.078125 -1.0q-0.703125 -0.359375 -1.625 -0.359375l-2.046875 0l0 5.765625l2.046875 0zm12.599609 0l0 1.3125l-6.296875 0l0 -8.40625l6.140625 0l0 1.3125l-4.578125 0l0 2.1875l4.0625 0l0 1.28125l-4.0625 0l0 2.3125l4.734375 0zm3.305664 -5.78125l0 2.5625l4.0625 0l0 1.3125l-4.0625 0l0 3.21875l-1.5625 0l0 -8.40625l6.140625 0l0 1.3125l-4.578125 0zm6.081543 -1.3125l1.5625 0l0 8.40625l-1.5625 0l0 -8.40625zm11.296814 0l0 8.40625l-1.28125 0l-4.640625 -5.6875l0 5.6875l-1.546875 0l0 -8.40625l1.28125 0l4.640625 5.6875l0 -5.6875l1.546875 0zm2.2512817 0l1.5625 0l0 8.40625l-1.5625 0l0 -8.40625zm5.531189 1.328125l-2.78125 0l0 -1.328125l7.125 0l0 1.328125l-2.78125 0l0 7.078125l-1.5625 0l0 -7.078125zm5.520874 -1.328125l1.5625 0l0 8.40625l-1.5625 0l0 -8.40625zm7.749939 8.53125q-1.28125 0 -2.3125 -0.5625q-1.03125 -0.5625 -1.625 -1.546875q-0.578125 -0.984375 -0.578125 -2.21875q0 -1.21875 0.578125 -2.203125q0.59375 -1.0 1.625 -1.546875q1.03125 -0.5625 2.3125 -0.5625q1.296875 0 2.328125 0.5625q1.03125 0.546875 1.609375 1.53125q0.59375 0.984375 0.59375 2.21875q0 1.234375 -0.59375 2.21875q-0.578125 0.984375 -1.609375 1.546875q-1.03125 0.5625 -2.328125 0.5625zm0 -1.375q0.84375 0 1.515625 -0.375q0.671875 -0.375 1.046875 -1.046875q0.390625 -0.6875 0.390625 -1.53125q0 -0.84375 -0.390625 -1.515625q-0.375 -0.671875 -1.046875 -1.046875q-0.671875 -0.390625 -1.515625 -0.390625q-0.828125 0 -1.5 0.390625q-0.671875 0.375 -1.0625 1.046875q-0.390625 0.671875 -0.390625 1.515625q0 0.84375 0.390625 1.53125q0.390625 0.671875 1.0625 1.046875q0.671875 0.375 1.5 0.375zm13.65094 -7.15625l0 8.40625l-1.28125 0l-4.640625 -5.6875l0 5.6875l-1.546875 0l0 -8.40625l1.28125 0l4.640625 5.6875l0 -5.6875l1.546875 0zm4.8606567 8.53125q-0.96875 0 -1.875 -0.28125q-0.90625 -0.28125 -1.4375 -0.734375l0.53125 -1.203125q0.515625 0.40625 1.265625 0.671875q0.75 0.25 1.515625 0.25q0.9375 0 1.390625 -0.296875q0.46875 -0.3125 0.46875 -0.796875q0 -0.359375 -0.265625 -0.59375q-0.25 -0.234375 -0.65625 -0.359375q-0.390625 -0.140625 -1.078125 -0.3125q-0.953125 -0.21875 -1.546875 -0.453125q-0.59375 -0.234375 -1.03125 -0.71875q-0.421875 -0.484375 -0.421875 -1.3125q0 -0.6875 0.375 -1.25q0.390625 -0.578125 1.140625 -0.90625q0.765625 -0.34375 1.875 -0.34375q0.765625 0 1.5 0.1875q0.75 0.1875 1.296875 0.546875l-0.5 1.21875q-0.546875 -0.328125 -1.15625 -0.484375q-0.59375 -0.171875 -1.15625 -0.171875q-0.921875 0 -1.375 0.3125q-0.453125 0.3125 -0.453125 0.828125q0 0.359375 0.25 0.59375q0.265625 0.21875 0.65625 0.359375q0.40625 0.125 1.09375 0.28125q0.9375 0.21875 1.53125 0.453125q0.609375 0.234375 1.03125 0.71875q0.421875 0.484375 0.421875 1.296875q0 0.6875 -0.375 1.265625q-0.375 0.5625 -1.140625 0.90625q-0.765625 0.328125 -1.875 0.328125z" fill-rule="nonzero"/><path fill="#000000" fill-opacity="0.0" d="m480.0 546.3622l0 25.00116l0.06298828 0l0 -337.946" fill-rule="evenodd"/><path stroke="#cccccc" stroke-width="1.0" stroke-linejoin="round" stroke-linecap="butt" d="m480.0 552.3622l0 19.00116l0.06298828 0l0 -337.946" fill-rule="evenodd"/><path fill="#cccccc" stroke="#cccccc" stroke-width="1.0" stroke-linecap="butt" d="m481.65173 552.3622l-1.6517334 -4.538086l-1.6517334 4.538086z" fill-rule="evenodd"/></g></svg>