<?xml version="1.0" encoding="UTF-8"?>
<svg width="50px" height="51px" viewBox="0 0 50 51" version="1.1" xmlns="http://www.w3.org/2000/svg" xmlns:xlink="http://www.w3.org/1999/xlink">
    <title>Group</title>
    <defs>
        <polygon id="path-1" points="0 0.765156745 10.7043677 0.765156745 10.7043677 11.468 0 11.468"></polygon>
    </defs>
    <g id="---Developers" stroke="none" stroke-width="1" fill="none" fill-rule="evenodd">
        <g id="Documentation---Home-Page" transform="translate(-702.000000, -581.000000)">
            <g id="Group">
                <g id="Content" transform="translate(369.000000, 190.000000)">
                    <g id="Use-Case" transform="translate(61.000000, 123.000000)">
                        <g transform="translate(258.000000, 219.000000)" id="Group">
                            <g transform="translate(14.000000, 49.500000)">
                                <g id="Icon/Node-Operators-Blue">
                                    <g id="Node-Operators" transform="translate(3.333333, 1.666667)">
                                        <path d="M23.885,7.09633333 C23.675,8.60466667 22.595,9.97133333 20.63,9.97133333 C18.815,9.97133333 17.7616667,8.80633333 17.445,7.443 L14.045,9.02633333 C14.625,11.8313333 17.1216667,13.9546667 20.0916667,13.9546667 L21.7316667,13.9546667 C24.7033333,13.9546667 27.2033333,11.8263333 27.7816667,9.018 L23.885,7.09633333 Z" id="Fill-1" fill="#8ECFB9"></path>
                                        <path d="M20.8641667,36.556 C22.7441667,36.556 23.8141667,37.8043333 24.0875,39.231 L27.8575,37.4743333 C27.2775,34.6693333 24.7808333,32.546 21.8108333,32.546 L20.1708333,32.546 C17.1991667,32.546 14.6991667,34.6743333 14.1208333,37.4826667 L17.6441667,39.221 C17.9225,37.7976667 18.9908333,36.556 20.8641667,36.556" id="Fill-3" fill="#8ECFB9"></path>
                                        <path d="M20.8413333,10.2328333 C20.4863333,10.2328333 20.1713333,10.1745 19.873,10.0928333 L19.873,18.6761667 L22.028,18.6761667 L22.028,10.0228333 C21.673,10.1478333 21.2863333,10.2328333 20.8413333,10.2328333" id="Fill-5" fill="#8DB7DC"></path>
                                        <path d="M20.9991667,37.1045 C21.3791667,37.1045 21.7141667,37.1711667 22.0275,37.2645 L22.0275,27.6028333 L19.8725,27.6028333 L19.8725,37.2945 C20.2108333,37.1828333 20.5791667,37.1045 20.9991667,37.1045" id="Fill-7" fill="#8DB7DC"></path>
                                        <path d="M9.54583333,15.6641667 C9.41916667,16.3925 9.07583333,17.0658333 8.53583333,17.5675 L16.5208333,21.9408333 L17.5558333,20.0508333 L9.54583333,15.6641667 Z" id="Fill-9" fill="#8DB7DC"></path>
                                        <path d="M34.1681667,29.152 L25.3831667,24.337 L24.3465,26.227 L33.0531667,30.9986667 C33.2198333,30.2803333 33.5865,29.6186667 34.1681667,29.152" id="Fill-11" fill="#8DB7DC"></path>
                                        <path d="M9.28383333,31.2533333 L17.6521667,26.3316667 L16.5571667,24.475 L8.2205,29.38 C8.78216667,29.8633333 9.13716667,30.53 9.28383333,31.2533333" id="Fill-13" fill="#8DB7DC"></path>
                                        <path d="M32.3338333,15.1936667 L24.2488333,19.9503333 L25.3438333,21.807 L33.4238333,17.052 C32.8538333,16.577 32.4921667,15.9153333 32.3338333,15.1936667" id="Fill-15" fill="#8DB7DC"></path>
                                        <path d="M9.44483333,13.2031667 L17.5648333,8.51483333 C17.0881667,7.94983333 16.8348333,7.22483333 16.7798333,6.47983333 L8.38983333,11.3215 C8.94816667,11.8098333 9.3015,12.4781667 9.44483333,13.2031667" id="Fill-17" fill="#8DB7DC"></path>
                                        <path d="M17.845,38.239 L9.79666667,33.5923333 C9.62,34.309 9.24833333,34.9656667 8.65833333,35.4256667 L16.8233333,40.139 C16.955,39.4106667 17.3,38.739 17.845,38.239" id="Fill-19" fill="#8DB7DC"></path>
                                        <path d="M33.6913333,11.4275 L25.943,6.9525 C25.798,7.6775 25.4446667,8.34416667 24.8863333,8.8325 L32.3513333,13.1425 C32.5863333,12.4391667 33.038,11.8291667 33.6913333,11.4275" id="Fill-21" fill="#8DB7DC"></path>
                                        <path d="M36.3183333,18.9535 C36.0033333,18.9535 35.7166667,18.9101667 35.4466667,18.8451667 L35.4466667,28.9335 C35.8183333,28.7901667 36.2333333,28.6985 36.71,28.6985 C37.035,28.6985 37.325,28.7451667 37.6016667,28.8118333 L37.6016667,18.7101667 C37.2233333,18.8585 36.8016667,18.9535 36.3183333,18.9535" id="Fill-23" fill="#8DB7DC"></path>
                                        <path d="M32.4006667,33.4213333 L24.1206667,38.2013333 C24.654,38.7113333 24.9923333,39.3896667 25.1106667,40.1196667 L33.1156667,35.498 C32.664,34.9096667 32.4256667,34.173 32.4006667,33.4213333" id="Fill-25" fill="#8DB7DC"></path>
                                        <path d="M5.20816667,28.1478333 C5.67816667,28.1478333 6.0865,28.2395 6.4565,28.3795 L6.4565,18.9311667 C6.1265,19.0361667 5.76983333,19.1095 5.36483333,19.1095 C4.96983333,19.1095 4.62483333,19.0395 4.3015,18.9411667 L4.3015,28.2678333 C4.5815,28.1961667 4.87816667,28.1478333 5.20816667,28.1478333" id="Fill-27" fill="#8DB7DC"></path>
                                        <path d="M36.5575,29.0348333 C35.4491667,29.0348333 34.3708333,29.6115 33.7841667,30.6398333 C32.9141667,32.1648333 33.4475,34.1131667 34.9725,34.9831667 C36.4975,35.8531667 38.4458333,35.3198333 39.3158333,33.7965 C40.1875,32.2715 39.6541667,30.3231667 38.1291667,29.4515 C37.6341667,29.1681667 37.0908333,29.0348333 36.5575,29.0348333 M36.5408333,37.5681667 C35.6425,37.5681667 34.7325,37.3415 33.8975,36.8648333 C31.3358333,35.4031667 30.4408333,32.1281667 31.9025,29.5648333 C33.3658333,27.0048333 36.6408333,26.1065 39.2041667,27.5698333 C41.7658333,29.0331667 42.6608333,32.3098333 41.1975,34.8715 C40.2108333,36.5981667 38.4008333,37.5681667 36.5408333,37.5681667" id="Fill-29" fill="#074957"></path>
                                        <g id="Group-33" transform="translate(0.000000, 8.294333)">
                                            <mask id="mask-2" fill="white">
                                                <use xlink:href="#path-1"></use>
                                            </mask>
                                            <g id="Clip-32"></g>
                                            <path d="M5.35633333,2.93133333 C4.248,2.93133333 3.17133333,3.508 2.58466667,4.53633333 C1.713,6.06133333 2.248,8.00966667 3.773,8.87966667 C4.50966667,9.303 5.37133333,9.41133333 6.18966667,9.18633333 C7.01133333,8.963 7.69466667,8.433 8.11633333,7.693 C8.538,6.95466667 8.648,6.09466667 8.423,5.27466667 C8.198,4.45466667 7.66966667,3.77133333 6.92966667,3.34966667 C6.433,3.06633333 5.88966667,2.93133333 5.35633333,2.93133333 M5.343,11.468 C4.423,11.468 3.51633333,11.2296667 2.698,10.7613333 C0.134666667,9.298 -0.760333333,6.023 0.703,3.46133333 C2.16633333,0.901333333 5.44133333,0.00466666667 8.00466667,1.468 C9.24466667,2.17633333 10.1363333,3.32466667 10.513,4.703 C10.8896667,6.083 10.7063333,7.52633333 9.998,8.768 C9.28966667,10.0096667 8.13966667,10.8996667 6.76133333,11.278 C6.293,11.4046667 5.81466667,11.468 5.343,11.468" id="Fill-31" fill="#074957" mask="url(#mask-2)"></path>
                                        </g>
                                        <path d="M5.4215,29.1666667 C4.87816667,29.1666667 4.32816667,29.305 3.82483333,29.5983333 C2.30816667,30.4816667 1.7915,32.435 2.67483333,33.9516667 C3.5565,35.47 5.5115,35.99 7.02983333,35.1033333 C7.76483333,34.675 8.28983333,33.9866667 8.5065,33.1633333 C8.72316667,32.34 8.6065,31.4833333 8.17983333,30.7483333 C7.58983333,29.7333333 6.51983333,29.1666667 5.4215,29.1666667 M5.4365,37.7 C3.5915,37.7 1.79483333,36.7483333 0.803166667,35.0416667 C-0.681833333,32.49 0.184833333,29.2083333 2.73483333,27.7266667 C5.28483333,26.2416667 8.56816667,27.1083333 10.0515,29.6583333 C11.5365,32.2083333 10.6681667,35.4916667 8.11983333,36.975 C7.27483333,37.465 6.34983333,37.7 5.4365,37.7" id="Fill-34" fill="#7367B4"></path>
                                        <path d="M36.4696667,11.0905 C35.9146667,11.0905 35.3663333,11.2388333 34.873,11.5255 C34.138,11.9538333 33.613,12.6421667 33.3946667,13.4638333 C33.178,14.2855 33.2946667,15.1438333 33.723,15.8788333 C34.1496667,16.6138333 34.838,17.1388333 35.6613333,17.3571667 C36.4846667,17.5755 37.3396667,17.4571667 38.0763333,17.0288333 C38.8113333,16.6021667 39.3363333,15.9138333 39.5546667,15.0888333 C39.7696667,14.2671667 39.6546667,13.4105 39.2263333,12.6755 C38.798,11.9405 38.1096667,11.4155 37.288,11.1971667 C37.0163333,11.1255 36.743,11.0905 36.4696667,11.0905 M36.483,19.6305 C36.0246667,19.6305 35.563,19.5721667 35.108,19.4521667 C33.7263333,19.0871667 32.568,18.2055 31.8513333,16.9688333 C31.1313333,15.7338333 30.9363333,14.2921667 31.2996667,12.9105 C31.6646667,11.5288333 32.5463333,10.3705 33.783,9.65383333 C35.0163333,8.93216667 36.453,8.7355 37.8413333,9.10383333 C39.223,9.46716667 40.3813333,10.3505 41.098,11.5855 C41.818,12.8205 42.013,14.2605 41.648,15.6421667 C41.2846667,17.0255 40.4013333,18.1821667 39.1663333,18.9021667 C38.338,19.3855 37.4163333,19.6305 36.483,19.6305" id="Fill-36" fill="#7367B4"></path>
                                        <path d="M20.9438333,19.3995 C20.2988333,19.3995 19.6471667,19.5661667 19.0505,19.9111667 C18.1805,20.4161667 17.5571667,21.2345 17.3005,22.2095 C17.0438333,23.1828333 17.1805,24.1995 17.6888333,25.0695 C18.1955,25.9445 19.0121667,26.5645 19.9871667,26.8228333 C20.9655,27.0811667 21.9805,26.9411667 22.8488333,26.4361667 C24.6488333,25.3878333 25.2605,23.0711667 24.2138333,21.2745 C23.5138333,20.0695 22.2438333,19.3995 20.9438333,19.3995 M20.9605,29.1045 C20.4505,29.1045 19.9388333,29.0395 19.4371667,28.9061667 C17.9055,28.5011667 16.6221667,27.5245 15.8255,26.1545 C15.0305,24.7878333 14.8121667,23.1911667 15.2171667,21.6578333 C15.6221667,20.1278333 16.5988333,18.8461667 17.9688333,18.0478333 C20.7921667,16.4111667 24.4288333,17.3661667 26.0738333,20.1878333 C26.8721667,21.5578333 27.0888333,23.1561667 26.6838333,24.6878333 C26.2805,26.2178333 25.3021667,27.5011667 23.9338333,28.2961667 C23.0155,28.8328333 21.9955,29.1045 20.9605,29.1045" id="Fill-38" fill="#8DB7DC"></path>
                                        <path d="M20.9505,2.168 C19.1938333,2.168 17.7671667,3.59466667 17.7671667,5.35133333 C17.7671667,7.108 19.1938333,8.53466667 20.9505,8.53466667 C22.7071667,8.53466667 24.1338333,7.108 24.1338333,5.35133333 C24.1338333,3.59466667 22.7071667,2.168 20.9505,2.168 M20.9505,10.703 C17.9988333,10.703 15.5988333,8.303 15.5988333,5.35133333 C15.5988333,2.40133333 17.9988333,-0.000333333333 20.9505,-0.000333333333 C23.9021667,-0.000333333333 26.3021667,2.40133333 26.3021667,5.35133333 C26.3021667,8.303 23.9021667,10.703 20.9505,10.703" id="Fill-40" fill="#8DB7DC"></path>
                                        <path d="M20.9505,38.0925 C19.1938333,38.0925 17.7671667,39.5191667 17.7671667,41.2758333 C17.7671667,43.0325 19.1938333,44.4591667 20.9505,44.4591667 C22.7071667,44.4591667 24.1338333,43.0325 24.1338333,41.2758333 C24.1338333,39.5191667 22.7071667,38.0925 20.9505,38.0925 M20.9505,46.6275 C17.9988333,46.6275 15.5988333,44.2275 15.5988333,41.2758333 C15.5988333,38.3258333 17.9988333,35.9241667 20.9505,35.9241667 C23.9021667,35.9241667 26.3021667,38.3258333 26.3021667,41.2758333 C26.3021667,44.2275 23.9021667,46.6275 20.9505,46.6275" id="Fill-42" fill="#8DB7DC"></path>
                                    </g>
                                </g>
                            </g>
                        </g>
                    </g>
                </g>
            </g>
        </g>
    </g>
</svg>