<?xml version="1.0" encoding="UTF-8"?>
<svg width="50px" height="51px" viewBox="0 0 50 51" version="1.1" xmlns="http://www.w3.org/2000/svg" xmlns:xlink="http://www.w3.org/1999/xlink">
    <title>Group</title>
    <g id="---Developers" stroke="none" stroke-width="1" fill="none" fill-rule="evenodd">
        <g id="Documentation---Home-Page" transform="translate(-444.000000, -581.000000)">
            <g id="Group">
                <g id="Content" transform="translate(369.000000, 190.000000)">
                    <g id="Use-Case" transform="translate(61.000000, 123.000000)">
                        <g transform="translate(0.000000, 219.000000)" id="Group">
                            <g transform="translate(14.000000, 49.500000)">
                                <g id="Icon/Learn-More-Green">
                                    <g id="Group-17" transform="translate(3.333333, 10.000000)">
                                        <path d="M41.2743333,30.8333333 L2.05933333,30.8333333 C1.381,30.8333333 0.832666667,30.285 0.832666667,29.6083333 L0.832666667,2.05833333 C0.832666667,1.38166667 1.381,0.833333333 2.05933333,0.833333333 L41.2743333,0.833333333 C41.951,0.833333333 42.4993333,1.38166667 42.4993333,2.05833333 L42.4993333,29.6083333 C42.4993333,30.285 41.951,30.8333333 41.2743333,30.8333333" id="Fill-1" fill="#FFFFFF"></path>
                                        <path d="M19.1666667,0.833333333 L0.833333333,0.833333333 L0.833333333,5.83333333 L14.1666667,5.83333333 C16.9283333,5.83333333 19.1666667,3.595 19.1666667,0.833333333" id="Fill-3" fill="#8ECFBA"></path>
                                        <path d="M41.2743333,31.6666667 L2.05933333,31.6666667 C1.381,31.6666667 0.832666667,31.1183333 0.832666667,30.4416667 L0.832666667,2.05833333 C0.832666667,1.38166667 1.381,0.833333333 2.05933333,0.833333333 L41.2743333,0.833333333 C41.951,0.833333333 42.4993333,1.38166667 42.4993333,2.05833333 L42.4993333,30.4416667 C42.4993333,31.1183333 41.951,31.6666667 41.2743333,31.6666667 Z" id="Stroke-5" stroke="#074957" stroke-width="1.81985294"></path>
                                        <g id="Group-10" transform="translate(0.000000, 5.082492)">
                                            <line x1="0.833333333" y1="1.56550842" x2="42.5" y2="1.56550842" id="Fill-7" fill="#FFFFFF"></line>
                                            <line x1="0.833333333" y1="1.56550842" x2="42.5" y2="1.56550842" id="Stroke-9" stroke="#074957" stroke-width="1.81985294"></line>
                                        </g>
                                        <path d="M21.6895,21.971 C19.9178333,21.971 18.4795,20.5343333 18.4795,18.761 C18.4795,16.9876667 19.9178333,15.551 21.6895,15.551 C23.4611667,15.551 24.8995,16.9876667 24.8995,18.761 C24.8995,20.5343333 23.4611667,21.971 21.6895,21.971 L21.6895,21.971 Z M28.7511667,20.1726667 L28.7511667,17.3493333 L27.0561667,16.9243333 C26.9861667,16.7126667 26.9161667,16.501 26.7745,16.2893333 L27.6928333,14.736 L25.7145,12.7593333 L24.1611667,13.676 C23.9478333,13.606 23.7378333,13.4643333 23.5261667,13.3943333 L23.1028333,11.6993333 L20.2761667,11.6993333 L19.8528333,13.3943333 C19.6411667,13.5343333 19.4311667,13.606 19.2195,13.676 L17.6645,12.7593333 L15.6861667,14.736 L16.6045,16.2893333 C16.5345,16.501 16.3928333,16.7126667 16.3228333,16.9243333 L14.6295,17.3493333 L14.6295,20.1726667 L16.3228333,20.596 C16.3928333,20.8093333 16.4645,21.021 16.6045,21.2326667 L15.6861667,22.786 L17.6645,24.7626667 L19.2195,23.846 C19.4311667,23.916 19.6411667,24.056 19.8528333,24.1276667 L20.2761667,25.8226667 L23.1028333,25.8226667 L23.5261667,24.1276667 C23.7378333,24.056 23.9478333,23.986 24.1611667,23.846 L25.7145,24.7626667 L27.6928333,22.786 L26.7745,21.2326667 C26.8445,21.021 26.9861667,20.8093333 27.0561667,20.596 L28.7511667,20.1726667 Z" id="Fill-11" fill="#706AB1"></path>
                                        <path d="M12.8158333,13.0208333 L7.68083333,18.1558333 C7.35583333,18.4825 7.35583333,19.0108333 7.68083333,19.3391667 L12.8158333,24.4725" id="Stroke-13" stroke="#BBE2D5" stroke-width="1.81985294" stroke-linecap="round"></path>
                                        <path d="M30.4541667,24.4726667 L35.5891667,19.3376667 C35.9141667,19.011 35.9141667,18.4826667 35.5891667,18.156 L30.4541667,13.021" id="Stroke-15" stroke="#BBE2D5" stroke-width="1.81985294" stroke-linecap="round"></path>
                                    </g>
                                </g>
                            </g>
                        </g>
                    </g>
                </g>
            </g>
        </g>
    </g>
</svg>