<?xml version="1.0" encoding="UTF-8"?>
<svg width="30px" height="30px" viewBox="0 0 30 30" version="1.1" xmlns="http://www.w3.org/2000/svg" xmlns:xlink="http://www.w3.org/1999/xlink">
    <title>548F606F-9C91-4BDA-8B35-6651B0250BCE</title>
    <g id="---Developers" stroke="none" stroke-width="1" fill="none" fill-rule="evenodd">
        <g id="Icons" transform="translate(-249.000000, -288.000000)">
            <g id="Icon/Home" transform="translate(249.000000, 288.000000)">
                <g id="Merchant-Solutions" transform="translate(5.000000, 5.000000)">
                    <g>
                        <path d="M2.97871686,0.451079663 L16.2431221,0.451079663 C16.7954069,0.451079663 17.2431221,0.898794913 17.2431221,1.45107966 C17.2431221,1.62449114 17.1980273,1.79492214 17.1122646,1.94564142 L16.4108241,3.17835239 L16.4108241,3.17835239 L2.77446051,3.17835239 L2.09866524,1.92595769 C1.83639734,1.4399186 2.01779974,0.833295935 2.50383883,0.571028041 C2.64974116,0.492298784 2.81292848,0.451079663 2.97871686,0.451079663 Z" id="Rectangle" fill="#93B3DE" transform="translate(9.632761, 1.814716) rotate(-180.000000) translate(-9.632761, -1.814716) "></path>
                        <path d="M6.491061,19.4040674 L6.491061,14.040431 C6.491061,13.4881462 6.93877625,13.040431 7.491061,13.040431 L11.8546974,13.040431 C12.4069821,13.040431 12.8546974,13.4881462 12.8546974,14.040431 L12.8546974,19.4040674 L12.8546974,19.4040674" id="Path-10" stroke="#8FD0BB"></path>
                        <path d="M1.12742464,4.99653421 L6.491061,4.99653421 L6.491061,4.99653421 L6.491061,7.26926148 C6.491061,9.02653114 5.06651248,10.4510797 3.30924282,10.4510797 L2.85469736,10.4510797 C1.34846623,10.4510797 0.127424636,9.23003807 0.127424636,7.72380694 L0.127424636,5.99653421 C0.127424636,5.44424946 0.575139886,4.99653421 1.12742464,4.99653421 Z" id="Rectangle" stroke="#7169AF"></path>
                        <path d="M6.491061,4.99653421 L12.8546974,4.99653421 L12.8546974,7.26926148 C12.8546974,9.02653114 11.4301488,10.4510797 9.67287918,10.4510797 C7.91560952,10.4510797 6.491061,9.02653114 6.491061,7.26926148 L6.491061,4.99653421 L6.491061,4.99653421 Z" id="Rectangle" stroke="#7169AF"></path>
                        <path d="M12.8546974,4.99653421 L18.2183337,4.99653421 C18.7706185,4.99653421 19.2183337,5.44424946 19.2183337,5.99653421 L19.2183337,7.72380694 C19.2183337,9.23003807 17.9972921,10.4510797 16.491061,10.4510797 L16.0365155,10.4510797 C14.2792459,10.4510797 12.8546974,9.02653114 12.8546974,7.26926148 L12.8546974,4.99653421 L12.8546974,4.99653421 Z" id="Rectangle" stroke="#7169AF"></path>
                        <path d="" id="Path-11" stroke="#979797"></path>
                        <line x1="6.491061" y1="4.99653421" x2="7.32316672" y2="0" id="Path-13" stroke="#4E3D95"></line>
                        <line x1="12.8546974" y1="4.99653421" x2="12.0207672" y2="0" id="Path-14" stroke="#4E3D95"></line>
                        <rect id="Rectangle" stroke="#4E4093" x="0.127424636" y="4.99653421" width="19.0909091" height="14.5454545" rx="1"></rect>
                        <polyline id="Path-12" stroke="#4E3D95" points="0.287045557 5.39801999 2.9600115 0 16.4691473 0 19.0859689 5.43937539"></polyline>
                    </g>
                </g>
            </g>
        </g>
    </g>
</svg>