<svg height="29.5" viewBox="0 0 27.434 29.5" width="27.434" xmlns="http://www.w3.org/2000/svg"><path d="M27.315 18.389a2.658 2.658 0 00-.981-1.459 1.665 1.665 0 01-.015-.761l.037-.177V14.8c0-1.247-.006-1.277-.048-1.472a1.754 1.754 0 01.007-.803c.477-.346.828-.861.996-1.476.261-.956.076-2.091-.508-3.114l-.591-1.032c-.746-1.307-1.965-2.119-3.182-2.119-.378 0-.75.081-1.085.235-.198-.025-.554-.15-.855-.389l-.103-.082-.114-.065-1.857-1.067-.096-.056-.105-.044a1.973 1.973 0 01-.768-.556C17.918 1.172 16.349 0 14.296 0H13.14c-2.043 0-3.608 1.154-3.749 2.721a2.002 2.002 0 01-.758.529l-.1.039-.094.052-1.944 1.065-.132.073-.118.094a2.053 2.053 0 01-.829.404 2.501 2.501 0 00-1.011-.21c-1.198 0-2.411.819-3.165 2.139L.65 7.938c-.412.72-.642 1.521-.644 2.258-.003.952.362 1.756 1.013 2.256.034.155.061.448-.016.786-.038.168-.062.28-.062 1.563 0 1.148 0 1.148.015 1.262l.009.073.017.073c.073.346.045.643.011.802-.645.501-1.003 1.303-.993 2.257.008.729.238 1.523.648 2.242l.589 1.031c.761 1.331 1.967 2.159 3.15 2.159.324 0 .645-.064.938-.187.167.038.492.156.813.416l.11.088.124.07 2.045 1.156.102.057.107.043c.364.147.646.381.766.521.164 1.52 1.719 2.634 3.745 2.634h1.155c2.037 0 3.598-1.134 3.747-2.675.117-.145.401-.393.774-.549l.111-.047.105-.062 1.96-1.159.105-.062.097-.075c.309-.246.651-.371.832-.402a2.53 2.53 0 001.016.212c1.199 0 2.412-.82 3.166-2.139l.59-1.032c.592-1.028.78-2.166.52-3.119zm-2.041 2.246l-.59 1.032c-.438.765-1.104 1.251-1.639 1.251a.72.72 0 01-.369-.094 1.144 1.144 0 00-.566-.127c-.596 0-1.383.295-2.01.796l-1.96 1.157c-1.016.425-1.846 1.291-1.846 1.929s-.898 1.159-1.998 1.159H13.14c-1.1 0-1.998-.514-1.998-1.141s-.834-1.477-1.854-1.888l-2.046-1.157c-.636-.511-1.425-.814-2.006-.814-.202 0-.379.037-.516.115a.67.67 0 01-.333.084c-.518 0-1.179-.498-1.62-1.271l-.591-1.032c-.545-.954-.556-1.983-.024-2.286.532-.305.78-1.432.551-2.506V14.8c0-1.088.021-1.18.021-1.18.238-1.072-.01-2.203-.552-2.513-.541-.307-.538-1.342.008-2.295l.589-1.032c.438-.766 1.103-1.251 1.636-1.251.131 0 .255.029.365.092.15.086.344.126.564.126.596 0 1.38-.296 2.007-.795l1.944-1.065c1.021-.407 1.856-1.277 1.856-1.933 0-.656.898-1.192 1.998-1.192h1.156v-.001c1.1 0 1.998.545 1.998 1.211 0 .667.832 1.554 1.849 1.973L20 6.013c.618.489 1.401.775 2.012.775.24 0 .454-.045.62-.139a.81.81 0 01.403-.102c.551 0 1.221.476 1.653 1.231l.59 1.032c.544.953.518 2.004-.062 2.334-.577.331-.859 1.48-.627 2.554 0 0 .01.042.01 1.103v1.012c-.218 1.049.068 2.174.636 2.498.567.324.584 1.369.039 2.324z"/><path d="M13.61 7.611a7.085 7.085 0 00-7.084 7.085 7.085 7.085 0 107.084-7.085zm0 12.409a5.329 5.329 0 01-5.323-5.323c0-2.935 2.388-5.323 5.323-5.323s5.324 2.388 5.324 5.323a5.33 5.33 0 01-5.324 5.323z"/><path d="M13.682 9.908a4.723 4.723 0 00-4.718 4.718 4.722 4.722 0 004.718 4.716 4.721 4.721 0 004.717-4.716 4.723 4.723 0 00-4.717-4.718zm0 7.673a2.955 2.955 0 11-.002-5.91 2.955 2.955 0 01.002 5.91z"/></svg>