<svg width="197" height="110" viewBox="0 0 197 110" xmlns="http://www.w3.org/2000/svg"><g fill="#8C90A7" fill-rule="evenodd"><path d="M9.58 31.983v9.128H.452v9.129H9.58v9.128h9.129V50.24h9.128v-9.13h-9.128v-9.128zm168.872-18.255v9.128h-9.128v9.128h9.128v9.129h9.128v-9.129h9.129v-9.128h-9.129v-9.128zm-13.691 41.077h9.128v9.129h-9.128zM41.53 9.164h9.129v9.128h-9.128zM141.939.035h9.128v9.129h-9.128zm-41.076 0a54.776 54.776 0 00-54.77 54.77 54.775 54.775 0 0054.77 54.771 54.775 54.775 0 0054.77-54.77A54.855 54.855 0 00139.58 16.09 54.856 54.856 0 00100.863.035zm0 100.412a45.59 45.59 0 01-32.269-13.373 45.588 45.588 0 01-13.373-32.27 45.589 45.589 0 0113.373-32.268 45.588 45.588 0 0132.27-13.373 45.589 45.589 0 0132.268 13.373 45.588 45.588 0 0113.373 32.269 45.669 45.669 0 01-13.384 32.257 45.67 45.67 0 01-32.258 13.385zM27.837 73.062h9.128v9.128h-9.128z"/><path d="M100.863 18.292a36.285 36.285 0 00-15.244 3.355A4.6 4.6 0 0083.04 25a4.59 4.59 0 001.267 4.028l42.331 42.332a4.569 4.569 0 003.23 1.335c.274 0 .536-.023.81-.069a4.582 4.582 0 003.343-2.578 36.474 36.474 0 00-33.158-51.758v.001zm-4.815 9.584a26.175 26.175 0 014.815-.456c15.119.011 27.374 12.266 27.385 27.384 0 1.62-.148 3.23-.434 4.827L96.048 27.876zm-19.021 6.78a4.483 4.483 0 00-3.742-1.301 4.543 4.543 0 00-3.355 2.1c-9.037 14.41-6.914 33.148 5.112 45.174 12.027 12.026 30.762 14.149 45.174 5.111a4.59 4.59 0 002.111-3.354 4.6 4.6 0 00-1.312-3.743L77.027 34.656zm23.837 47.534c-15.119-.01-27.374-12.266-27.385-27.385 0-3.138.548-6.241 1.609-9.185l34.962 34.962a27.073 27.073 0 01-9.185 1.609h-.001z"/></g></svg>