<svg width="22" height="22" viewBox="0 0 22 22" xmlns="http://www.w3.org/2000/svg"><g fill="none" fill-rule="evenodd"><circle fill="#D8D8D8" opacity=".3" cx="11" cy="11" r="11"/><path d="M7.634 15.854L11 12.487l3.366 3.367a.5.5 0 00.706 0l.782-.782a.5.5 0 000-.706L12.487 11l3.367-3.366a.5.5 0 000-.706l-.782-.782a.5.5 0 00-.706 0L11 9.513 7.634 6.146a.5.5 0 00-.706 0l-.782.782a.5.5 0 000 .706L9.513 11l-3.367 3.366a.5.5 0 000 .706l.782.782a.5.5 0 00.706 0z" fill="#39298C" fill-rule="nonzero"/></g></svg>