<svg width="430" height="360" viewBox="0 0 430 360" xmlns="http://www.w3.org/2000/svg"><g transform="rotate(-20 -55.907 12.554)" fill="none" fill-rule="evenodd" opacity=".1"><path d="M318.933 400.217c0 3.736-3.174 6.783-7.067 6.783H15.022c-3.893 0-7.068-3.047-7.068-6.783V6.783C7.954 3.047 11.13 0 15.022 0h296.844c3.893 0 7.067 3.047 7.067 6.783v393.434z" fill="#16102C"/><rect fill="#706BB0" y="23.863" width="3.977" height="335.02" rx="1.989"/><path fill="#42318C" d="M50.36 88.183h226.167v-40.7H50.361z"/><path fill="#706BAF" d="M50.36 142.45h226.167v-40.7H50.361zm0 54.267h226.167v-40.7H50.361zm0 54.266h169.626v-40.7H50.36z"/><path fill="#92B4D8" d="M314.096 235.288l-21.203-20.35-70.677 67.834 21.203 20.35zm-14.136-27.133l21.204 20.35 98.948-94.967-21.203-20.35zM209.515 311.2c-.662 2.491 1.684 4.744 4.28 4.108l22.555-5.406-21.203-20.35-5.632 21.649z"/></g></svg>