<svg width="45" height="46" viewBox="0 0 45 46" xmlns="http://www.w3.org/2000/svg" xmlns:xlink="http://www.w3.org/1999/xlink"><defs><circle id="a" cx="18" cy="18" r="18"/></defs><g fill="none" fill-rule="evenodd"><g transform="translate(5.5)"><mask id="b" fill="#fff"><use xlink:href="#a"/></mask><use fill="#FAFAFA" xlink:href="#a"/><g mask="url(#b)"><path fill="#706AAF" d="M1.555 11.624l25.862-4.089 5.343 33.676L6.897 45.3z"/><path fill="#42318C" d="M4.57 8.377L30.654 6.1l2.977 33.966-26.086 2.278z"/><path fill="#EFEFEF" d="M7.948 5.25h26.195v34.162H7.948z"/><path fill="#AEAEAE" d="M11.086 11.889h11.045v1H11.086zm.061 3.622h15.391v1h-15.39zm-.061 1.629h19.435v1H11.086zm0 1.69h8.208v1h-8.208zm0 3.984h7.001v1h-7zm.061 1.69h15.27v1h-15.27zm0 4.889h15.27v1h-15.27zm-.061-3.32h8.208v1h-8.208zm0 1.63H23.46v1H11.086zm9.657-1.63h9.778v1h-9.778zm0-7.243h8.208v1h-8.208z"/></g></g><text font-family="NBInternationalPro-Reg, NB International Pro" font-size="8" fill="#39298C" transform="translate(-1)"><tspan x="1.664" y="44">White Paper</tspan></text></g></svg>